<?xml version="1.0" standalone="no"?>
<!DOCTYPE svg PUBLIC "-//W3C//DTD SVG 1.1//EN" "http://www.w3.org/Graphics/SVG/1.1/DTD/svg11.dtd" >
<svg>
<metadata>
Created by FontForge 20090622 at Mon Dec 11 10:25:13 2017
 By deploy user
Copyright 2011 The Quicksand Project Authors (https://github.com/andrew-paglinawan/QuicksandFamily), with Reserved Font Name &#226;&#128;&#156;Quicksand&#226;&#128;&#157;.
</metadata>
<defs>
<font id="Quicksand-Bold" horiz-adv-x="0" >
  <font-face 
    font-family="Quicksand"
    font-weight="700"
    font-stretch="normal"
    units-per-em="1000"
    panose-1="0 0 8 0 0 0 0 0 0 0"
    ascent="800"
    descent="-200"
    x-height="525"
    cap-height="700"
    bbox="-478 -303 1328 1183"
    underline-thickness="50"
    underline-position="-50"
    unicode-range="U+000D-U+FB02"
  />
<missing-glyph horiz-adv-x="584" 
d="M75 700h434q35 0 35 -35v-630q0 -35 -35 -35h-434q-35 0 -35 35v630q0 35 35 35zM91 668q-1 -2 1 -4l416 -599q2 -3 4 -2.5t2 4.5v598q0 5 -5 5h-414q-3 0 -4 -2zM75 30h413q3 0 4 2t-1 4l-415 599q-2 3 -4 2.5t-2 -4.5v-598q0 -5 5 -5z" />
    <glyph glyph-name="f_f" unicode="ff" horiz-adv-x="834" 
d="M274 614.5q-14 -19.5 -14 -42.5v-47h91q24 0 40 -15.5t16 -39.5t-16 -39.5t-40 -15.5h-91v-354q0 -26 -17 -43.5t-43 -17.5t-43 17.5t-17 43.5v354h-54q-24 0 -40 15.5t-16 39.5t16 39.5t40 15.5h54v46q0 75 51.5 122t148.5 47q37 0 64.5 -15t27.5 -46q0 -24 -14 -39
t-34 -15q-5 0 -10.5 1l-11.5 2q-24 6 -40 6q-34 0 -48 -19.5zM691 614.5q-14 -19.5 -14 -42.5v-47h91q24 0 40 -15.5t16 -39.5t-16 -39.5t-40 -15.5h-91v-354q0 -26 -17 -43.5t-43 -17.5t-43 17.5t-17 43.5v354h-54q-24 0 -40 15.5t-16 39.5t16 39.5t40 15.5h54v46
q0 75 51.5 122t148.5 47q37 0 64.5 -15t27.5 -46q0 -24 -14 -39t-34 -15q-5 0 -10.5 1l-11.5 2q-24 6 -40 6q-34 0 -48 -19.5z" />
    <glyph glyph-name="f_f_i" unicode="ffi" horiz-adv-x="1070" 
d="M274 614.5q-14 -19.5 -14 -42.5v-47h91q24 0 40 -15.5t16 -39.5t-16 -39.5t-40 -15.5h-91v-354q0 -26 -17 -43.5t-43 -17.5t-43 17.5t-17 43.5v354h-54q-24 0 -40 15.5t-16 39.5t16 39.5t40 15.5h54v46q0 75 51.5 122t148.5 47q37 0 64.5 -15t27.5 -46q0 -24 -14 -39
t-34 -15q-5 0 -10.5 1l-11.5 2q-24 6 -40 6q-34 0 -48 -19.5zM691 614.5q-14 -19.5 -14 -42.5v-47h91q24 0 40 -15.5t16 -39.5t-16 -39.5t-40 -15.5h-91v-354q0 -26 -17 -43.5t-43 -17.5t-43 17.5t-17 43.5v354h-54q-24 0 -40 15.5t-16 39.5t16 39.5t40 15.5h54v46
q0 75 51.5 122t148.5 47q37 0 64.5 -15t27.5 -46q0 -24 -14 -39t-34 -15q-5 0 -10.5 1l-11.5 2q-24 6 -40 6q-34 0 -48 -19.5zM995 17.5q-17 -17.5 -43 -17.5t-43 17.5t-17 43.5v413q0 26 17 43.5t43 17.5t43 -17.5t17 -43.5v-413q0 -26 -17 -43.5zM903 611q-14 11 -14 39
v19q0 28 15 39t48 11q35 0 49 -11t14 -39v-19q0 -29 -14.5 -39.5t-49.5 -10.5q-34 0 -48 11z" />
    <glyph glyph-name="f_f_l" unicode="ffl" horiz-adv-x="1104" 
d="M274 614.5q-14 -19.5 -14 -42.5v-47h91q24 0 40 -15.5t16 -39.5t-16 -39.5t-40 -15.5h-91v-354q0 -26 -17 -43.5t-43 -17.5t-43 17.5t-17 43.5v354h-54q-24 0 -40 15.5t-16 39.5t16 39.5t40 15.5h54v46q0 75 51.5 122t148.5 47q37 0 64.5 -15t27.5 -46q0 -24 -14 -39
t-34 -15q-5 0 -10.5 1l-11.5 2q-24 6 -40 6q-34 0 -48 -19.5zM691 614.5q-14 -19.5 -14 -42.5v-47h91q24 0 40 -15.5t16 -39.5t-16 -39.5t-40 -15.5h-91v-354q0 -26 -17 -43.5t-43 -17.5t-43 17.5t-17 43.5v354h-54q-24 0 -40 15.5t-16 39.5t16 39.5t40 15.5h54v46
q0 75 51.5 122t148.5 47q37 0 64.5 -15t27.5 -46q0 -24 -14 -39t-34 -15q-5 0 -10.5 1l-11.5 2q-24 6 -40 6q-34 0 -48 -19.5zM1011.5 17.5q-17.5 -17.5 -43.5 -17.5q-25 0 -42 17.5t-17 43.5v618q0 26 17.5 43.5t43.5 17.5q25 0 42 -17.5t17 -43.5v-618q0 -26 -17.5 -43.5z
" />
    <glyph glyph-name="fi" unicode="fi" horiz-adv-x="653" 
d="M274 614.5q-14 -19.5 -14 -42.5v-47h91q24 0 40 -15.5t16 -39.5t-16 -39.5t-40 -15.5h-91v-354q0 -26 -17 -43.5t-43 -17.5t-43 17.5t-17 43.5v354h-54q-24 0 -40 15.5t-16 39.5t16 39.5t40 15.5h54v46q0 75 51.5 122t148.5 47q37 0 64.5 -15t27.5 -46q0 -24 -14 -39
t-34 -15q-5 0 -10.5 1l-11.5 2q-24 6 -40 6q-34 0 -48 -19.5zM578 17.5q-17 -17.5 -43 -17.5t-43 17.5t-17 43.5v413q0 26 17 43.5t43 17.5t43 -17.5t17 -43.5v-413q0 -26 -17 -43.5zM486 611q-14 11 -14 39v19q0 28 15 39t48 11q35 0 49 -11t14 -39v-19q0 -29 -14.5 -39.5
t-49.5 -10.5q-34 0 -48 11z" />
    <glyph glyph-name="fl" unicode="fl" horiz-adv-x="687" 
d="M274 614.5q-14 -19.5 -14 -42.5v-47h91q24 0 40 -15.5t16 -39.5t-16 -39.5t-40 -15.5h-91v-354q0 -26 -17 -43.5t-43 -17.5t-43 17.5t-17 43.5v354h-54q-24 0 -40 15.5t-16 39.5t16 39.5t40 15.5h54v46q0 75 51.5 122t148.5 47q37 0 64.5 -15t27.5 -46q0 -24 -14 -39
t-34 -15q-5 0 -10.5 1l-11.5 2q-24 6 -40 6q-34 0 -48 -19.5zM594.5 17.5q-17.5 -17.5 -43.5 -17.5q-25 0 -42 17.5t-17 43.5v618q0 26 17.5 43.5t43.5 17.5q25 0 42 -17.5t17 -43.5v-618q0 -26 -17.5 -43.5z" />
    <glyph glyph-name=".notdef" horiz-adv-x="584" 
d="M75 700h434q35 0 35 -35v-630q0 -35 -35 -35h-434q-35 0 -35 35v630q0 35 35 35zM91 668q-1 -2 1 -4l416 -599q2 -3 4 -2.5t2 4.5v598q0 5 -5 5h-414q-3 0 -4 -2zM75 30h413q3 0 4 2t-1 4l-415 599q-2 3 -4 2.5t-2 -4.5v-598q0 -5 5 -5z" />
    <glyph glyph-name="NULL" 
 />
    <glyph glyph-name="NULL" 
 />
    <glyph glyph-name="nonmarkingreturn" unicode="&#xd;" horiz-adv-x="280" 
 />
    <glyph glyph-name="space" unicode=" " horiz-adv-x="280" 
 />
    <glyph glyph-name="A" unicode="A" horiz-adv-x="639" 
d="M629 54q0 -26 -17 -42.5t-39 -16.5q-18 0 -32.5 11t-22.5 30l-52 121h-298l-52 -122q-7 -19 -21.5 -29.5t-31.5 -10.5q-26 0 -39.5 14t-13.5 38q0 9 3 19l249 598q8 20 24 31t36 9q18 0 33.5 -10.5t22.5 -29.5l246 -586q5 -13 5 -24zM217 272h200l-101 234z" />
    <glyph glyph-name="Aacute" unicode="&#xc1;" horiz-adv-x="639" 
d="M629 54q0 -26 -17 -42.5t-39 -16.5q-18 0 -32.5 11t-22.5 30l-52 121h-298l-52 -122q-7 -19 -21.5 -29.5t-31.5 -10.5q-26 0 -39.5 14t-13.5 38q0 9 3 19l249 598q8 20 24 31t36 9q18 0 33.5 -10.5t22.5 -29.5l246 -586q5 -13 5 -24zM217 272h200l-101 234zM292.5 748
q-11.5 10 -11.5 26q0 14 14 27l86 76q26 22 49 22q19 0 36 -14t17 -35q0 -15 -9.5 -29.5t-27.5 -23.5l-100 -53q-10 -6 -23 -6q-19 0 -30.5 10z" />
    <glyph glyph-name="Abreve" unicode="&#x102;" horiz-adv-x="639" 
d="M629 54q0 -26 -17 -42.5t-39 -16.5q-18 0 -32.5 11t-22.5 30l-52 121h-298l-52 -122q-7 -19 -21.5 -29.5t-31.5 -10.5q-26 0 -39.5 14t-13.5 38q0 9 3 19l249 598q8 20 24 31t36 9q18 0 33.5 -10.5t22.5 -29.5l246 -586q5 -13 5 -24zM217 272h200l-101 234zM224.5 782.5
q-41.5 24.5 -60.5 68.5q-5 13 -5 22q0 15 9.5 24t24.5 9q19 0 31 -8t29 -28q24 -27 69 -27q48 0 69 27q15 19 27.5 27.5t32.5 8.5q15 0 24.5 -8.5t9.5 -23.5q0 -10 -4 -21q-19 -46 -60.5 -70.5t-98.5 -24.5q-56 0 -97.5 24.5z" />
    <glyph glyph-name="uni1EAE" unicode="&#x1eae;" horiz-adv-x="639" 
d="M629 54q0 -26 -17 -42.5t-39 -16.5q-18 0 -32.5 11t-22.5 30l-52 121h-298l-52 -122q-7 -19 -21.5 -29.5t-31.5 -10.5q-26 0 -39.5 14t-13.5 38q0 9 3 19l249 598q8 20 24 31t36 9q18 0 33.5 -10.5t22.5 -29.5l246 -586q5 -13 5 -24zM217 272h200l-101 234zM224.5 782.5
q-41.5 24.5 -60.5 68.5q-5 13 -5 22q0 15 9.5 24t24.5 9q19 0 31 -8t29 -28q24 -27 69 -27q48 0 69 27q15 19 27.5 27.5t32.5 8.5q15 0 24.5 -8.5t9.5 -23.5q0 -10 -4 -21q-19 -46 -60.5 -70.5t-98.5 -24.5q-56 0 -97.5 24.5zM292.5 933q-11.5 10 -11.5 26q0 14 14 27l86 76
q26 22 49 22q19 0 36 -14t17 -35q0 -15 -9.5 -29.5t-27.5 -23.5l-100 -53q-10 -6 -23 -6q-19 0 -30.5 10z" />
    <glyph glyph-name="uni1EB6" unicode="&#x1eb6;" horiz-adv-x="639" 
d="M629 54q0 -26 -17 -42.5t-39 -16.5q-18 0 -32.5 11t-22.5 30l-52 121h-298l-52 -122q-7 -19 -21.5 -29.5t-31.5 -10.5q-26 0 -39.5 14t-13.5 38q0 9 3 19l249 598q8 20 24 31t36 9q18 0 33.5 -10.5t22.5 -29.5l246 -586q5 -13 5 -24zM217 272h200l-101 234zM273 -136
q-14 11 -14 39v19q0 28 15 39t46 11q37 0 51 -11t14 -39v-19q0 -29 -15 -39.5t-50 -10.5q-33 0 -47 11zM224.5 782.5q-41.5 24.5 -60.5 68.5q-5 13 -5 22q0 15 9.5 24t24.5 9q19 0 31 -8t29 -28q24 -27 69 -27q48 0 69 27q15 19 27.5 27.5t32.5 8.5q15 0 24.5 -8.5
t9.5 -23.5q0 -10 -4 -21q-19 -46 -60.5 -70.5t-98.5 -24.5q-56 0 -97.5 24.5z" />
    <glyph glyph-name="uni1EB0" unicode="&#x1eb0;" horiz-adv-x="639" 
d="M629 54q0 -26 -17 -42.5t-39 -16.5q-18 0 -32.5 11t-22.5 30l-52 121h-298l-52 -122q-7 -19 -21.5 -29.5t-31.5 -10.5q-26 0 -39.5 14t-13.5 38q0 9 3 19l249 598q8 20 24 31t36 9q18 0 33.5 -10.5t22.5 -29.5l246 -586q5 -13 5 -24zM217 272h200l-101 234zM224.5 782.5
q-41.5 24.5 -60.5 68.5q-5 13 -5 22q0 15 9.5 24t24.5 9q19 0 31 -8t29 -28q24 -27 69 -27q48 0 69 27q15 19 27.5 27.5t32.5 8.5q15 0 24.5 -8.5t9.5 -23.5q0 -10 -4 -21q-19 -46 -60.5 -70.5t-98.5 -24.5q-56 0 -97.5 24.5zM297 933l-100 53q-18 10 -27.5 24t-9.5 29
q0 21 17 35t36 14q23 0 49 -22l86 -76q14 -13 14 -27q0 -16 -11.5 -26t-30.5 -10q-11 0 -23 6z" />
    <glyph glyph-name="uni1EB2" unicode="&#x1eb2;" horiz-adv-x="639" 
d="M629 54q0 -26 -17 -42.5t-39 -16.5q-18 0 -32.5 11t-22.5 30l-52 121h-298l-52 -122q-7 -19 -21.5 -29.5t-31.5 -10.5q-26 0 -39.5 14t-13.5 38q0 9 3 19l249 598q8 20 24 31t36 9q18 0 33.5 -10.5t22.5 -29.5l246 -586q5 -13 5 -24zM217 272h200l-101 234zM224.5 782.5
q-41.5 24.5 -60.5 68.5q-5 13 -5 22q0 15 9.5 24t24.5 9q19 0 31 -8t29 -28q24 -27 69 -27q48 0 69 27q15 19 27.5 27.5t32.5 8.5q15 0 24.5 -8.5t9.5 -23.5q0 -10 -4 -21q-19 -46 -60.5 -70.5t-98.5 -24.5q-56 0 -97.5 24.5zM261 1134.5q18 7.5 43 7.5q56 0 79.5 -26.5
t23.5 -60.5q0 -16 -4.5 -28.5t-14.5 -25.5q-2 -3 -9.5 -12t-11 -15t-3.5 -11q0 -12 -11 -17.5t-29 -5.5q-11 0 -19.5 5.5t-8.5 17.5q0 18 16 39q23 31 23 43t-10 19.5t-24 7.5q-11 0 -20 -4.5t-22 -12.5q-10 -6 -16 -6q-12 0 -25 13q-9 9 -9 21q0 16 16 30q18 14 36 21.5z
" />
    <glyph glyph-name="uni1EB4" unicode="&#x1eb4;" horiz-adv-x="639" 
d="M629 54q0 -26 -17 -42.5t-39 -16.5q-18 0 -32.5 11t-22.5 30l-52 121h-298l-52 -122q-7 -19 -21.5 -29.5t-31.5 -10.5q-26 0 -39.5 14t-13.5 38q0 9 3 19l249 598q8 20 24 31t36 9q18 0 33.5 -10.5t22.5 -29.5l246 -586q5 -13 5 -24zM217 272h200l-101 234zM224.5 782.5
q-41.5 24.5 -60.5 68.5q-5 13 -5 22q0 15 9.5 24t24.5 9q19 0 31 -8t29 -28q24 -27 69 -27q48 0 69 27q15 19 27.5 27.5t32.5 8.5q15 0 24.5 -8.5t9.5 -23.5q0 -10 -4 -21q-19 -46 -60.5 -70.5t-98.5 -24.5q-56 0 -97.5 24.5zM148 940.5q-16 19.5 -16 51.5q0 34 30 61t81 27
q26 0 49 -10t54 -28q21 -12 33.5 -18t22.5 -6q11 0 17 6t3 15q-2 5 -2 14q0 16 10.5 25.5t26.5 9.5q23 0 39 -19.5t16 -49.5q0 -19 -11 -40t-32.5 -35.5t-51.5 -14.5q-29 0 -54 10t-63 29q-22 12 -35 17.5t-23 5.5q-11 0 -17 -6t-3 -15q2 -5 2 -14q0 -16 -10.5 -25.5
t-26.5 -9.5q-23 0 -39 19.5z" />
    <glyph glyph-name="uni01CD" unicode="&#x1cd;" horiz-adv-x="639" 
d="M629 54q0 -26 -17 -42.5t-39 -16.5q-18 0 -32.5 11t-22.5 30l-52 121h-298l-52 -122q-7 -19 -21.5 -29.5t-31.5 -10.5q-26 0 -39.5 14t-13.5 38q0 9 3 19l249 598q8 20 24 31t36 9q18 0 33.5 -10.5t22.5 -29.5l246 -586q5 -13 5 -24zM217 272h200l-101 234zM461 888
q9 -8 9 -17q0 -7 -3 -13t-12 -17l-63 -72q-13 -15 -27.5 -22t-33.5 -7h-16q-20 0 -34 7t-27 22l-63 72q-9 11 -12 17t-3 13q0 9 9 17t22 8q20 0 51 -20l65 -42l65 42q31 20 51 20q13 0 22 -8z" />
    <glyph glyph-name="Acircumflex" unicode="&#xc2;" horiz-adv-x="639" 
d="M629 54q0 -26 -17 -42.5t-39 -16.5q-18 0 -32.5 11t-22.5 30l-52 121h-298l-52 -122q-7 -19 -21.5 -29.5t-31.5 -10.5q-26 0 -39.5 14t-13.5 38q0 9 3 19l249 598q8 20 24 31t36 9q18 0 33.5 -10.5t22.5 -29.5l246 -586q5 -13 5 -24zM217 272h200l-101 234zM465 779
q3 -6 3 -14q0 -9 -9 -17t-22 -8q-9 0 -20 5t-31 17l-65 38l-65 -38q-16 -9 -29 -15.5t-22 -6.5q-13 0 -22 8t-9 17q0 8 3 14t12 16l63 72q13 15 27 22t34 7h16q19 0 33.5 -7t27.5 -22l63 -72q9 -10 12 -16z" />
    <glyph glyph-name="uni1EA4" unicode="&#x1ea4;" horiz-adv-x="639" 
d="M629 54q0 -26 -17 -42.5t-39 -16.5q-18 0 -32.5 11t-22.5 30l-52 121h-298l-52 -122q-7 -19 -21.5 -29.5t-31.5 -10.5q-26 0 -39.5 14t-13.5 38q0 9 3 19l249 598q8 20 24 31t36 9q18 0 33.5 -10.5t22.5 -29.5l246 -586q5 -13 5 -24zM217 272h200l-101 234zM465 779
q3 -6 3 -14q0 -9 -9 -17t-22 -8q-9 0 -20 5t-31 17l-65 38l-65 -38q-16 -9 -29 -15.5t-22 -6.5q-13 0 -22 8t-9 17q0 8 3 14t12 16l63 72q13 15 27 22t34 7h16q19 0 33.5 -7t27.5 -22l63 -72q9 -10 12 -16zM457.5 830q-11.5 10 -11.5 26q0 14 14 27l86 76q26 22 49 22
q19 0 36 -14t17 -35q0 -15 -9.5 -29.5t-27.5 -23.5l-100 -53q-10 -6 -23 -6q-19 0 -30.5 10z" />
    <glyph glyph-name="uni1EAC" unicode="&#x1eac;" horiz-adv-x="639" 
d="M629 54q0 -26 -17 -42.5t-39 -16.5q-18 0 -32.5 11t-22.5 30l-52 121h-298l-52 -122q-7 -19 -21.5 -29.5t-31.5 -10.5q-26 0 -39.5 14t-13.5 38q0 9 3 19l249 598q8 20 24 31t36 9q18 0 33.5 -10.5t22.5 -29.5l246 -586q5 -13 5 -24zM217 272h200l-101 234zM273 -136
q-14 11 -14 39v19q0 28 15 39t46 11q37 0 51 -11t14 -39v-19q0 -29 -15 -39.5t-50 -10.5q-33 0 -47 11zM465 779q3 -6 3 -14q0 -9 -9 -17t-22 -8q-9 0 -20 5t-31 17l-65 38l-65 -38q-16 -9 -29 -15.5t-22 -6.5q-13 0 -22 8t-9 17q0 8 3 14t12 16l63 72q13 15 27 22t34 7h16
q19 0 33.5 -7t27.5 -22l63 -72q9 -10 12 -16z" />
    <glyph glyph-name="uni1EA6" unicode="&#x1ea6;" horiz-adv-x="639" 
d="M629 54q0 -26 -17 -42.5t-39 -16.5q-18 0 -32.5 11t-22.5 30l-52 121h-298l-52 -122q-7 -19 -21.5 -29.5t-31.5 -10.5q-26 0 -39.5 14t-13.5 38q0 9 3 19l249 598q8 20 24 31t36 9q18 0 33.5 -10.5t22.5 -29.5l246 -586q5 -13 5 -24zM217 272h200l-101 234zM465 779
q3 -6 3 -14q0 -9 -9 -17t-22 -8q-9 0 -20 5t-31 17l-65 38l-65 -38q-16 -9 -29 -15.5t-22 -6.5q-13 0 -22 8t-9 17q0 8 3 14t12 16l63 72q13 15 27 22t34 7h16q19 0 33.5 -7t27.5 -22l63 -72q9 -10 12 -16zM444 884l-100 53q-18 10 -27.5 24t-9.5 29q0 21 17 35t36 14
q23 0 49 -22l86 -76q14 -13 14 -27q0 -16 -11.5 -26t-30.5 -10q-11 0 -23 6z" />
    <glyph glyph-name="uni1EA8" unicode="&#x1ea8;" horiz-adv-x="639" 
d="M629 54q0 -26 -17 -42.5t-39 -16.5q-18 0 -32.5 11t-22.5 30l-52 121h-298l-52 -122q-7 -19 -21.5 -29.5t-31.5 -10.5q-26 0 -39.5 14t-13.5 38q0 9 3 19l249 598q8 20 24 31t36 9q18 0 33.5 -10.5t22.5 -29.5l246 -586q5 -13 5 -24zM217 272h200l-101 234zM465 779
q3 -6 3 -14q0 -9 -9 -17t-22 -8q-9 0 -20 5t-31 17l-65 38l-65 -38q-16 -9 -29 -15.5t-22 -6.5q-13 0 -22 8t-9 17q0 8 3 14t12 16l63 72q13 15 27 22t34 7h16q19 0 33.5 -7t27.5 -22l63 -72q9 -10 12 -16zM438 1011.5q18 7.5 43 7.5q56 0 79.5 -26.5t23.5 -60.5
q0 -16 -4.5 -28.5t-14.5 -25.5q-2 -3 -9.5 -12t-11 -15t-3.5 -11q0 -12 -11 -17.5t-29 -5.5q-11 0 -19.5 5.5t-8.5 17.5q0 18 16 39q23 31 23 43t-10 19.5t-24 7.5q-11 0 -20 -4.5t-22 -12.5q-10 -6 -16 -6q-12 0 -25 13q-9 9 -9 21q0 16 16 30q18 14 36 21.5z" />
    <glyph glyph-name="uni1EAA" unicode="&#x1eaa;" horiz-adv-x="639" 
d="M629 54q0 -26 -17 -42.5t-39 -16.5q-18 0 -32.5 11t-22.5 30l-52 121h-298l-52 -122q-7 -19 -21.5 -29.5t-31.5 -10.5q-26 0 -39.5 14t-13.5 38q0 9 3 19l249 598q8 20 24 31t36 9q18 0 33.5 -10.5t22.5 -29.5l246 -586q5 -13 5 -24zM217 272h200l-101 234zM465 779
q3 -6 3 -14q0 -9 -9 -17t-22 -8q-9 0 -20 5t-31 17l-65 38l-65 -38q-16 -9 -29 -15.5t-22 -6.5q-13 0 -22 8t-9 17q0 8 3 14t12 16l63 72q13 15 27 22t34 7h16q19 0 33.5 -7t27.5 -22l63 -72q9 -10 12 -16zM148 919.5q-16 19.5 -16 51.5q0 34 30 61t81 27q26 0 49 -10
t54 -28q21 -12 33.5 -18t22.5 -6q11 0 17 6t3 15q-2 5 -2 14q0 16 10.5 25.5t26.5 9.5q23 0 39 -19.5t16 -49.5q0 -19 -11 -40t-32.5 -35.5t-51.5 -14.5q-29 0 -54 10t-63 29q-22 12 -35 17.5t-23 5.5q-11 0 -17 -6t-3 -15q2 -5 2 -14q0 -16 -10.5 -25.5t-26.5 -9.5
q-23 0 -39 19.5z" />
    <glyph glyph-name="uni0200" unicode="&#x200;" horiz-adv-x="639" 
d="M629 54q0 -26 -17 -42.5t-39 -16.5q-18 0 -32.5 11t-22.5 30l-52 121h-298l-52 -122q-7 -19 -21.5 -29.5t-31.5 -10.5q-26 0 -39.5 14t-13.5 38q0 9 3 19l249 598q8 20 24 31t36 9q18 0 33.5 -10.5t22.5 -29.5l246 -586q5 -13 5 -24zM217 272h200l-101 234zM405 768
l-100 53q-18 10 -27.5 24t-9.5 29q0 21 17 35t36 14q23 0 49 -22l86 -76q14 -13 14 -27q0 -16 -11.5 -26t-30.5 -10q-11 0 -23 6zM199 758l-100 53q-18 10 -27.5 24t-9.5 29q0 21 17 35t36 14q23 0 49 -22l86 -76q14 -13 14 -27q0 -16 -11.5 -26t-30.5 -10q-11 0 -23 6z" />
    <glyph glyph-name="Adieresis" unicode="&#xc4;" horiz-adv-x="639" 
d="M629 54q0 -26 -17 -42.5t-39 -16.5q-18 0 -32.5 11t-22.5 30l-52 121h-298l-52 -122q-7 -19 -21.5 -29.5t-31.5 -10.5q-26 0 -39.5 14t-13.5 38q0 9 3 19l249 598q8 20 24 31t36 9q18 0 33.5 -10.5t22.5 -29.5l246 -586q5 -13 5 -24zM217 272h200l-101 234zM175 771.5
q-14 11.5 -14 38.5v18q0 28 15 39t46 11q33 0 47.5 -11.5t14.5 -38.5v-18q0 -28 -14.5 -39t-48.5 -11q-32 0 -46 11.5zM374 771.5q-14 11.5 -14 38.5v18q0 28 14.5 39t45.5 11q34 0 48.5 -11t14.5 -39v-18q0 -28 -14.5 -39t-48.5 -11q-32 0 -46 11.5z" />
    <glyph glyph-name="uni1EA0" unicode="&#x1ea0;" horiz-adv-x="639" 
d="M629 54q0 -26 -17 -42.5t-39 -16.5q-18 0 -32.5 11t-22.5 30l-52 121h-298l-52 -122q-7 -19 -21.5 -29.5t-31.5 -10.5q-26 0 -39.5 14t-13.5 38q0 9 3 19l249 598q8 20 24 31t36 9q18 0 33.5 -10.5t22.5 -29.5l246 -586q5 -13 5 -24zM217 272h200l-101 234zM273 -136
q-14 11 -14 39v19q0 28 15 39t46 11q37 0 51 -11t14 -39v-19q0 -29 -15 -39.5t-50 -10.5q-33 0 -47 11z" />
    <glyph glyph-name="Agrave" unicode="&#xc0;" horiz-adv-x="639" 
d="M629 54q0 -26 -17 -42.5t-39 -16.5q-18 0 -32.5 11t-22.5 30l-52 121h-298l-52 -122q-7 -19 -21.5 -29.5t-31.5 -10.5q-26 0 -39.5 14t-13.5 38q0 9 3 19l249 598q8 20 24 31t36 9q18 0 33.5 -10.5t22.5 -29.5l246 -586q5 -13 5 -24zM217 272h200l-101 234zM297 748
l-100 53q-18 10 -27.5 24t-9.5 29q0 21 17 35t36 14q23 0 49 -22l86 -76q14 -13 14 -27q0 -16 -11.5 -26t-30.5 -10q-11 0 -23 6z" />
    <glyph glyph-name="uni1EA2" unicode="&#x1ea2;" horiz-adv-x="639" 
d="M629 54q0 -26 -17 -42.5t-39 -16.5q-18 0 -32.5 11t-22.5 30l-52 121h-298l-52 -122q-7 -19 -21.5 -29.5t-31.5 -10.5q-26 0 -39.5 14t-13.5 38q0 9 3 19l249 598q8 20 24 31t36 9q18 0 33.5 -10.5t22.5 -29.5l246 -586q5 -13 5 -24zM217 272h200l-101 234zM261 949.5
q18 7.5 43 7.5q56 0 79.5 -26.5t23.5 -60.5q0 -16 -4.5 -28.5t-14.5 -25.5q-2 -3 -9.5 -12t-11 -15t-3.5 -11q0 -12 -11 -17.5t-29 -5.5q-11 0 -19.5 5.5t-8.5 17.5q0 18 16 39q23 31 23 43t-10 19.5t-24 7.5q-11 0 -20 -4.5t-22 -12.5q-10 -6 -16 -6q-12 0 -25 13
q-9 9 -9 21q0 16 16 30q18 14 36 21.5z" />
    <glyph glyph-name="uni0202" unicode="&#x202;" horiz-adv-x="639" 
d="M629 54q0 -26 -17 -42.5t-39 -16.5q-18 0 -32.5 11t-22.5 30l-52 121h-298l-52 -122q-7 -19 -21.5 -29.5t-31.5 -10.5q-26 0 -39.5 14t-13.5 38q0 9 3 19l249 598q8 20 24 31t36 9q18 0 33.5 -10.5t22.5 -29.5l246 -586q5 -13 5 -24zM217 272h200l-101 234zM420.5 904
q41.5 -24 59.5 -69q5 -13 5 -22q0 -15 -9.5 -24t-24.5 -9q-20 0 -32.5 8.5t-27.5 27.5q-24 27 -69 27t-69 -27q-15 -19 -27.5 -27.5t-32.5 -8.5q-15 0 -24.5 8.5t-9.5 23.5q0 10 4 21q19 46 60.5 70.5t98.5 24.5t98.5 -24z" />
    <glyph glyph-name="Amacron" unicode="&#x100;" horiz-adv-x="639" 
d="M629 54q0 -26 -17 -42.5t-39 -16.5q-18 0 -32.5 11t-22.5 30l-52 121h-298l-52 -122q-7 -19 -21.5 -29.5t-31.5 -10.5q-26 0 -39.5 14t-13.5 38q0 9 3 19l249 598q8 20 24 31t36 9q18 0 33.5 -10.5t22.5 -29.5l246 -586q5 -13 5 -24zM217 272h200l-101 234zM164 761.5
q-13 11.5 -13 33.5q0 21 13 32.5t37 11.5h242q24 0 37 -11.5t13 -32.5q0 -45 -50 -45h-242q-24 0 -37 11.5z" />
    <glyph glyph-name="Aogonek" unicode="&#x104;" horiz-adv-x="643" 
d="M629.5 -97q12.5 -13 12.5 -35q0 -16 -16.5 -34t-43.5 -29.5t-56 -11.5q-53 0 -86.5 27t-33.5 80q0 52 30.5 85t80.5 54l-51 118h-298l-52 -122q-7 -19 -21.5 -29.5t-31.5 -10.5q-29 0 -40.5 12t-11.5 38q0 13 4 24l247 595q8 20 24 31t36 9q18 0 33.5 -10.5t22.5 -29.5
l257 -612q4 -8 4 -17q0 -12 -6.5 -22.5t-21.5 -14.5q-47 -13 -75.5 -33t-28.5 -44q0 -18 8.5 -26.5t20.5 -8.5t21 12q14 18 41 18q19 0 31.5 -13zM217 272h200l-101 234z" />
    <glyph glyph-name="Aring" unicode="&#xc5;" horiz-adv-x="643" 
d="M629 54q0 -26 -17 -42.5t-39 -16.5q-18 0 -32.5 11t-22.5 30l-52 121h-298l-52 -122q-7 -19 -21.5 -29.5t-31.5 -10.5q-26 0 -39.5 14t-13.5 38q0 9 3 19l245 589q-23 15 -36.5 38.5t-13.5 50.5q0 46 34 78.5t80 32.5t80 -32.5t34 -78.5q0 -28 -14.5 -51.5t-38.5 -39.5
l241 -575q5 -13 5 -24zM290.5 774q-12.5 -11 -12.5 -30q0 -17 12.5 -28t31.5 -11t31.5 11t12.5 28q0 20 -13 30.5t-31 10.5q-19 0 -31.5 -11zM217 272h200l-101 234z" />
    <glyph glyph-name="Aringacute" unicode="&#x1fa;" horiz-adv-x="643" 
d="M629 54q0 -26 -17 -42.5t-39 -16.5q-18 0 -32.5 11t-22.5 30l-52 121h-298l-52 -122q-7 -19 -21.5 -29.5t-31.5 -10.5q-26 0 -39.5 14t-13.5 38q0 9 3 19l245 589q-23 15 -36.5 38.5t-13.5 50.5q0 46 34 78.5t80 32.5t80 -32.5t34 -78.5q0 -28 -14.5 -51.5t-38.5 -39.5
l241 -575q5 -13 5 -24zM290.5 774q-12.5 -11 -12.5 -30q0 -17 12.5 -28t31.5 -11t31.5 11t12.5 28q0 20 -13 30.5t-31 10.5q-19 0 -31.5 -11zM217 272h200l-101 234zM292.5 898q-11.5 10 -11.5 26q0 14 14 27l86 76q26 22 49 22q19 0 36 -14t17 -35q0 -15 -9.5 -29.5
t-27.5 -23.5l-100 -53q-10 -6 -23 -6q-19 0 -30.5 10z" />
    <glyph glyph-name="Atilde" unicode="&#xc3;" horiz-adv-x="639" 
d="M629 54q0 -26 -17 -42.5t-39 -16.5q-18 0 -32.5 11t-22.5 30l-52 121h-298l-52 -122q-7 -19 -21.5 -29.5t-31.5 -10.5q-26 0 -39.5 14t-13.5 38q0 9 3 19l249 598q8 20 24 31t36 9q18 0 33.5 -10.5t22.5 -29.5l246 -586q5 -13 5 -24zM217 272h200l-101 234zM148 755.5
q-16 19.5 -16 51.5q0 34 30 61t81 27q26 0 49 -10t54 -28q21 -12 33.5 -18t22.5 -6q11 0 17 6t3 15q-2 5 -2 14q0 16 10.5 25.5t26.5 9.5q23 0 39 -19.5t16 -49.5q0 -19 -11 -40t-32.5 -35.5t-51.5 -14.5q-29 0 -54 10t-63 29q-22 12 -35 17.5t-23 5.5q-11 0 -17 -6t-3 -15
q2 -5 2 -14q0 -16 -10.5 -25.5t-26.5 -9.5q-23 0 -39 19.5z" />
    <glyph glyph-name="AE" unicode="&#xc6;" horiz-adv-x="884" 
d="M826.5 97.5q17.5 -17.5 17.5 -40.5q0 -25 -17.5 -41t-43.5 -16h-315q-26 0 -43.5 17.5t-17.5 43.5v82h-220l-84 -124q-18 -24 -43 -24q-22 0 -39 16t-17 41q0 18 13 37l408 585q18 26 56 26h302q26 0 43.5 -16.5t17.5 -42.5q0 -25 -17 -40.5t-44 -15.5h-251v-175h206
q26 0 43.5 -16.5t17.5 -42.5q0 -25 -17 -40.5t-44 -15.5h-206v-180h251q26 0 43.5 -17.5zM407 470l-144 -214h144v214z" />
    <glyph glyph-name="AEacute" unicode="&#x1fc;" horiz-adv-x="884" 
d="M826.5 97.5q17.5 -17.5 17.5 -40.5q0 -25 -17.5 -41t-43.5 -16h-315q-26 0 -43.5 17.5t-17.5 43.5v82h-220l-84 -124q-18 -24 -43 -24q-22 0 -39 16t-17 41q0 18 13 37l408 585q18 26 56 26h302q26 0 43.5 -16.5t17.5 -42.5q0 -25 -17 -40.5t-44 -15.5h-251v-175h206
q26 0 43.5 -16.5t17.5 -42.5q0 -25 -17 -40.5t-44 -15.5h-206v-180h251q26 0 43.5 -17.5zM407 470l-144 -214h144v214zM566.5 748q-11.5 10 -11.5 26q0 14 14 27l86 76q26 22 49 22q19 0 36 -14t17 -35q0 -15 -9.5 -29.5t-27.5 -23.5l-100 -53q-10 -6 -23 -6q-19 0 -30.5 10
z" />
    <glyph glyph-name="B" unicode="B" horiz-adv-x="655" 
d="M581.5 324q33.5 -43 33.5 -111q0 -119 -68 -166t-162 -47h-249q-26 0 -43.5 17.5t-17.5 43.5v578q0 26 17.5 43.5t43.5 17.5h252q190 0 190 -178q0 -45 -21.5 -79.5t-61.5 -54.5q53 -21 86.5 -64zM427.5 561.5q-20.5 20.5 -57.5 20.5h-165v-156h168q30 0 52.5 20t22.5 54
q0 41 -20.5 61.5zM458.5 140q26.5 25 26.5 73q0 59 -31 77t-76 18h-173v-193h180q47 0 73.5 25z" />
    <glyph glyph-name="C" unicode="C" horiz-adv-x="627" 
d="M596 615q0 -21 -15 -41q-16 -21 -41 -21q-17 0 -34 9q-49 23 -106 23q-70 0 -122 -29.5t-80 -83t-28 -122.5q0 -118 63.5 -179t166.5 -61q61 0 106 23q18 8 32 8q26 0 44 -22q15 -19 15 -41q0 -16 -8 -29t-23 -20q-78 -39 -166 -39q-98 0 -180 41.5t-131 122.5t-49 196
q0 102 46.5 183t128.5 126.5t185 45.5q89 0 165 -39q31 -16 31 -51z" />
    <glyph glyph-name="Cacute" unicode="&#x106;" horiz-adv-x="627" 
d="M596 615q0 -21 -15 -41q-16 -21 -41 -21q-17 0 -34 9q-49 23 -106 23q-70 0 -122 -29.5t-80 -83t-28 -122.5q0 -118 63.5 -179t166.5 -61q61 0 106 23q18 8 32 8q26 0 44 -22q15 -19 15 -41q0 -16 -8 -29t-23 -20q-78 -39 -166 -39q-98 0 -180 41.5t-131 122.5t-49 196
q0 102 46.5 183t128.5 126.5t185 45.5q89 0 165 -39q31 -16 31 -51zM334.5 748q-11.5 10 -11.5 26q0 14 14 27l86 76q26 22 49 22q19 0 36 -14t17 -35q0 -15 -9.5 -29.5t-27.5 -23.5l-100 -53q-10 -6 -23 -6q-19 0 -30.5 10z" />
    <glyph glyph-name="Ccaron" unicode="&#x10c;" horiz-adv-x="627" 
d="M596 615q0 -21 -15 -41q-16 -21 -41 -21q-17 0 -34 9q-49 23 -106 23q-70 0 -122 -29.5t-80 -83t-28 -122.5q0 -118 63.5 -179t166.5 -61q61 0 106 23q18 8 32 8q26 0 44 -22q15 -19 15 -41q0 -16 -8 -29t-23 -20q-78 -39 -166 -39q-98 0 -180 41.5t-131 122.5t-49 196
q0 102 46.5 183t128.5 126.5t185 45.5q89 0 165 -39q31 -16 31 -51zM503 888q9 -8 9 -17q0 -7 -3 -13t-12 -17l-63 -72q-13 -15 -27.5 -22t-33.5 -7h-16q-20 0 -34 7t-27 22l-63 72q-9 11 -12 17t-3 13q0 9 9 17t22 8q20 0 51 -20l65 -42l65 42q31 20 51 20q13 0 22 -8z" />
    <glyph glyph-name="Ccedilla" unicode="&#xc7;" horiz-adv-x="627" 
d="M597 78q0 -16 -8 -29t-23 -20q-73 -36 -156 -39l-40 -109q-12 -32 -41 -32q-19 0 -42 13t-23 33q0 15 12 30l53 71q-82 14 -147.5 58.5t-103.5 120t-38 175.5q0 102 46.5 183t128.5 126.5t185 45.5q89 0 165 -39q31 -16 31 -51q0 -21 -15 -41q-16 -21 -41 -21
q-17 0 -34 9q-49 23 -106 23q-70 0 -122 -29.5t-80 -83t-28 -122.5q0 -118 63.5 -179t166.5 -61q61 0 106 23q18 8 32 8q26 0 44 -22q15 -19 15 -41z" />
    <glyph glyph-name="uni1E08" unicode="&#x1e08;" horiz-adv-x="627" 
d="M334.5 748q-11.5 10 -11.5 26q0 14 14 27l86 76q26 22 49 22q19 0 36 -14t17 -35q0 -15 -9.5 -29.5t-27.5 -23.5l-100 -53q-10 -6 -23 -6q-19 0 -30.5 10zM597 78q0 -16 -8 -29t-23 -20q-73 -36 -156 -39l-40 -109q-12 -32 -41 -32q-19 0 -42 13t-23 33q0 15 12 30l53 71
q-82 14 -147.5 58.5t-103.5 120t-38 175.5q0 102 46.5 183t128.5 126.5t185 45.5q89 0 165 -39q31 -16 31 -51q0 -21 -15 -41q-16 -21 -41 -21q-17 0 -34 9q-49 23 -106 23q-70 0 -122 -29.5t-80 -83t-28 -122.5q0 -118 63.5 -179t166.5 -61q61 0 106 23q18 8 32 8
q26 0 44 -22q15 -19 15 -41z" />
    <glyph glyph-name="Ccircumflex" unicode="&#x108;" horiz-adv-x="627" 
d="M596 615q0 -21 -15 -41q-16 -21 -41 -21q-17 0 -34 9q-49 23 -106 23q-70 0 -122 -29.5t-80 -83t-28 -122.5q0 -118 63.5 -179t166.5 -61q61 0 106 23q18 8 32 8q26 0 44 -22q15 -19 15 -41q0 -16 -8 -29t-23 -20q-78 -39 -166 -39q-98 0 -180 41.5t-131 122.5t-49 196
q0 102 46.5 183t128.5 126.5t185 45.5q89 0 165 -39q31 -16 31 -51zM507 779q3 -6 3 -14q0 -9 -9 -17t-22 -8q-9 0 -20 5t-31 17l-65 38l-65 -38q-16 -9 -29 -15.5t-22 -6.5q-13 0 -22 8t-9 17q0 8 3 14t12 16l63 72q13 15 27 22t34 7h16q19 0 33.5 -7t27.5 -22l63 -72
q9 -10 12 -16z" />
    <glyph glyph-name="Cdotaccent" unicode="&#x10a;" horiz-adv-x="627" 
d="M596 615q0 -21 -15 -41q-16 -21 -41 -21q-17 0 -34 9q-49 23 -106 23q-70 0 -122 -29.5t-80 -83t-28 -122.5q0 -118 63.5 -179t166.5 -61q61 0 106 23q18 8 32 8q26 0 44 -22q15 -19 15 -41q0 -16 -8 -29t-23 -20q-78 -39 -166 -39q-98 0 -180 41.5t-131 122.5t-49 196
q0 102 46.5 183t128.5 126.5t185 45.5q89 0 165 -39q31 -16 31 -51zM315 751q-14 11 -14 39v19q0 28 14.5 39t47.5 11q36 0 50 -11t14 -39v-19q0 -29 -15 -39.5t-50 -10.5q-33 0 -47 11z" />
    <glyph glyph-name="D" unicode="D" horiz-adv-x="715" 
d="M536.5 653.5q67.5 -46.5 103 -126t35.5 -177.5t-35.5 -177.5t-103 -126t-161.5 -46.5h-239q-26 0 -43.5 17.5t-17.5 43.5v578q0 26 17.5 43.5t43.5 17.5h239q94 0 161.5 -46.5zM500 181.5q45 66.5 45 168.5t-45.5 168.5t-134.5 66.5h-165v-470h165q90 0 135 66.5z" />
    <glyph glyph-name="uni01C4" unicode="&#x1c4;" horiz-adv-x="1363" 
d="M536.5 653.5q67.5 -46.5 103 -126t35.5 -177.5t-35.5 -177.5t-103 -126t-161.5 -46.5h-239q-26 0 -43.5 17.5t-17.5 43.5v578q0 26 17.5 43.5t43.5 17.5h239q94 0 161.5 -46.5zM500 181.5q45 66.5 45 168.5t-45.5 168.5t-134.5 66.5h-165v-470h165q90 0 135 66.5z
M1314 603l-380 -488h319q27 0 44 -15.5t17 -41.5q0 -25 -17.5 -41.5t-43.5 -16.5h-439q-26 0 -45 18t-19 41q0 19 14 38l379 488h-289q-27 0 -44 16t-17 42q0 25 17.5 41t43.5 16h409q24 0 44.5 -17t20.5 -42q0 -19 -14 -38zM1178 888q9 -8 9 -17q0 -7 -3 -13t-12 -17
l-63 -72q-13 -15 -27.5 -22t-33.5 -7h-16q-20 0 -34 7t-27 22l-63 72q-9 11 -12 17t-3 13q0 9 9 17t22 8q20 0 51 -20l65 -42l65 42q31 20 51 20q13 0 22 -8z" />
    <glyph glyph-name="Eth" unicode="&#xd0;" horiz-adv-x="715" 
d="M536.5 653.5q67.5 -46.5 103 -126t35.5 -177.5t-35.5 -177.5t-103 -126t-161.5 -46.5h-239q-26 0 -43.5 17.5t-17.5 43.5v236h-18q-26 0 -43.5 15.5t-17.5 40.5q0 23 17.5 38.5t43.5 15.5h18v232q0 26 17.5 43.5t43.5 17.5h239q94 0 161.5 -46.5zM500 181.5
q45 66.5 45 168.5t-45.5 168.5t-134.5 66.5h-165v-178h31q26 0 43.5 -15.5t17.5 -38.5q0 -25 -17.5 -40.5t-43.5 -15.5h-31v-182h165q90 0 135 66.5z" />
    <glyph glyph-name="Dcaron" unicode="&#x10e;" horiz-adv-x="715" 
d="M536.5 653.5q67.5 -46.5 103 -126t35.5 -177.5t-35.5 -177.5t-103 -126t-161.5 -46.5h-239q-26 0 -43.5 17.5t-17.5 43.5v578q0 26 17.5 43.5t43.5 17.5h239q94 0 161.5 -46.5zM500 181.5q45 66.5 45 168.5t-45.5 168.5t-134.5 66.5h-165v-470h165q90 0 135 66.5z
M447 888q9 -8 9 -17q0 -7 -3 -13t-12 -17l-63 -72q-13 -15 -27.5 -22t-33.5 -7h-16q-20 0 -34 7t-27 22l-63 72q-9 11 -12 17t-3 13q0 9 9 17t22 8q20 0 51 -20l65 -42l65 42q31 20 51 20q13 0 22 -8z" />
    <glyph glyph-name="Dcroat" unicode="&#x110;" horiz-adv-x="715" 
d="M536.5 653.5q67.5 -46.5 103 -126t35.5 -177.5t-35.5 -177.5t-103 -126t-161.5 -46.5h-239q-26 0 -43.5 17.5t-17.5 43.5v236h-18q-26 0 -43.5 15.5t-17.5 40.5q0 23 17.5 38.5t43.5 15.5h18v232q0 26 17.5 43.5t43.5 17.5h239q94 0 161.5 -46.5zM500 181.5
q45 66.5 45 168.5t-45.5 168.5t-134.5 66.5h-165v-178h31q26 0 43.5 -15.5t17.5 -38.5q0 -25 -17.5 -40.5t-43.5 -15.5h-31v-182h165q90 0 135 66.5z" />
    <glyph glyph-name="uni1E0C" unicode="&#x1e0c;" horiz-adv-x="715" 
d="M536.5 653.5q67.5 -46.5 103 -126t35.5 -177.5t-35.5 -177.5t-103 -126t-161.5 -46.5h-239q-26 0 -43.5 17.5t-17.5 43.5v578q0 26 17.5 43.5t43.5 17.5h239q94 0 161.5 -46.5zM500 181.5q45 66.5 45 168.5t-45.5 168.5t-134.5 66.5h-165v-470h165q90 0 135 66.5z
M269 -136q-14 11 -14 39v19q0 28 15 39t46 11q37 0 51 -11t14 -39v-19q0 -29 -15 -39.5t-50 -10.5q-33 0 -47 11z" />
    <glyph glyph-name="uni1E0E" unicode="&#x1e0e;" horiz-adv-x="715" 
d="M536.5 653.5q67.5 -46.5 103 -126t35.5 -177.5t-35.5 -177.5t-103 -126t-161.5 -46.5h-239q-26 0 -43.5 17.5t-17.5 43.5v578q0 26 17.5 43.5t43.5 17.5h239q94 0 161.5 -46.5zM500 181.5q45 66.5 45 168.5t-45.5 168.5t-134.5 66.5h-165v-470h165q90 0 135 66.5z
M170 -140.5q-13 11.5 -13 33.5q0 21 13 32.5t37 11.5h242q24 0 37 -11.5t13 -32.5q0 -45 -50 -45h-242q-24 0 -37 11.5z" />
    <glyph glyph-name="uni01F2" unicode="&#x1f2;" horiz-adv-x="1198" 
d="M536.5 653.5q67.5 -46.5 103 -126t35.5 -177.5t-35.5 -177.5t-103 -126t-161.5 -46.5h-239q-26 0 -43.5 17.5t-17.5 43.5v578q0 26 17.5 43.5t43.5 17.5h239q94 0 161.5 -46.5zM500 181.5q45 66.5 45 168.5t-45.5 168.5t-134.5 66.5h-165v-470h165q90 0 135 66.5z
M1160 94.5q16 -15.5 16 -39.5q0 -23 -16 -39t-40 -16h-322q-23 0 -38.5 16.5t-15.5 35.5q0 17 4 28.5t15 26.5l238 308h-194q-24 0 -40 16t-16 40q0 23 16 38.5t40 15.5h308q22 0 37.5 -15.5t15.5 -38.5q0 -15 -3 -25.5t-14 -24.5l-240 -311h209q24 0 40 -15.5z" />
    <glyph glyph-name="uni01C5" unicode="&#x1c5;" horiz-adv-x="1199" 
d="M536.5 653.5q67.5 -46.5 103 -126t35.5 -177.5t-35.5 -177.5t-103 -126t-161.5 -46.5h-239q-26 0 -43.5 17.5t-17.5 43.5v578q0 26 17.5 43.5t43.5 17.5h239q94 0 161.5 -46.5zM500 181.5q45 66.5 45 168.5t-45.5 168.5t-134.5 66.5h-165v-470h165q90 0 135 66.5z
M1161 94.5q16 -15.5 16 -39.5q0 -23 -16 -39t-40 -16h-322q-23 0 -38.5 16.5t-15.5 35.5q0 17 4 28.5t15 26.5l238 308h-194q-24 0 -40 16t-16 40q0 23 16 38.5t40 15.5h308q22 0 37.5 -15.5t15.5 -38.5q0 -15 -3 -25.5t-14 -24.5l-240 -311h209q24 0 40 -15.5zM1084 738.5
q10 -7.5 10 -18.5q0 -16 -16 -35l-44 -55q-12 -16 -26.5 -23t-34.5 -7h-36q-20 0 -34.5 7t-26.5 23l-44 55q-12 16 -12 32q0 13 10.5 21t30.5 8q18 0 45 -23l50 -43l50 43q16 13 26.5 18t28.5 5q13 0 23 -7.5z" />
    <glyph glyph-name="E" unicode="E" horiz-adv-x="572" 
d="M514.5 97.5q17.5 -17.5 17.5 -40.5q0 -25 -17.5 -41t-43.5 -16h-335q-26 0 -43.5 17.5t-17.5 43.5v578q0 26 17.5 43.5t43.5 17.5h335q26 0 43.5 -16.5t17.5 -42.5q0 -25 -17 -40.5t-44 -15.5h-271v-170h226q26 0 43.5 -16.5t17.5 -42.5q0 -25 -17 -40.5t-44 -15.5h-226
v-185h271q26 0 43.5 -17.5z" />
    <glyph glyph-name="Eacute" unicode="&#xc9;" horiz-adv-x="572" 
d="M514.5 97.5q17.5 -17.5 17.5 -40.5q0 -25 -17.5 -41t-43.5 -16h-335q-26 0 -43.5 17.5t-17.5 43.5v578q0 26 17.5 43.5t43.5 17.5h335q26 0 43.5 -16.5t17.5 -42.5q0 -25 -17 -40.5t-44 -15.5h-271v-170h226q26 0 43.5 -16.5t17.5 -42.5q0 -25 -17 -40.5t-44 -15.5h-226
v-185h271q26 0 43.5 -17.5zM276.5 748q-11.5 10 -11.5 26q0 14 14 27l86 76q26 22 49 22q19 0 36 -14t17 -35q0 -15 -9.5 -29.5t-27.5 -23.5l-100 -53q-10 -6 -23 -6q-19 0 -30.5 10z" />
    <glyph glyph-name="Ebreve" unicode="&#x114;" horiz-adv-x="572" 
d="M514.5 97.5q17.5 -17.5 17.5 -40.5q0 -25 -17.5 -41t-43.5 -16h-335q-26 0 -43.5 17.5t-17.5 43.5v578q0 26 17.5 43.5t43.5 17.5h335q26 0 43.5 -16.5t17.5 -42.5q0 -25 -17 -40.5t-44 -15.5h-271v-170h226q26 0 43.5 -16.5t17.5 -42.5q0 -25 -17 -40.5t-44 -15.5h-226
v-185h271q26 0 43.5 -17.5zM208.5 782.5q-41.5 24.5 -60.5 68.5q-5 13 -5 22q0 15 9.5 24t24.5 9q19 0 31 -8t29 -28q24 -27 69 -27q48 0 69 27q15 19 27.5 27.5t32.5 8.5q15 0 24.5 -8.5t9.5 -23.5q0 -10 -4 -21q-19 -46 -60.5 -70.5t-98.5 -24.5q-56 0 -97.5 24.5z" />
    <glyph glyph-name="Ecaron" unicode="&#x11a;" horiz-adv-x="572" 
d="M514.5 97.5q17.5 -17.5 17.5 -40.5q0 -25 -17.5 -41t-43.5 -16h-335q-26 0 -43.5 17.5t-17.5 43.5v578q0 26 17.5 43.5t43.5 17.5h335q26 0 43.5 -16.5t17.5 -42.5q0 -25 -17 -40.5t-44 -15.5h-271v-170h226q26 0 43.5 -16.5t17.5 -42.5q0 -25 -17 -40.5t-44 -15.5h-226
v-185h271q26 0 43.5 -17.5zM445 888q9 -8 9 -17q0 -7 -3 -13t-12 -17l-63 -72q-13 -15 -27.5 -22t-33.5 -7h-16q-20 0 -34 7t-27 22l-63 72q-9 11 -12 17t-3 13q0 9 9 17t22 8q20 0 51 -20l65 -42l65 42q31 20 51 20q13 0 22 -8z" />
    <glyph glyph-name="uni1E1C" unicode="&#x1e1c;" horiz-adv-x="572" 
d="M208.5 782.5q-41.5 24.5 -60.5 68.5q-5 13 -5 22q0 15 9.5 24t24.5 9q19 0 31 -8t29 -28q24 -27 69 -27q48 0 69 27q15 19 27.5 27.5t32.5 8.5q15 0 24.5 -8.5t9.5 -23.5q0 -10 -4 -21q-19 -46 -60.5 -70.5t-98.5 -24.5q-56 0 -97.5 24.5zM514.5 97.5
q17.5 -17.5 17.5 -40.5q0 -25 -17.5 -41t-43.5 -16h-155l-44 -119q-12 -32 -41 -32q-19 0 -42 13t-23 33q0 15 12 30l56 75h-98q-26 0 -43.5 17.5t-17.5 43.5v578q0 26 17.5 43.5t43.5 17.5h335q26 0 43.5 -16.5t17.5 -42.5q0 -25 -17 -40.5t-44 -15.5h-271v-170h226
q26 0 43.5 -16.5t17.5 -42.5q0 -25 -17 -40.5t-44 -15.5h-226v-185h271q26 0 43.5 -17.5z" />
    <glyph glyph-name="Ecircumflex" unicode="&#xca;" horiz-adv-x="572" 
d="M514.5 97.5q17.5 -17.5 17.5 -40.5q0 -25 -17.5 -41t-43.5 -16h-335q-26 0 -43.5 17.5t-17.5 43.5v578q0 26 17.5 43.5t43.5 17.5h335q26 0 43.5 -16.5t17.5 -42.5q0 -25 -17 -40.5t-44 -15.5h-271v-170h226q26 0 43.5 -16.5t17.5 -42.5q0 -25 -17 -40.5t-44 -15.5h-226
v-185h271q26 0 43.5 -17.5zM449 779q3 -6 3 -14q0 -9 -9 -17t-22 -8q-9 0 -20 5t-31 17l-65 38l-65 -38q-16 -9 -29 -15.5t-22 -6.5q-13 0 -22 8t-9 17q0 8 3 14t12 16l63 72q13 15 27 22t34 7h16q19 0 33.5 -7t27.5 -22l63 -72q9 -10 12 -16z" />
    <glyph glyph-name="uni1EBE" unicode="&#x1ebe;" horiz-adv-x="572" 
d="M514.5 97.5q17.5 -17.5 17.5 -40.5q0 -25 -17.5 -41t-43.5 -16h-335q-26 0 -43.5 17.5t-17.5 43.5v578q0 26 17.5 43.5t43.5 17.5h335q26 0 43.5 -16.5t17.5 -42.5q0 -25 -17 -40.5t-44 -15.5h-271v-170h226q26 0 43.5 -16.5t17.5 -42.5q0 -25 -17 -40.5t-44 -15.5h-226
v-185h271q26 0 43.5 -17.5zM449 779q3 -6 3 -14q0 -9 -9 -17t-22 -8q-9 0 -20 5t-31 17l-65 38l-65 -38q-16 -9 -29 -15.5t-22 -6.5q-13 0 -22 8t-9 17q0 8 3 14t12 16l63 72q13 15 27 22t34 7h16q19 0 33.5 -7t27.5 -22l63 -72q9 -10 12 -16zM454.5 826q-11.5 10 -11.5 26
q0 14 14 27l86 76q26 22 49 22q19 0 36 -14t17 -35q0 -15 -9.5 -29.5t-27.5 -23.5l-100 -53q-10 -6 -23 -6q-19 0 -30.5 10z" />
    <glyph glyph-name="uni1EC6" unicode="&#x1ec6;" horiz-adv-x="572" 
d="M514.5 97.5q17.5 -17.5 17.5 -40.5q0 -25 -17.5 -41t-43.5 -16h-335q-26 0 -43.5 17.5t-17.5 43.5v578q0 26 17.5 43.5t43.5 17.5h335q26 0 43.5 -16.5t17.5 -42.5q0 -25 -17 -40.5t-44 -15.5h-271v-170h226q26 0 43.5 -16.5t17.5 -42.5q0 -25 -17 -40.5t-44 -15.5h-226
v-185h271q26 0 43.5 -17.5zM237 -136q-14 11 -14 39v19q0 28 15 39t46 11q37 0 51 -11t14 -39v-19q0 -29 -15 -39.5t-50 -10.5q-33 0 -47 11zM449 779q3 -6 3 -14q0 -9 -9 -17t-22 -8q-9 0 -20 5t-31 17l-65 38l-65 -38q-16 -9 -29 -15.5t-22 -6.5q-13 0 -22 8t-9 17
q0 8 3 14t12 16l63 72q13 15 27 22t34 7h16q19 0 33.5 -7t27.5 -22l63 -72q9 -10 12 -16z" />
    <glyph glyph-name="uni1EC0" unicode="&#x1ec0;" horiz-adv-x="572" 
d="M514.5 97.5q17.5 -17.5 17.5 -40.5q0 -25 -17.5 -41t-43.5 -16h-335q-26 0 -43.5 17.5t-17.5 43.5v578q0 26 17.5 43.5t43.5 17.5h335q26 0 43.5 -16.5t17.5 -42.5q0 -25 -17 -40.5t-44 -15.5h-271v-170h226q26 0 43.5 -16.5t17.5 -42.5q0 -25 -17 -40.5t-44 -15.5h-226
v-185h271q26 0 43.5 -17.5zM449 779q3 -6 3 -14q0 -9 -9 -17t-22 -8q-9 0 -20 5t-31 17l-65 38l-65 -38q-16 -9 -29 -15.5t-22 -6.5q-13 0 -22 8t-9 17q0 8 3 14t12 16l63 72q13 15 27 22t34 7h16q19 0 33.5 -7t27.5 -22l63 -72q9 -10 12 -16zM429 883l-100 53
q-18 10 -27.5 24t-9.5 29q0 21 17 35t36 14q23 0 49 -22l86 -76q14 -13 14 -27q0 -16 -11.5 -26t-30.5 -10q-11 0 -23 6z" />
    <glyph glyph-name="uni1EC2" unicode="&#x1ec2;" horiz-adv-x="572" 
d="M514.5 97.5q17.5 -17.5 17.5 -40.5q0 -25 -17.5 -41t-43.5 -16h-335q-26 0 -43.5 17.5t-17.5 43.5v578q0 26 17.5 43.5t43.5 17.5h335q26 0 43.5 -16.5t17.5 -42.5q0 -25 -17 -40.5t-44 -15.5h-271v-170h226q26 0 43.5 -16.5t17.5 -42.5q0 -25 -17 -40.5t-44 -15.5h-226
v-185h271q26 0 43.5 -17.5zM449 779q3 -6 3 -14q0 -9 -9 -17t-22 -8q-9 0 -20 5t-31 17l-65 38l-65 -38q-16 -9 -29 -15.5t-22 -6.5q-13 0 -22 8t-9 17q0 8 3 14t12 16l63 72q13 15 27 22t34 7h16q19 0 33.5 -7t27.5 -22l63 -72q9 -10 12 -16zM245 1175.5q18 7.5 43 7.5
q56 0 79.5 -26.5t23.5 -60.5q0 -16 -4.5 -28.5t-14.5 -25.5q-2 -3 -9.5 -12t-11 -15t-3.5 -11q0 -12 -11 -17.5t-29 -5.5q-11 0 -19.5 5.5t-8.5 17.5q0 18 16 39q23 31 23 43t-10 19.5t-24 7.5q-11 0 -20 -4.5t-22 -12.5q-10 -6 -16 -6q-12 0 -25 13q-9 9 -9 21q0 16 16 30
q18 14 36 21.5z" />
    <glyph glyph-name="uni1EC4" unicode="&#x1ec4;" horiz-adv-x="572" 
d="M514.5 97.5q17.5 -17.5 17.5 -40.5q0 -25 -17.5 -41t-43.5 -16h-335q-26 0 -43.5 17.5t-17.5 43.5v578q0 26 17.5 43.5t43.5 17.5h335q26 0 43.5 -16.5t17.5 -42.5q0 -25 -17 -40.5t-44 -15.5h-271v-170h226q26 0 43.5 -16.5t17.5 -42.5q0 -25 -17 -40.5t-44 -15.5h-226
v-185h271q26 0 43.5 -17.5zM449 779q3 -6 3 -14q0 -9 -9 -17t-22 -8q-9 0 -20 5t-31 17l-65 38l-65 -38q-16 -9 -29 -15.5t-22 -6.5q-13 0 -22 8t-9 17q0 8 3 14t12 16l63 72q13 15 27 22t34 7h16q19 0 33.5 -7t27.5 -22l63 -72q9 -10 12 -16zM132 916.5q-16 19.5 -16 51.5
q0 34 30 61t81 27q26 0 49 -10t54 -28q21 -12 33.5 -18t22.5 -6q11 0 17 6t3 15q-2 5 -2 14q0 16 10.5 25.5t26.5 9.5q23 0 39 -19.5t16 -49.5q0 -19 -11 -40t-32.5 -35.5t-51.5 -14.5q-29 0 -54 10t-63 29q-22 12 -35 17.5t-23 5.5q-11 0 -17 -6t-3 -15q2 -5 2 -14
q0 -16 -10.5 -25.5t-26.5 -9.5q-23 0 -39 19.5z" />
    <glyph glyph-name="uni0204" unicode="&#x204;" horiz-adv-x="572" 
d="M514.5 97.5q17.5 -17.5 17.5 -40.5q0 -25 -17.5 -41t-43.5 -16h-335q-26 0 -43.5 17.5t-17.5 43.5v578q0 26 17.5 43.5t43.5 17.5h335q26 0 43.5 -16.5t17.5 -42.5q0 -25 -17 -40.5t-44 -15.5h-271v-170h226q26 0 43.5 -16.5t17.5 -42.5q0 -25 -17 -40.5t-44 -15.5h-226
v-185h271q26 0 43.5 -17.5zM389 768l-100 53q-18 10 -27.5 24t-9.5 29q0 21 17 35t36 14q23 0 49 -22l86 -76q14 -13 14 -27q0 -16 -11.5 -26t-30.5 -10q-11 0 -23 6zM183 758l-100 53q-18 10 -27.5 24t-9.5 29q0 21 17 35t36 14q23 0 49 -22l86 -76q14 -13 14 -27
q0 -16 -11.5 -26t-30.5 -10q-11 0 -23 6z" />
    <glyph glyph-name="Edieresis" unicode="&#xcb;" horiz-adv-x="572" 
d="M514.5 97.5q17.5 -17.5 17.5 -40.5q0 -25 -17.5 -41t-43.5 -16h-335q-26 0 -43.5 17.5t-17.5 43.5v578q0 26 17.5 43.5t43.5 17.5h335q26 0 43.5 -16.5t17.5 -42.5q0 -25 -17 -40.5t-44 -15.5h-271v-170h226q26 0 43.5 -16.5t17.5 -42.5q0 -25 -17 -40.5t-44 -15.5h-226
v-185h271q26 0 43.5 -17.5zM159 771.5q-14 11.5 -14 38.5v18q0 28 15 39t46 11q33 0 47.5 -11.5t14.5 -38.5v-18q0 -28 -14.5 -39t-48.5 -11q-32 0 -46 11.5zM358 771.5q-14 11.5 -14 38.5v18q0 28 14.5 39t45.5 11q34 0 48.5 -11t14.5 -39v-18q0 -28 -14.5 -39t-48.5 -11
q-32 0 -46 11.5z" />
    <glyph glyph-name="Edotaccent" unicode="&#x116;" horiz-adv-x="572" 
d="M514.5 97.5q17.5 -17.5 17.5 -40.5q0 -25 -17.5 -41t-43.5 -16h-335q-26 0 -43.5 17.5t-17.5 43.5v578q0 26 17.5 43.5t43.5 17.5h335q26 0 43.5 -16.5t17.5 -42.5q0 -25 -17 -40.5t-44 -15.5h-271v-170h226q26 0 43.5 -16.5t17.5 -42.5q0 -25 -17 -40.5t-44 -15.5h-226
v-185h271q26 0 43.5 -17.5zM257 751q-14 11 -14 39v19q0 28 14.5 39t47.5 11q36 0 50 -11t14 -39v-19q0 -29 -15 -39.5t-50 -10.5q-33 0 -47 11z" />
    <glyph glyph-name="uni1EB8" unicode="&#x1eb8;" horiz-adv-x="572" 
d="M514.5 97.5q17.5 -17.5 17.5 -40.5q0 -25 -17.5 -41t-43.5 -16h-335q-26 0 -43.5 17.5t-17.5 43.5v578q0 26 17.5 43.5t43.5 17.5h335q26 0 43.5 -16.5t17.5 -42.5q0 -25 -17 -40.5t-44 -15.5h-271v-170h226q26 0 43.5 -16.5t17.5 -42.5q0 -25 -17 -40.5t-44 -15.5h-226
v-185h271q26 0 43.5 -17.5zM237 -136q-14 11 -14 39v19q0 28 15 39t46 11q37 0 51 -11t14 -39v-19q0 -29 -15 -39.5t-50 -10.5q-33 0 -47 11z" />
    <glyph glyph-name="Egrave" unicode="&#xc8;" horiz-adv-x="572" 
d="M514.5 97.5q17.5 -17.5 17.5 -40.5q0 -25 -17.5 -41t-43.5 -16h-335q-26 0 -43.5 17.5t-17.5 43.5v578q0 26 17.5 43.5t43.5 17.5h335q26 0 43.5 -16.5t17.5 -42.5q0 -25 -17 -40.5t-44 -15.5h-271v-170h226q26 0 43.5 -16.5t17.5 -42.5q0 -25 -17 -40.5t-44 -15.5h-226
v-185h271q26 0 43.5 -17.5zM281 748l-100 53q-18 10 -27.5 24t-9.5 29q0 21 17 35t36 14q23 0 49 -22l86 -76q14 -13 14 -27q0 -16 -11.5 -26t-30.5 -10q-11 0 -23 6z" />
    <glyph glyph-name="uni1EBA" unicode="&#x1eba;" horiz-adv-x="572" 
d="M514.5 97.5q17.5 -17.5 17.5 -40.5q0 -25 -17.5 -41t-43.5 -16h-335q-26 0 -43.5 17.5t-17.5 43.5v578q0 26 17.5 43.5t43.5 17.5h335q26 0 43.5 -16.5t17.5 -42.5q0 -25 -17 -40.5t-44 -15.5h-271v-170h226q26 0 43.5 -16.5t17.5 -42.5q0 -25 -17 -40.5t-44 -15.5h-226
v-185h271q26 0 43.5 -17.5zM245 949.5q18 7.5 43 7.5q56 0 79.5 -26.5t23.5 -60.5q0 -16 -4.5 -28.5t-14.5 -25.5q-2 -3 -9.5 -12t-11 -15t-3.5 -11q0 -12 -11 -17.5t-29 -5.5q-11 0 -19.5 5.5t-8.5 17.5q0 18 16 39q23 31 23 43t-10 19.5t-24 7.5q-11 0 -20 -4.5t-22 -12.5
q-10 -6 -16 -6q-12 0 -25 13q-9 9 -9 21q0 16 16 30q18 14 36 21.5z" />
    <glyph glyph-name="uni0206" unicode="&#x206;" horiz-adv-x="572" 
d="M514.5 97.5q17.5 -17.5 17.5 -40.5q0 -25 -17.5 -41t-43.5 -16h-335q-26 0 -43.5 17.5t-17.5 43.5v578q0 26 17.5 43.5t43.5 17.5h335q26 0 43.5 -16.5t17.5 -42.5q0 -25 -17 -40.5t-44 -15.5h-271v-170h226q26 0 43.5 -16.5t17.5 -42.5q0 -25 -17 -40.5t-44 -15.5h-226
v-185h271q26 0 43.5 -17.5zM404.5 904q41.5 -24 59.5 -69q5 -13 5 -22q0 -15 -9.5 -24t-24.5 -9q-20 0 -32.5 8.5t-27.5 27.5q-24 27 -69 27t-69 -27q-15 -19 -27.5 -27.5t-32.5 -8.5q-15 0 -24.5 8.5t-9.5 23.5q0 10 4 21q19 46 60.5 70.5t98.5 24.5t98.5 -24z" />
    <glyph glyph-name="Emacron" unicode="&#x112;" horiz-adv-x="572" 
d="M514.5 97.5q17.5 -17.5 17.5 -40.5q0 -25 -17.5 -41t-43.5 -16h-335q-26 0 -43.5 17.5t-17.5 43.5v578q0 26 17.5 43.5t43.5 17.5h335q26 0 43.5 -16.5t17.5 -42.5q0 -25 -17 -40.5t-44 -15.5h-271v-170h226q26 0 43.5 -16.5t17.5 -42.5q0 -25 -17 -40.5t-44 -15.5h-226
v-185h271q26 0 43.5 -17.5zM148 761.5q-13 11.5 -13 33.5q0 21 13 32.5t37 11.5h242q24 0 37 -11.5t13 -32.5q0 -45 -50 -45h-242q-24 0 -37 11.5z" />
    <glyph glyph-name="uni1E16" unicode="&#x1e16;" horiz-adv-x="572" 
d="M514.5 97.5q17.5 -17.5 17.5 -40.5q0 -25 -17.5 -41t-43.5 -16h-335q-26 0 -43.5 17.5t-17.5 43.5v578q0 26 17.5 43.5t43.5 17.5h335q26 0 43.5 -16.5t17.5 -42.5q0 -25 -17 -40.5t-44 -15.5h-271v-170h226q26 0 43.5 -16.5t17.5 -42.5q0 -25 -17 -40.5t-44 -15.5h-226
v-185h271q26 0 43.5 -17.5zM148 761.5q-13 11.5 -13 33.5q0 21 13 32.5t37 11.5h242q24 0 37 -11.5t13 -32.5q0 -45 -50 -45h-242q-24 0 -37 11.5zM276.5 917q-11.5 10 -11.5 26q0 14 14 27l86 76q26 22 49 22q19 0 36 -14t17 -35q0 -15 -9.5 -29.5t-27.5 -23.5l-100 -53
q-10 -6 -23 -6q-19 0 -30.5 10z" />
    <glyph glyph-name="uni1E14" unicode="&#x1e14;" horiz-adv-x="572" 
d="M514.5 97.5q17.5 -17.5 17.5 -40.5q0 -25 -17.5 -41t-43.5 -16h-335q-26 0 -43.5 17.5t-17.5 43.5v578q0 26 17.5 43.5t43.5 17.5h335q26 0 43.5 -16.5t17.5 -42.5q0 -25 -17 -40.5t-44 -15.5h-271v-170h226q26 0 43.5 -16.5t17.5 -42.5q0 -25 -17 -40.5t-44 -15.5h-226
v-185h271q26 0 43.5 -17.5zM148 761.5q-13 11.5 -13 33.5q0 21 13 32.5t37 11.5h242q24 0 37 -11.5t13 -32.5q0 -45 -50 -45h-242q-24 0 -37 11.5zM281 917l-100 53q-18 10 -27.5 24t-9.5 29q0 21 17 35t36 14q23 0 49 -22l86 -76q14 -13 14 -27q0 -16 -11.5 -26t-30.5 -10
q-11 0 -23 6z" />
    <glyph glyph-name="Eogonek" unicode="&#x118;" horiz-adv-x="572" 
d="M515 99.5q17 -15.5 17 -42.5q0 -24 -15 -37t-44 -20q-45 -11 -73.5 -32t-28.5 -46q0 -17 9 -26.5t22 -9.5q12 0 21 12q14 18 41 18q19 0 31.5 -13t12.5 -35q0 -16 -16.5 -34t-43.5 -29.5t-56 -11.5q-53 0 -86.5 27t-33.5 80q0 56 61 100h-197q-26 0 -43.5 17.5
t-17.5 43.5v578q0 26 17.5 43.5t43.5 17.5h335q26 0 43.5 -16.5t17.5 -42.5q0 -22 -17.5 -38.5t-43.5 -16.5h-271v-171h226q26 0 43.5 -16.5t17.5 -42.5q0 -21 -18 -38.5t-43 -17.5h-226v-185h271q27 0 44 -15.5z" />
    <glyph glyph-name="uni1EBC" unicode="&#x1ebc;" horiz-adv-x="572" 
d="M514.5 97.5q17.5 -17.5 17.5 -40.5q0 -25 -17.5 -41t-43.5 -16h-335q-26 0 -43.5 17.5t-17.5 43.5v578q0 26 17.5 43.5t43.5 17.5h335q26 0 43.5 -16.5t17.5 -42.5q0 -25 -17 -40.5t-44 -15.5h-271v-170h226q26 0 43.5 -16.5t17.5 -42.5q0 -25 -17 -40.5t-44 -15.5h-226
v-185h271q26 0 43.5 -17.5zM132 755.5q-16 19.5 -16 51.5q0 34 30 61t81 27q26 0 49 -10t54 -28q21 -12 33.5 -18t22.5 -6q11 0 17 6t3 15q-2 5 -2 14q0 16 10.5 25.5t26.5 9.5q23 0 39 -19.5t16 -49.5q0 -19 -11 -40t-32.5 -35.5t-51.5 -14.5q-29 0 -54 10t-63 29
q-22 12 -35 17.5t-23 5.5q-11 0 -17 -6t-3 -15q2 -5 2 -14q0 -16 -10.5 -25.5t-26.5 -9.5q-23 0 -39 19.5z" />
    <glyph glyph-name="F" unicode="F" horiz-adv-x="562" 
d="M200 585v-176h216q26 0 43.5 -16.5t17.5 -42.5q0 -22 -17.5 -39t-43.5 -17h-216v-233q0 -26 -18.5 -43.5t-43.5 -17.5q-28 0 -45.5 17t-17.5 44v578q0 26 17.5 43.5t43.5 17.5h325q26 0 43.5 -16.5t17.5 -42.5q0 -22 -17.5 -39t-43.5 -17h-261z" />
    <glyph glyph-name="G" unicode="G" horiz-adv-x="696" 
d="M634 360.5q17 -17.5 17 -43.5v-212q0 -35 -31 -54q-98 -61 -215 -61q-99 0 -183 48.5t-133 131t-49 180.5t49 180.5t133 131t183 48.5t172 -40q15 -8 22.5 -21t7.5 -28q0 -25 -16.5 -43.5t-40.5 -18.5q-15 0 -33 8q-54 23 -112 23q-64 0 -118 -32.5t-85.5 -87.5
t-31.5 -120t31.5 -120t85.5 -87.5t118 -32.5q28 0 60 5t56 13v130h-94q-26 0 -43.5 17t-17.5 43t17.5 43t43.5 17h164q26 0 43 -17.5z" />
    <glyph glyph-name="Gbreve" unicode="&#x11e;" horiz-adv-x="696" 
d="M634 360.5q17 -17.5 17 -43.5v-212q0 -35 -31 -54q-98 -61 -215 -61q-99 0 -183 48.5t-133 131t-49 180.5t49 180.5t133 131t183 48.5t172 -40q15 -8 22.5 -21t7.5 -28q0 -25 -16.5 -43.5t-40.5 -18.5q-15 0 -33 8q-54 23 -112 23q-64 0 -118 -32.5t-85.5 -87.5
t-31.5 -120t31.5 -120t85.5 -87.5t118 -32.5q28 0 60 5t56 13v130h-94q-26 0 -43.5 17t-17.5 43t17.5 43t43.5 17h164q26 0 43 -17.5zM290.5 782.5q-41.5 24.5 -60.5 68.5q-5 13 -5 22q0 15 9.5 24t24.5 9q19 0 31 -8t29 -28q24 -27 69 -27q48 0 69 27q15 19 27.5 27.5
t32.5 8.5q15 0 24.5 -8.5t9.5 -23.5q0 -10 -4 -21q-19 -46 -60.5 -70.5t-98.5 -24.5q-56 0 -97.5 24.5z" />
    <glyph glyph-name="Gcaron" unicode="&#x1e6;" horiz-adv-x="696" 
d="M634 360.5q17 -17.5 17 -43.5v-212q0 -35 -31 -54q-98 -61 -215 -61q-99 0 -183 48.5t-133 131t-49 180.5t49 180.5t133 131t183 48.5t172 -40q15 -8 22.5 -21t7.5 -28q0 -25 -16.5 -43.5t-40.5 -18.5q-15 0 -33 8q-54 23 -112 23q-64 0 -118 -32.5t-85.5 -87.5
t-31.5 -120t31.5 -120t85.5 -87.5t118 -32.5q28 0 60 5t56 13v130h-94q-26 0 -43.5 17t-17.5 43t17.5 43t43.5 17h164q26 0 43 -17.5zM527 888q9 -8 9 -17q0 -7 -3 -13t-12 -17l-63 -72q-13 -15 -27.5 -22t-33.5 -7h-16q-20 0 -34 7t-27 22l-63 72q-9 11 -12 17t-3 13
q0 9 9 17t22 8q20 0 51 -20l65 -42l65 42q31 20 51 20q13 0 22 -8z" />
    <glyph glyph-name="Gcircumflex" unicode="&#x11c;" horiz-adv-x="696" 
d="M634 360.5q17 -17.5 17 -43.5v-212q0 -35 -31 -54q-98 -61 -215 -61q-99 0 -183 48.5t-133 131t-49 180.5t49 180.5t133 131t183 48.5t172 -40q15 -8 22.5 -21t7.5 -28q0 -25 -16.5 -43.5t-40.5 -18.5q-15 0 -33 8q-54 23 -112 23q-64 0 -118 -32.5t-85.5 -87.5
t-31.5 -120t31.5 -120t85.5 -87.5t118 -32.5q28 0 60 5t56 13v130h-94q-26 0 -43.5 17t-17.5 43t17.5 43t43.5 17h164q26 0 43 -17.5zM531 779q3 -6 3 -14q0 -9 -9 -17t-22 -8q-9 0 -20 5t-31 17l-65 38l-65 -38q-16 -9 -29 -15.5t-22 -6.5q-13 0 -22 8t-9 17q0 8 3 14
t12 16l63 72q13 15 27 22t34 7h16q19 0 33.5 -7t27.5 -22l63 -72q9 -10 12 -16z" />
    <glyph glyph-name="Gcommaaccent" unicode="&#x122;" horiz-adv-x="696" 
d="M634 360.5q17 -17.5 17 -43.5v-212q0 -35 -31 -54q-98 -61 -215 -61q-99 0 -183 48.5t-133 131t-49 180.5t49 180.5t133 131t183 48.5t172 -40q15 -8 22.5 -21t7.5 -28q0 -25 -16.5 -43.5t-40.5 -18.5q-15 0 -33 8q-54 23 -112 23q-64 0 -118 -32.5t-85.5 -87.5
t-31.5 -120t31.5 -120t85.5 -87.5t118 -32.5q28 0 60 5t56 13v130h-94q-26 0 -43.5 17t-17.5 43t17.5 43t43.5 17h164q26 0 43 -17.5zM472 -148q-14 -22 -37.5 -36t-50.5 -14q-23 0 -35.5 10t-12.5 22t6.5 17.5t14.5 5.5q5 0 14.5 -2.5t15.5 -2.5q11 0 18 7.5t7 20.5t-10 13
q-4 0 -10 -4.5t-17 -4.5q-16 0 -26 11t-10 30q0 23 18.5 35t49.5 12q35 0 57 -20.5t22 -55.5q0 -22 -14 -44z" />
    <glyph glyph-name="Gdotaccent" unicode="&#x120;" horiz-adv-x="696" 
d="M634 360.5q17 -17.5 17 -43.5v-212q0 -35 -31 -54q-98 -61 -215 -61q-99 0 -183 48.5t-133 131t-49 180.5t49 180.5t133 131t183 48.5t172 -40q15 -8 22.5 -21t7.5 -28q0 -25 -16.5 -43.5t-40.5 -18.5q-15 0 -33 8q-54 23 -112 23q-64 0 -118 -32.5t-85.5 -87.5
t-31.5 -120t31.5 -120t85.5 -87.5t118 -32.5q28 0 60 5t56 13v130h-94q-26 0 -43.5 17t-17.5 43t17.5 43t43.5 17h164q26 0 43 -17.5zM339 751q-14 11 -14 39v19q0 28 14.5 39t47.5 11q36 0 50 -11t14 -39v-19q0 -29 -15 -39.5t-50 -10.5q-33 0 -47 11z" />
    <glyph glyph-name="uni1E20" unicode="&#x1e20;" horiz-adv-x="696" 
d="M634 360.5q17 -17.5 17 -43.5v-212q0 -35 -31 -54q-98 -61 -215 -61q-99 0 -183 48.5t-133 131t-49 180.5t49 180.5t133 131t183 48.5t172 -40q15 -8 22.5 -21t7.5 -28q0 -25 -16.5 -43.5t-40.5 -18.5q-15 0 -33 8q-54 23 -112 23q-64 0 -118 -32.5t-85.5 -87.5
t-31.5 -120t31.5 -120t85.5 -87.5t118 -32.5q28 0 60 5t56 13v130h-94q-26 0 -43.5 17t-17.5 43t17.5 43t43.5 17h164q26 0 43 -17.5zM230 761.5q-13 11.5 -13 33.5q0 21 13 32.5t37 11.5h242q24 0 37 -11.5t13 -32.5q0 -45 -50 -45h-242q-24 0 -37 11.5z" />
    <glyph glyph-name="H" unicode="H" horiz-adv-x="719" 
d="M627 683q17 -17 17 -44v-578q0 -26 -18 -43.5t-46 -17.5q-25 0 -43 17.5t-18 43.5v233h-319v-233q0 -26 -19 -43.5t-44 -17.5q-27 0 -44.5 17.5t-17.5 43.5v578q0 26 18 43.5t46 17.5q25 0 43 -17.5t18 -43.5v-230h319v230q0 26 19 43.5t44 17.5q28 0 45 -17z" />
    <glyph glyph-name="Hbar" unicode="&#x126;" horiz-adv-x="805" 
d="M751 576q14 -14 14 -37q0 -21 -14.5 -35t-36.5 -14h-27v-429q0 -26 -18 -43.5t-46 -17.5q-25 0 -43 17.5t-18 43.5v233h-319v-233q0 -26 -19 -43.5t-44 -17.5q-27 0 -44.5 17.5t-17.5 43.5v429h-27q-22 0 -36.5 14.5t-14.5 36.5q0 21 14.5 35t36.5 14h27v49q0 26 18 43.5
t46 17.5q25 0 43 -17.5t18 -43.5v-49h319v49q0 26 19 43.5t44 17.5q28 0 45 -17t17 -44v-49h27q23 0 37 -14zM562 409v81h-319v-81h319z" />
    <glyph glyph-name="uni1E2A" unicode="&#x1e2a;" horiz-adv-x="719" 
d="M627 683q17 -17 17 -44v-578q0 -26 -18 -43.5t-46 -17.5q-25 0 -43 17.5t-18 43.5v233h-319v-233q0 -26 -19 -43.5t-44 -17.5q-27 0 -44.5 17.5t-17.5 43.5v578q0 26 18 43.5t46 17.5q25 0 43 -17.5t18 -43.5v-230h319v230q0 26 19 43.5t44 17.5q28 0 45 -17zM261.5 -163
q-41.5 24 -59.5 69q-5 13 -5 22q0 15 9.5 24t24.5 9q20 0 32.5 -8.5t27.5 -27.5q24 -27 69 -27t69 27q15 19 27.5 27.5t32.5 8.5q15 0 24.5 -8.5t9.5 -23.5q0 -10 -4 -21q-19 -46 -60.5 -70.5t-98.5 -24.5t-98.5 24z" />
    <glyph glyph-name="Hcircumflex" unicode="&#x124;" horiz-adv-x="719" 
d="M627 683q17 -17 17 -44v-578q0 -26 -18 -43.5t-46 -17.5q-25 0 -43 17.5t-18 43.5v233h-319v-233q0 -26 -19 -43.5t-44 -17.5q-27 0 -44.5 17.5t-17.5 43.5v578q0 26 18 43.5t46 17.5q25 0 43 -17.5t18 -43.5v-230h319v230q0 26 19 43.5t44 17.5q28 0 45 -17zM503 779
q3 -6 3 -14q0 -9 -9 -17t-22 -8q-9 0 -20 5t-31 17l-65 38l-65 -38q-16 -9 -29 -15.5t-22 -6.5q-13 0 -22 8t-9 17q0 8 3 14t12 16l63 72q13 15 27 22t34 7h16q19 0 33.5 -7t27.5 -22l63 -72q9 -10 12 -16z" />
    <glyph glyph-name="uni1E24" unicode="&#x1e24;" horiz-adv-x="719" 
d="M627 683q17 -17 17 -44v-578q0 -26 -18 -43.5t-46 -17.5q-25 0 -43 17.5t-18 43.5v233h-319v-233q0 -26 -19 -43.5t-44 -17.5q-27 0 -44.5 17.5t-17.5 43.5v578q0 26 18 43.5t46 17.5q25 0 43 -17.5t18 -43.5v-230h319v230q0 26 19 43.5t44 17.5q28 0 45 -17zM311 -136
q-14 11 -14 39v19q0 28 15 39t46 11q37 0 51 -11t14 -39v-19q0 -29 -15 -39.5t-50 -10.5q-33 0 -47 11z" />
    <glyph glyph-name="I" unicode="I" horiz-adv-x="275" 
d="M181 17.5q-19 -17.5 -44 -17.5q-27 0 -44.5 17.5t-17.5 43.5v578q0 26 18 43.5t46 17.5q25 0 43 -17.5t18 -43.5v-578q0 -26 -19 -43.5z" />
    <glyph glyph-name="IJ" unicode="&#x132;" horiz-adv-x="587" 
d="M167 13.5q-49 23.5 -80 65.5q-12 18 -12 35q0 24 19 41.5t39 17.5q26 0 56 -30q19 -18 39 -25.5t45 -7.5q29 0 55.5 15t42.5 40.5t16 53.5v420q0 26 19 43.5t44 17.5q28 0 45 -17t17 -44v-420q0 -60 -32 -113t-87 -84.5t-120 -31.5q-57 0 -106 23.5zM187 271.5
q-19 -17.5 -44 -17.5q-27 0 -44.5 17.5t-17.5 43.5v324q0 26 18 43.5t46 17.5q25 0 43 -17.5t18 -43.5v-324q0 -26 -19 -43.5z" />
    <glyph glyph-name="Iacute" unicode="&#xcd;" horiz-adv-x="275" 
d="M181 17.5q-19 -17.5 -44 -17.5q-27 0 -44.5 17.5t-17.5 43.5v578q0 26 18 43.5t46 17.5q25 0 43 -17.5t18 -43.5v-578q0 -26 -19 -43.5zM110.5 748q-11.5 10 -11.5 26q0 14 14 27l86 76q26 22 49 22q19 0 36 -14t17 -35q0 -15 -9.5 -29.5t-27.5 -23.5l-100 -53
q-10 -6 -23 -6q-19 0 -30.5 10z" />
    <glyph glyph-name="Ibreve" unicode="&#x12c;" horiz-adv-x="275" 
d="M181 17.5q-19 -17.5 -44 -17.5q-27 0 -44.5 17.5t-17.5 43.5v578q0 26 18 43.5t46 17.5q25 0 43 -17.5t18 -43.5v-578q0 -26 -19 -43.5zM42.5 782.5q-41.5 24.5 -60.5 68.5q-5 13 -5 22q0 15 9.5 24t24.5 9q19 0 31 -8t29 -28q24 -27 69 -27q48 0 69 27q15 19 27.5 27.5
t32.5 8.5q15 0 24.5 -8.5t9.5 -23.5q0 -10 -4 -21q-19 -46 -60.5 -70.5t-98.5 -24.5q-56 0 -97.5 24.5z" />
    <glyph glyph-name="uni01CF" unicode="&#x1cf;" horiz-adv-x="275" 
d="M181 17.5q-19 -17.5 -44 -17.5q-27 0 -44.5 17.5t-17.5 43.5v578q0 26 18 43.5t46 17.5q25 0 43 -17.5t18 -43.5v-578q0 -26 -19 -43.5zM279 888q9 -8 9 -17q0 -7 -3 -13t-12 -17l-63 -72q-13 -15 -27.5 -22t-33.5 -7h-16q-20 0 -34 7t-27 22l-63 72q-9 11 -12 17t-3 13
q0 9 9 17t22 8q20 0 51 -20l65 -42l65 42q31 20 51 20q13 0 22 -8z" />
    <glyph glyph-name="Icircumflex" unicode="&#xce;" horiz-adv-x="275" 
d="M181 17.5q-19 -17.5 -44 -17.5q-27 0 -44.5 17.5t-17.5 43.5v578q0 26 18 43.5t46 17.5q25 0 43 -17.5t18 -43.5v-578q0 -26 -19 -43.5zM283 779q3 -6 3 -14q0 -9 -9 -17t-22 -8q-9 0 -20 5t-31 17l-65 38l-65 -38q-16 -9 -29 -15.5t-22 -6.5q-13 0 -22 8t-9 17q0 8 3 14
t12 16l63 72q13 15 27 22t34 7h16q19 0 33.5 -7t27.5 -22l63 -72q9 -10 12 -16z" />
    <glyph glyph-name="uni0208" unicode="&#x208;" horiz-adv-x="275" 
d="M181 17.5q-19 -17.5 -44 -17.5q-27 0 -44.5 17.5t-17.5 43.5v578q0 26 18 43.5t46 17.5q25 0 43 -17.5t18 -43.5v-578q0 -26 -19 -43.5zM223 768l-100 53q-18 10 -27.5 24t-9.5 29q0 21 17 35t36 14q23 0 49 -22l86 -76q14 -13 14 -27q0 -16 -11.5 -26t-30.5 -10
q-11 0 -23 6zM17 758l-100 53q-18 10 -27.5 24t-9.5 29q0 21 17 35t36 14q23 0 49 -22l86 -76q14 -13 14 -27q0 -16 -11.5 -26t-30.5 -10q-11 0 -23 6z" />
    <glyph glyph-name="Idieresis" unicode="&#xcf;" horiz-adv-x="275" 
d="M181 17.5q-19 -17.5 -44 -17.5q-27 0 -44.5 17.5t-17.5 43.5v578q0 26 18 43.5t46 17.5q25 0 43 -17.5t18 -43.5v-578q0 -26 -19 -43.5zM-7 771.5q-14 11.5 -14 38.5v18q0 28 15 39t46 11q33 0 47.5 -11.5t14.5 -38.5v-18q0 -28 -14.5 -39t-48.5 -11q-32 0 -46 11.5z
M192 771.5q-14 11.5 -14 38.5v18q0 28 14.5 39t45.5 11q34 0 48.5 -11t14.5 -39v-18q0 -28 -14.5 -39t-48.5 -11q-32 0 -46 11.5z" />
    <glyph glyph-name="uni1E2E" unicode="&#x1e2e;" horiz-adv-x="275" 
d="M181 17.5q-19 -17.5 -44 -17.5q-27 0 -44.5 17.5t-17.5 43.5v578q0 26 18 43.5t46 17.5q25 0 43 -17.5t18 -43.5v-578q0 -26 -19 -43.5zM-7 771.5q-14 11.5 -14 38.5v18q0 28 15 39t46 11q33 0 47.5 -11.5t14.5 -38.5v-18q0 -28 -14.5 -39t-48.5 -11q-32 0 -46 11.5z
M192 771.5q-14 11.5 -14 38.5v18q0 28 14.5 39t45.5 11q34 0 48.5 -11t14.5 -39v-18q0 -28 -14.5 -39t-48.5 -11q-32 0 -46 11.5zM110.5 946q-11.5 10 -11.5 26q0 14 14 27l86 76q26 22 49 22q19 0 36 -14t17 -35q0 -15 -9.5 -29.5t-27.5 -23.5l-100 -53q-10 -6 -23 -6
q-19 0 -30.5 10z" />
    <glyph glyph-name="Idotaccent" unicode="&#x130;" horiz-adv-x="275" 
d="M181 17.5q-19 -17.5 -44 -17.5q-27 0 -44.5 17.5t-17.5 43.5v578q0 26 18 43.5t46 17.5q25 0 43 -17.5t18 -43.5v-578q0 -26 -19 -43.5zM91 751q-14 11 -14 39v19q0 28 14.5 39t47.5 11q36 0 50 -11t14 -39v-19q0 -29 -15 -39.5t-50 -10.5q-33 0 -47 11z" />
    <glyph glyph-name="uni1ECA" unicode="&#x1eca;" horiz-adv-x="275" 
d="M181 17.5q-19 -17.5 -44 -17.5q-27 0 -44.5 17.5t-17.5 43.5v578q0 26 18 43.5t46 17.5q25 0 43 -17.5t18 -43.5v-578q0 -26 -19 -43.5zM91 -136q-14 11 -14 39v19q0 28 15 39t46 11q37 0 51 -11t14 -39v-19q0 -29 -15 -39.5t-50 -10.5q-33 0 -47 11z" />
    <glyph glyph-name="Igrave" unicode="&#xcc;" horiz-adv-x="275" 
d="M181 17.5q-19 -17.5 -44 -17.5q-27 0 -44.5 17.5t-17.5 43.5v578q0 26 18 43.5t46 17.5q25 0 43 -17.5t18 -43.5v-578q0 -26 -19 -43.5zM115 748l-100 53q-18 10 -27.5 24t-9.5 29q0 21 17 35t36 14q23 0 49 -22l86 -76q14 -13 14 -27q0 -16 -11.5 -26t-30.5 -10
q-11 0 -23 6z" />
    <glyph glyph-name="uni1EC8" unicode="&#x1ec8;" horiz-adv-x="275" 
d="M181 17.5q-19 -17.5 -44 -17.5q-27 0 -44.5 17.5t-17.5 43.5v578q0 26 18 43.5t46 17.5q25 0 43 -17.5t18 -43.5v-578q0 -26 -19 -43.5zM79 949.5q18 7.5 43 7.5q56 0 79.5 -26.5t23.5 -60.5q0 -16 -4.5 -28.5t-14.5 -25.5q-2 -3 -9.5 -12t-11 -15t-3.5 -11
q0 -12 -11 -17.5t-29 -5.5q-11 0 -19.5 5.5t-8.5 17.5q0 18 16 39q23 31 23 43t-10 19.5t-24 7.5q-11 0 -20 -4.5t-22 -12.5q-10 -6 -16 -6q-12 0 -25 13q-9 9 -9 21q0 16 16 30q18 14 36 21.5z" />
    <glyph glyph-name="uni020A" unicode="&#x20a;" horiz-adv-x="275" 
d="M181 17.5q-19 -17.5 -44 -17.5q-27 0 -44.5 17.5t-17.5 43.5v578q0 26 18 43.5t46 17.5q25 0 43 -17.5t18 -43.5v-578q0 -26 -19 -43.5zM238.5 904q41.5 -24 59.5 -69q5 -13 5 -22q0 -15 -9.5 -24t-24.5 -9q-20 0 -32.5 8.5t-27.5 27.5q-24 27 -69 27t-69 -27
q-15 -19 -27.5 -27.5t-32.5 -8.5q-15 0 -24.5 8.5t-9.5 23.5q0 10 4 21q19 46 60.5 70.5t98.5 24.5t98.5 -24z" />
    <glyph glyph-name="Imacron" unicode="&#x12a;" horiz-adv-x="275" 
d="M181 17.5q-19 -17.5 -44 -17.5q-27 0 -44.5 17.5t-17.5 43.5v578q0 26 18 43.5t46 17.5q25 0 43 -17.5t18 -43.5v-578q0 -26 -19 -43.5zM-18 761.5q-13 11.5 -13 33.5q0 21 13 32.5t37 11.5h242q24 0 37 -11.5t13 -32.5q0 -45 -50 -45h-242q-24 0 -37 11.5z" />
    <glyph glyph-name="Iogonek" unicode="&#x12e;" horiz-adv-x="280" 
d="M197.5 -97q12.5 -13 12.5 -35q0 -16 -16.5 -34t-43.5 -29.5t-56 -11.5q-53 0 -86.5 27t-33.5 80q0 50 27.5 82.5t73.5 53.5v603q0 26 19 43.5t47 17.5t46 -17.5t18 -43.5v-604q0 -30 -26 -37q-48 -14 -77 -33t-29 -43q0 -17 9 -26.5t22 -9.5q12 0 21 12q13 18 41 18
q19 0 31.5 -13z" />
    <glyph glyph-name="Itilde" unicode="&#x128;" horiz-adv-x="275" 
d="M181 17.5q-19 -17.5 -44 -17.5q-27 0 -44.5 17.5t-17.5 43.5v578q0 26 18 43.5t46 17.5q25 0 43 -17.5t18 -43.5v-578q0 -26 -19 -43.5zM-34 755.5q-16 19.5 -16 51.5q0 34 30 61t81 27q26 0 49 -10t54 -28q21 -12 33.5 -18t22.5 -6q11 0 17 6t3 15q-2 5 -2 14
q0 16 10.5 25.5t26.5 9.5q23 0 39 -19.5t16 -49.5q0 -19 -11 -40t-32.5 -35.5t-51.5 -14.5q-29 0 -54 10t-63 29q-22 12 -35 17.5t-23 5.5q-11 0 -17 -6t-3 -15q2 -5 2 -14q0 -16 -10.5 -25.5t-26.5 -9.5q-23 0 -39 19.5z" />
    <glyph glyph-name="J" unicode="J" horiz-adv-x="552" 
d="M132 13.5q-49 23.5 -80 65.5q-12 18 -12 35q0 24 19 41.5t39 17.5q26 0 56 -30q19 -18 39 -25.5t45 -7.5q29 0 55.5 15t42.5 40.5t16 53.5v420q0 26 19 43.5t44 17.5q28 0 45 -17t17 -44v-420q0 -60 -32 -113t-87 -84.5t-120 -31.5q-57 0 -106 23.5z" />
    <glyph glyph-name="Jcircumflex" unicode="&#x134;" horiz-adv-x="552" 
d="M132 13.5q-49 23.5 -80 65.5q-12 18 -12 35q0 24 19 41.5t39 17.5q26 0 56 -30q19 -18 39 -25.5t45 -7.5q29 0 55.5 15t42.5 40.5t16 53.5v420q0 26 19 43.5t44 17.5q28 0 45 -17t17 -44v-420q0 -60 -32 -113t-87 -84.5t-120 -31.5q-57 0 -106 23.5zM558 779q3 -6 3 -14
q0 -9 -9 -17t-22 -8q-9 0 -20 5t-31 17l-65 38l-65 -38q-16 -9 -29 -15.5t-22 -6.5q-13 0 -22 8t-9 17q0 8 3 14t12 16l63 72q13 15 27 22t34 7h16q19 0 33.5 -7t27.5 -22l63 -72q9 -10 12 -16z" />
    <glyph glyph-name="K" unicode="K" horiz-adv-x="655" 
d="M621 84.5q4 -11.5 4 -21.5q0 -27 -20.5 -45t-47.5 -18q-13 0 -25 6t-20 17l-217 286l-95 -91v-157q0 -27 -17.5 -44t-45.5 -17q-27 0 -44.5 17.5t-17.5 43.5v578q0 26 18 43.5t46 17.5q27 0 44 -17t17 -44v-272l320 315q23 23 49 23q23 0 39 -19t16 -40t-18 -39
l-218 -208l223 -295q6 -8 10 -19.5z" />
    <glyph glyph-name="Kcommaaccent" unicode="&#x136;" horiz-adv-x="655" 
d="M621 84.5q4 -11.5 4 -21.5q0 -27 -20.5 -45t-47.5 -18q-13 0 -25 6t-20 17l-217 286l-95 -91v-157q0 -27 -17.5 -44t-45.5 -17q-27 0 -44.5 17.5t-17.5 43.5v578q0 26 18 43.5t46 17.5q27 0 44 -17t17 -44v-272l320 315q23 23 49 23q23 0 39 -19t16 -40t-18 -39
l-218 -208l223 -295q6 -8 10 -19.5zM398 -148q-14 -22 -37.5 -36t-50.5 -14q-23 0 -35.5 10t-12.5 22t6.5 17.5t14.5 5.5q5 0 14.5 -2.5t15.5 -2.5q11 0 18 7.5t7 20.5t-10 13q-4 0 -10 -4.5t-17 -4.5q-16 0 -26 11t-10 30q0 23 18.5 35t49.5 12q35 0 57 -20.5t22 -55.5
q0 -22 -14 -44z" />
    <glyph glyph-name="L" unicode="L" horiz-adv-x="562" 
d="M504.5 100.5q17.5 -16.5 17.5 -42.5q0 -25 -17.5 -41.5t-43.5 -16.5h-325q-26 0 -43.5 17.5t-17.5 43.5v578q0 26 18 43.5t46 17.5q25 0 43 -17.5t18 -43.5v-522h261q26 0 43.5 -16.5z" />
    <glyph glyph-name="uni01C7" unicode="&#x1c7;" horiz-adv-x="1114" 
d="M504.5 100.5q17.5 -16.5 17.5 -42.5q0 -25 -17.5 -41.5t-43.5 -16.5h-325q-26 0 -43.5 17.5t-17.5 43.5v578q0 26 18 43.5t46 17.5q25 0 43 -17.5t18 -43.5v-522h261q26 0 43.5 -16.5zM694 13.5q-49 23.5 -80 65.5q-12 18 -12 35q0 24 19 41.5t39 17.5q26 0 56 -30
q19 -18 39 -25.5t45 -7.5q29 0 55.5 15t42.5 40.5t16 53.5v420q0 26 19 43.5t44 17.5q28 0 45 -17t17 -44v-420q0 -60 -32 -113t-87 -84.5t-120 -31.5q-57 0 -106 23.5z" />
    <glyph glyph-name="Lacute" unicode="&#x139;" horiz-adv-x="562" 
d="M504.5 100.5q17.5 -16.5 17.5 -42.5q0 -25 -17.5 -41.5t-43.5 -16.5h-325q-26 0 -43.5 17.5t-17.5 43.5v578q0 26 18 43.5t46 17.5q25 0 43 -17.5t18 -43.5v-522h261q26 0 43.5 -16.5zM101.5 748q-11.5 10 -11.5 26q0 14 14 27l86 76q26 22 49 22q19 0 36 -14t17 -35
q0 -15 -9.5 -29.5t-27.5 -23.5l-100 -53q-10 -6 -23 -6q-19 0 -30.5 10z" />
    <glyph glyph-name="Lcaron" unicode="&#x13d;" horiz-adv-x="562" 
d="M504.5 102.5q17.5 -17.5 17.5 -43.5q0 -25 -17.5 -42t-43.5 -17h-325q-26 0 -43.5 17.5t-17.5 43.5v578q0 26 17.5 43.5t43.5 17.5q25 0 42 -17.5t17 -43.5v-509q0 -10 10 -10h256q26 0 43.5 -17.5zM503 519q-17 -35 -44 -61t-56 -26q-22 0 -35 9.5t-13 30.5q0 16 8 22.5
t17.5 9.5t13.5 5q28 15 28 40q0 11 -10.5 19.5t-27.5 8.5t-28 -7q-12 5 -18.5 13t-6.5 24q0 20 15 37.5t37 28t43 10.5q44 0 69 -27.5t25 -78.5q0 -23 -17 -58z" />
    <glyph glyph-name="Lcommaaccent" unicode="&#x13b;" horiz-adv-x="562" 
d="M504.5 100.5q17.5 -16.5 17.5 -42.5q0 -25 -17.5 -41.5t-43.5 -16.5h-325q-26 0 -43.5 17.5t-17.5 43.5v578q0 26 18 43.5t46 17.5q25 0 43 -17.5t18 -43.5v-522h261q26 0 43.5 -16.5zM351 -148q-14 -22 -37.5 -36t-50.5 -14q-23 0 -35.5 10t-12.5 22t6.5 17.5t14.5 5.5
q5 0 14.5 -2.5t15.5 -2.5q11 0 18 7.5t7 20.5t-10 13q-4 0 -10 -4.5t-17 -4.5q-16 0 -26 11t-10 30q0 23 18.5 35t49.5 12q35 0 57 -20.5t22 -55.5q0 -22 -14 -44z" />
    <glyph glyph-name="Ldot" unicode="&#x13f;" horiz-adv-x="542" 
d="M504.5 100.5q17.5 -16.5 17.5 -42.5q0 -25 -17.5 -41.5t-43.5 -16.5h-325q-26 0 -43.5 17.5t-17.5 43.5v578q0 26 18 43.5t46 17.5q25 0 43 -17.5t18 -43.5v-522h261q26 0 43.5 -16.5zM347.5 343.5q-15.5 15.5 -15.5 44.5v17q0 29 15.5 44.5t44.5 15.5h13
q29 0 44.5 -15.5t15.5 -44.5v-17q0 -29 -15.5 -44.5t-44.5 -15.5h-13q-29 0 -44.5 15.5z" />
    <glyph glyph-name="uni1E36" unicode="&#x1e36;" horiz-adv-x="562" 
d="M504.5 100.5q17.5 -16.5 17.5 -42.5q0 -25 -17.5 -41.5t-43.5 -16.5h-325q-26 0 -43.5 17.5t-17.5 43.5v578q0 26 18 43.5t46 17.5q25 0 43 -17.5t18 -43.5v-522h261q26 0 43.5 -16.5zM232 -136q-14 11 -14 39v19q0 28 15 39t46 11q37 0 51 -11t14 -39v-19
q0 -29 -15 -39.5t-50 -10.5q-33 0 -47 11z" />
    <glyph glyph-name="uni01C8" unicode="&#x1c8;" horiz-adv-x="837" 
d="M504.5 100.5q17.5 -16.5 17.5 -42.5q0 -25 -17.5 -41.5t-43.5 -16.5h-325q-26 0 -43.5 17.5t-17.5 43.5v578q0 26 18 43.5t46 17.5q25 0 43 -17.5t18 -43.5v-522h261q26 0 43.5 -16.5zM558 -180q-16 16 -16 40v11q0 40 51 55q32 10 40.5 33.5t8.5 65.5v449q0 26 17 43.5
t43 17.5t43 -17.5t17 -43.5v-484q0 -56 -21.5 -98t-59 -65t-83.5 -23q-24 0 -40 16zM652 611q-14 11 -14 39v19q0 28 15 39t48 11q35 0 49 -11t14 -39v-19q0 -29 -14.5 -39.5t-49.5 -10.5q-34 0 -48 11z" />
    <glyph glyph-name="uni1E3A" unicode="&#x1e3a;" horiz-adv-x="562" 
d="M504.5 100.5q17.5 -16.5 17.5 -42.5q0 -25 -17.5 -41.5t-43.5 -16.5h-325q-26 0 -43.5 17.5t-17.5 43.5v578q0 26 18 43.5t46 17.5q25 0 43 -17.5t18 -43.5v-522h261q26 0 43.5 -16.5zM133 -140.5q-13 11.5 -13 33.5q0 21 13 32.5t37 11.5h242q24 0 37 -11.5t13 -32.5
q0 -45 -50 -45h-242q-24 0 -37 11.5z" />
    <glyph glyph-name="Lslash" unicode="&#x141;" horiz-adv-x="633" 
d="M575.5 102.5q17.5 -17.5 17.5 -43.5q0 -25 -17.5 -42t-43.5 -17h-325q-26 0 -43.5 17.5t-17.5 43.5v231l-39 -17q-12 -5 -21 -5q-24 0 -37.5 17t-13.5 36q0 14 8.5 25.5t23.5 18.5l79 35v237q0 26 17.5 43.5t43.5 17.5q25 0 42 -17.5t17 -43.5v-184l95 42q12 5 22 5
q23 0 36.5 -17t13.5 -35q0 -14 -8.5 -26t-23.5 -19l-135 -60v-225h266q26 0 43.5 -17.5z" />
    <glyph glyph-name="M" unicode="M" horiz-adv-x="819" 
d="M725.5 683.5q18.5 -17.5 18.5 -43.5v-579q0 -26 -17 -43.5t-45 -17.5t-45.5 17t-17.5 44v403l-165 -252q-10 -12 -23 -19.5t-27 -6.5q-13 -1 -26 6.5t-23 19.5l-165 261v-412q0 -27 -16 -44t-42 -17q-25 0 -41 17.5t-16 43.5v579q0 25 18.5 43t44.5 18q15 0 30 -7.5
t23 -19.5l218 -335l224 335q8 12 21.5 19.5t27.5 7.5q25 0 43.5 -17.5z" />
    <glyph glyph-name="uni1E42" unicode="&#x1e42;" horiz-adv-x="819" 
d="M725.5 683.5q18.5 -17.5 18.5 -43.5v-579q0 -26 -17 -43.5t-45 -17.5t-45.5 17t-17.5 44v403l-165 -252q-10 -12 -23 -19.5t-27 -6.5q-13 -1 -26 6.5t-23 19.5l-165 261v-412q0 -27 -16 -44t-42 -17q-25 0 -41 17.5t-16 43.5v579q0 25 18.5 43t44.5 18q15 0 30 -7.5
t23 -19.5l218 -335l224 335q8 12 21.5 19.5t27.5 7.5q25 0 43.5 -17.5zM361 -136q-14 11 -14 39v19q0 28 15 39t46 11q37 0 51 -11t14 -39v-19q0 -29 -15 -39.5t-50 -10.5q-33 0 -47 11z" />
    <glyph glyph-name="N" unicode="N" horiz-adv-x="735" 
d="M645 684q15 -16 15 -40v-583q0 -26 -17.5 -43.5t-43.5 -17.5q-14 0 -27.5 4.5t-19.5 12.5l-367 466v-427q0 -24 -15.5 -40t-40.5 -16q-24 0 -39 16t-15 40v583q0 26 17.5 43.5t43.5 17.5q15 0 29.5 -6t21.5 -16l364 -464v430q0 24 15.5 40t39.5 16t39 -16z" />
    <glyph glyph-name="uni01CA" unicode="&#x1ca;" horiz-adv-x="1287" 
d="M645 684q15 -16 15 -40v-583q0 -26 -17.5 -43.5t-43.5 -17.5q-14 0 -27.5 4.5t-19.5 12.5l-367 466v-427q0 -24 -15.5 -40t-40.5 -16q-24 0 -39 16t-15 40v583q0 26 17.5 43.5t43.5 17.5q15 0 29.5 -6t21.5 -16l364 -464v430q0 24 15.5 40t39.5 16t39 -16zM867 13.5
q-49 23.5 -80 65.5q-12 18 -12 35q0 24 19 41.5t39 17.5q26 0 56 -30q19 -18 39 -25.5t45 -7.5q29 0 55.5 15t42.5 40.5t16 53.5v420q0 26 19 43.5t44 17.5q28 0 45 -17t17 -44v-420q0 -60 -32 -113t-87 -84.5t-120 -31.5q-57 0 -106 23.5z" />
    <glyph glyph-name="Nacute" unicode="&#x143;" horiz-adv-x="735" 
d="M645 684q15 -16 15 -40v-583q0 -26 -17.5 -43.5t-43.5 -17.5q-14 0 -27.5 4.5t-19.5 12.5l-367 466v-427q0 -24 -15.5 -40t-40.5 -16q-24 0 -39 16t-15 40v583q0 26 17.5 43.5t43.5 17.5q15 0 29.5 -6t21.5 -16l364 -464v430q0 24 15.5 40t39.5 16t39 -16zM338.5 748
q-11.5 10 -11.5 26q0 14 14 27l86 76q26 22 49 22q19 0 36 -14t17 -35q0 -15 -9.5 -29.5t-27.5 -23.5l-100 -53q-10 -6 -23 -6q-19 0 -30.5 10z" />
    <glyph glyph-name="Ncaron" unicode="&#x147;" horiz-adv-x="735" 
d="M645 684q15 -16 15 -40v-583q0 -26 -17.5 -43.5t-43.5 -17.5q-14 0 -27.5 4.5t-19.5 12.5l-367 466v-427q0 -24 -15.5 -40t-40.5 -16q-24 0 -39 16t-15 40v583q0 26 17.5 43.5t43.5 17.5q15 0 29.5 -6t21.5 -16l364 -464v430q0 24 15.5 40t39.5 16t39 -16zM507 888
q9 -8 9 -17q0 -7 -3 -13t-12 -17l-63 -72q-13 -15 -27.5 -22t-33.5 -7h-16q-20 0 -34 7t-27 22l-63 72q-9 11 -12 17t-3 13q0 9 9 17t22 8q20 0 51 -20l65 -42l65 42q31 20 51 20q13 0 22 -8z" />
    <glyph glyph-name="Ncommaaccent" unicode="&#x145;" horiz-adv-x="735" 
d="M645 684q15 -16 15 -40v-583q0 -26 -17.5 -43.5t-43.5 -17.5q-14 0 -27.5 4.5t-19.5 12.5l-367 466v-427q0 -24 -15.5 -40t-40.5 -16q-24 0 -39 16t-15 40v583q0 26 17.5 43.5t43.5 17.5q15 0 29.5 -6t21.5 -16l364 -464v430q0 24 15.5 40t39.5 16t39 -16zM438 -148
q-14 -22 -37.5 -36t-50.5 -14q-23 0 -35.5 10t-12.5 22t6.5 17.5t14.5 5.5q5 0 14.5 -2.5t15.5 -2.5q11 0 18 7.5t7 20.5t-10 13q-4 0 -10 -4.5t-17 -4.5q-16 0 -26 11t-10 30q0 23 18.5 35t49.5 12q35 0 57 -20.5t22 -55.5q0 -22 -14 -44z" />
    <glyph glyph-name="uni1E44" unicode="&#x1e44;" horiz-adv-x="735" 
d="M645 684q15 -16 15 -40v-583q0 -26 -17.5 -43.5t-43.5 -17.5q-14 0 -27.5 4.5t-19.5 12.5l-367 466v-427q0 -24 -15.5 -40t-40.5 -16q-24 0 -39 16t-15 40v583q0 26 17.5 43.5t43.5 17.5q15 0 29.5 -6t21.5 -16l364 -464v430q0 24 15.5 40t39.5 16t39 -16zM319 751
q-14 11 -14 39v19q0 28 14.5 39t47.5 11q36 0 50 -11t14 -39v-19q0 -29 -15 -39.5t-50 -10.5q-33 0 -47 11z" />
    <glyph glyph-name="uni1E46" unicode="&#x1e46;" horiz-adv-x="735" 
d="M645 684q15 -16 15 -40v-583q0 -26 -17.5 -43.5t-43.5 -17.5q-14 0 -27.5 4.5t-19.5 12.5l-367 466v-427q0 -24 -15.5 -40t-40.5 -16q-24 0 -39 16t-15 40v583q0 26 17.5 43.5t43.5 17.5q15 0 29.5 -6t21.5 -16l364 -464v430q0 24 15.5 40t39.5 16t39 -16zM319 -136
q-14 11 -14 39v19q0 28 15 39t46 11q37 0 51 -11t14 -39v-19q0 -29 -15 -39.5t-50 -10.5q-33 0 -47 11z" />
    <glyph glyph-name="Eng" unicode="&#x14a;" horiz-adv-x="755" 
d="M663 682.5q17 -17.5 17 -43.5v-653q0 -97 -50 -141.5t-124 -44.5q-29 0 -48 14t-19 38t16.5 40.5t41.5 17.5q32 1 47.5 17.5t15.5 53.5v54l-365 445v-419q0 -26 -17.5 -43.5t-43.5 -17.5q-25 0 -42 17.5t-17 43.5v578q0 26 17.5 43.5t43.5 17.5q30 0 50 -26l374 -457v422
q0 26 17.5 43.5t43.5 17.5q25 0 42 -17.5z" />
    <glyph glyph-name="uni019D" unicode="&#x19d;" horiz-adv-x="735" 
d="M644 684q16 -16 16 -40v-583q0 -26 -17.5 -43.5t-43.5 -17.5q-14 0 -27.5 4.5t-19.5 12.5l-363 461v-488q0 -83 -33 -124.5t-68 -52t-58 -10.5q-24 1 -39.5 17.5t-15.5 39.5q0 30 12 44t39 22q32 9 40.5 33t8.5 66v614q0 26 17.5 43.5t43.5 17.5q15 0 29.5 -6t21.5 -16
l359 -458v424q0 24 16.5 40t41.5 16q24 0 40 -16z" />
    <glyph glyph-name="uni01CB" unicode="&#x1cb;" horiz-adv-x="1010" 
d="M645 684q15 -16 15 -40v-583q0 -26 -17.5 -43.5t-43.5 -17.5q-14 0 -27.5 4.5t-19.5 12.5l-367 466v-427q0 -24 -15.5 -40t-40.5 -16q-24 0 -39 16t-15 40v583q0 26 17.5 43.5t43.5 17.5q15 0 29.5 -6t21.5 -16l364 -464v430q0 24 15.5 40t39.5 16t39 -16zM731 -180
q-16 16 -16 40v11q0 40 51 55q32 10 40.5 33.5t8.5 65.5v449q0 26 17 43.5t43 17.5t43 -17.5t17 -43.5v-484q0 -56 -21.5 -98t-59 -65t-83.5 -23q-24 0 -40 16zM825 611q-14 11 -14 39v19q0 28 15 39t48 11q35 0 49 -11t14 -39v-19q0 -29 -14.5 -39.5t-49.5 -10.5
q-34 0 -48 11z" />
    <glyph glyph-name="uni1E48" unicode="&#x1e48;" horiz-adv-x="735" 
d="M645 684q15 -16 15 -40v-583q0 -26 -17.5 -43.5t-43.5 -17.5q-14 0 -27.5 4.5t-19.5 12.5l-367 466v-427q0 -24 -15.5 -40t-40.5 -16q-24 0 -39 16t-15 40v583q0 26 17.5 43.5t43.5 17.5q15 0 29.5 -6t21.5 -16l364 -464v430q0 24 15.5 40t39.5 16t39 -16zM220 -140.5
q-13 11.5 -13 33.5q0 21 13 32.5t37 11.5h242q24 0 37 -11.5t13 -32.5q0 -45 -50 -45h-242q-24 0 -37 11.5z" />
    <glyph glyph-name="Ntilde" unicode="&#xd1;" horiz-adv-x="735" 
d="M645 684q15 -16 15 -40v-583q0 -26 -17.5 -43.5t-43.5 -17.5q-14 0 -27.5 4.5t-19.5 12.5l-367 466v-427q0 -24 -15.5 -40t-40.5 -16q-24 0 -39 16t-15 40v583q0 26 17.5 43.5t43.5 17.5q15 0 29.5 -6t21.5 -16l364 -464v430q0 24 15.5 40t39.5 16t39 -16zM194 755.5
q-16 19.5 -16 51.5q0 34 30 61t81 27q26 0 49 -10t54 -28q21 -12 33.5 -18t22.5 -6q11 0 17 6t3 15q-2 5 -2 14q0 16 10.5 25.5t26.5 9.5q23 0 39 -19.5t16 -49.5q0 -19 -11 -40t-32.5 -35.5t-51.5 -14.5q-29 0 -54 10t-63 29q-22 12 -35 17.5t-23 5.5q-11 0 -17 -6t-3 -15
q2 -5 2 -14q0 -16 -10.5 -25.5t-26.5 -9.5q-23 0 -39 19.5z" />
    <glyph glyph-name="O" unicode="O" horiz-adv-x="759" 
d="M675 168.5q-44 -82.5 -121.5 -130.5t-174.5 -48t-174.5 48t-121 130.5t-43.5 181.5t43.5 181.5t121 130.5t174.5 48t174.5 -48t121.5 -130.5t44 -181.5t-44 -181.5zM562 471.5q-27 54.5 -75 86.5t-108 32q-61 0 -108.5 -31.5t-74 -86.5t-26.5 -122t26.5 -122t74 -86.5
t108.5 -31.5q60 0 108 32t75 86.5t27 121.5t-27 121.5z" />
    <glyph glyph-name="Oacute" unicode="&#xd3;" horiz-adv-x="759" 
d="M675 168.5q-44 -82.5 -121.5 -130.5t-174.5 -48t-174.5 48t-121 130.5t-43.5 181.5t43.5 181.5t121 130.5t174.5 48t174.5 -48t121.5 -130.5t44 -181.5t-44 -181.5zM562 471.5q-27 54.5 -75 86.5t-108 32q-61 0 -108.5 -31.5t-74 -86.5t-26.5 -122t26.5 -122t74 -86.5
t108.5 -31.5q60 0 108 32t75 86.5t27 121.5t-27 121.5zM350.5 748q-11.5 10 -11.5 26q0 14 14 27l86 76q26 22 49 22q19 0 36 -14t17 -35q0 -15 -9.5 -29.5t-27.5 -23.5l-100 -53q-10 -6 -23 -6q-19 0 -30.5 10z" />
    <glyph glyph-name="Obreve" unicode="&#x14e;" horiz-adv-x="759" 
d="M675 168.5q-44 -82.5 -121.5 -130.5t-174.5 -48t-174.5 48t-121 130.5t-43.5 181.5t43.5 181.5t121 130.5t174.5 48t174.5 -48t121.5 -130.5t44 -181.5t-44 -181.5zM562 471.5q-27 54.5 -75 86.5t-108 32q-61 0 -108.5 -31.5t-74 -86.5t-26.5 -122t26.5 -122t74 -86.5
t108.5 -31.5q60 0 108 32t75 86.5t27 121.5t-27 121.5zM282.5 782.5q-41.5 24.5 -60.5 68.5q-5 13 -5 22q0 15 9.5 24t24.5 9q19 0 31 -8t29 -28q24 -27 69 -27q48 0 69 27q15 19 27.5 27.5t32.5 8.5q15 0 24.5 -8.5t9.5 -23.5q0 -10 -4 -21q-19 -46 -60.5 -70.5
t-98.5 -24.5q-56 0 -97.5 24.5z" />
    <glyph glyph-name="uni01D1" unicode="&#x1d1;" horiz-adv-x="759" 
d="M675 168.5q-44 -82.5 -121.5 -130.5t-174.5 -48t-174.5 48t-121 130.5t-43.5 181.5t43.5 181.5t121 130.5t174.5 48t174.5 -48t121.5 -130.5t44 -181.5t-44 -181.5zM562 471.5q-27 54.5 -75 86.5t-108 32q-61 0 -108.5 -31.5t-74 -86.5t-26.5 -122t26.5 -122t74 -86.5
t108.5 -31.5q60 0 108 32t75 86.5t27 121.5t-27 121.5zM519 888q9 -8 9 -17q0 -7 -3 -13t-12 -17l-63 -72q-13 -15 -27.5 -22t-33.5 -7h-16q-20 0 -34 7t-27 22l-63 72q-9 11 -12 17t-3 13q0 9 9 17t22 8q20 0 51 -20l65 -42l65 42q31 20 51 20q13 0 22 -8z" />
    <glyph glyph-name="Ocircumflex" unicode="&#xd4;" horiz-adv-x="759" 
d="M675 168.5q-44 -82.5 -121.5 -130.5t-174.5 -48t-174.5 48t-121 130.5t-43.5 181.5t43.5 181.5t121 130.5t174.5 48t174.5 -48t121.5 -130.5t44 -181.5t-44 -181.5zM562 471.5q-27 54.5 -75 86.5t-108 32q-61 0 -108.5 -31.5t-74 -86.5t-26.5 -122t26.5 -122t74 -86.5
t108.5 -31.5q60 0 108 32t75 86.5t27 121.5t-27 121.5zM523 779q3 -6 3 -14q0 -9 -9 -17t-22 -8q-9 0 -20 5t-31 17l-65 38l-65 -38q-16 -9 -29 -15.5t-22 -6.5q-13 0 -22 8t-9 17q0 8 3 14t12 16l63 72q13 15 27 22t34 7h16q19 0 33.5 -7t27.5 -22l63 -72q9 -10 12 -16z
" />
    <glyph glyph-name="uni1ED0" unicode="&#x1ed0;" horiz-adv-x="759" 
d="M675 168.5q-44 -82.5 -121.5 -130.5t-174.5 -48t-174.5 48t-121 130.5t-43.5 181.5t43.5 181.5t121 130.5t174.5 48t174.5 -48t121.5 -130.5t44 -181.5t-44 -181.5zM562 471.5q-27 54.5 -75 86.5t-108 32q-61 0 -108.5 -31.5t-74 -86.5t-26.5 -122t26.5 -122t74 -86.5
t108.5 -31.5q60 0 108 32t75 86.5t27 121.5t-27 121.5zM523 779q3 -6 3 -14q0 -9 -9 -17t-22 -8q-9 0 -20 5t-31 17l-65 38l-65 -38q-16 -9 -29 -15.5t-22 -6.5q-13 0 -22 8t-9 17q0 8 3 14t12 16l63 72q13 15 27 22t34 7h16q19 0 33.5 -7t27.5 -22l63 -72q9 -10 12 -16z
M516.5 832q-11.5 10 -11.5 26q0 14 14 27l86 76q26 22 49 22q19 0 36 -14t17 -35q0 -15 -9.5 -29.5t-27.5 -23.5l-100 -53q-10 -6 -23 -6q-19 0 -30.5 10z" />
    <glyph glyph-name="uni1ED8" unicode="&#x1ed8;" horiz-adv-x="759" 
d="M675 168.5q-44 -82.5 -121.5 -130.5t-174.5 -48t-174.5 48t-121 130.5t-43.5 181.5t43.5 181.5t121 130.5t174.5 48t174.5 -48t121.5 -130.5t44 -181.5t-44 -181.5zM562 471.5q-27 54.5 -75 86.5t-108 32q-61 0 -108.5 -31.5t-74 -86.5t-26.5 -122t26.5 -122t74 -86.5
t108.5 -31.5q60 0 108 32t75 86.5t27 121.5t-27 121.5zM331 -136q-14 11 -14 39v19q0 28 15 39t46 11q37 0 51 -11t14 -39v-19q0 -29 -15 -39.5t-50 -10.5q-33 0 -47 11zM523 779q3 -6 3 -14q0 -9 -9 -17t-22 -8q-9 0 -20 5t-31 17l-65 38l-65 -38q-16 -9 -29 -15.5
t-22 -6.5q-13 0 -22 8t-9 17q0 8 3 14t12 16l63 72q13 15 27 22t34 7h16q19 0 33.5 -7t27.5 -22l63 -72q9 -10 12 -16z" />
    <glyph glyph-name="uni1ED2" unicode="&#x1ed2;" horiz-adv-x="759" 
d="M675 168.5q-44 -82.5 -121.5 -130.5t-174.5 -48t-174.5 48t-121 130.5t-43.5 181.5t43.5 181.5t121 130.5t174.5 48t174.5 -48t121.5 -130.5t44 -181.5t-44 -181.5zM562 471.5q-27 54.5 -75 86.5t-108 32q-61 0 -108.5 -31.5t-74 -86.5t-26.5 -122t26.5 -122t74 -86.5
t108.5 -31.5q60 0 108 32t75 86.5t27 121.5t-27 121.5zM523 779q3 -6 3 -14q0 -9 -9 -17t-22 -8q-9 0 -20 5t-31 17l-65 38l-65 -38q-16 -9 -29 -15.5t-22 -6.5q-13 0 -22 8t-9 17q0 8 3 14t12 16l63 72q13 15 27 22t34 7h16q19 0 33.5 -7t27.5 -22l63 -72q9 -10 12 -16z
M525 876l-100 53q-18 10 -27.5 24t-9.5 29q0 21 17 35t36 14q23 0 49 -22l86 -76q14 -13 14 -27q0 -16 -11.5 -26t-30.5 -10q-11 0 -23 6z" />
    <glyph glyph-name="uni1ED4" unicode="&#x1ed4;" horiz-adv-x="759" 
d="M675 168.5q-44 -82.5 -121.5 -130.5t-174.5 -48t-174.5 48t-121 130.5t-43.5 181.5t43.5 181.5t121 130.5t174.5 48t174.5 -48t121.5 -130.5t44 -181.5t-44 -181.5zM562 471.5q-27 54.5 -75 86.5t-108 32q-61 0 -108.5 -31.5t-74 -86.5t-26.5 -122t26.5 -122t74 -86.5
t108.5 -31.5q60 0 108 32t75 86.5t27 121.5t-27 121.5zM510 795q2 -6 2 -15q0 -10 -8.5 -17.5t-21.5 -7.5q-15 0 -22.5 4t-15 10.5t-11.5 9.5l-53 47l-57 -47q-4 -3 -12.5 -10.5t-16.5 -10.5t-20 -3q-13 0 -21.5 7.5t-8.5 17.5q0 9 2 15t10 16l49 62q23 29 61 29h36
q20 0 31.5 -6t22.5 -23l44 -62q8 -10 10 -16zM478 1024.5q18 7.5 43 7.5q56 0 79.5 -26.5t23.5 -60.5q0 -16 -4.5 -28.5t-14.5 -25.5q-2 -3 -9.5 -12t-11 -15t-3.5 -11q0 -12 -10 -20t-24 -8t-24 8t-10 20q0 18 16 39q23 31 23 43t-10 19.5t-24 7.5q-11 0 -20 -4.5
t-22 -12.5q-10 -6 -16 -6q-12 0 -25 13q-9 9 -9 21q0 16 16 30q18 14 36 21.5z" />
    <glyph glyph-name="uni1ED6" unicode="&#x1ed6;" horiz-adv-x="759" 
d="M675 168.5q-44 -82.5 -121.5 -130.5t-174.5 -48t-174.5 48t-121 130.5t-43.5 181.5t43.5 181.5t121 130.5t174.5 48t174.5 -48t121.5 -130.5t44 -181.5t-44 -181.5zM562 471.5q-27 54.5 -75 86.5t-108 32q-61 0 -108.5 -31.5t-74 -86.5t-26.5 -122t26.5 -122t74 -86.5
t108.5 -31.5q60 0 108 32t75 86.5t27 121.5t-27 121.5zM523 779q3 -6 3 -14q0 -9 -9 -17t-22 -8q-9 0 -20 5t-31 17l-65 38l-65 -38q-16 -9 -29 -15.5t-22 -6.5q-13 0 -22 8t-9 17q0 8 3 14t12 16l63 72q13 15 27 22t34 7h16q19 0 33.5 -7t27.5 -22l63 -72q9 -10 12 -16z
M215 912.5q-16 19.5 -16 51.5q0 34 30 61t81 27q26 0 49 -10t54 -28q21 -12 33.5 -18t22.5 -6q11 0 17 6t3 15q-2 5 -2 14q0 16 10.5 25.5t26.5 9.5q23 0 39 -19.5t16 -49.5q0 -19 -11 -40t-32.5 -35.5t-51.5 -14.5q-29 0 -54 10t-63 29q-22 12 -35 17.5t-23 5.5
q-11 0 -17 -6t-3 -15q2 -5 2 -14q0 -16 -10.5 -25.5t-26.5 -9.5q-23 0 -39 19.5z" />
    <glyph glyph-name="uni020C" unicode="&#x20c;" horiz-adv-x="759" 
d="M675 168.5q-44 -82.5 -121.5 -130.5t-174.5 -48t-174.5 48t-121 130.5t-43.5 181.5t43.5 181.5t121 130.5t174.5 48t174.5 -48t121.5 -130.5t44 -181.5t-44 -181.5zM562 471.5q-27 54.5 -75 86.5t-108 32q-61 0 -108.5 -31.5t-74 -86.5t-26.5 -122t26.5 -122t74 -86.5
t108.5 -31.5q60 0 108 32t75 86.5t27 121.5t-27 121.5zM463 768l-100 53q-18 10 -27.5 24t-9.5 29q0 21 17 35t36 14q23 0 49 -22l86 -76q14 -13 14 -27q0 -16 -11.5 -26t-30.5 -10q-11 0 -23 6zM257 758l-100 53q-18 10 -27.5 24t-9.5 29q0 21 17 35t36 14q23 0 49 -22
l86 -76q14 -13 14 -27q0 -16 -11.5 -26t-30.5 -10q-11 0 -23 6z" />
    <glyph glyph-name="Odieresis" unicode="&#xd6;" horiz-adv-x="759" 
d="M675 168.5q-44 -82.5 -121.5 -130.5t-174.5 -48t-174.5 48t-121 130.5t-43.5 181.5t43.5 181.5t121 130.5t174.5 48t174.5 -48t121.5 -130.5t44 -181.5t-44 -181.5zM562 471.5q-27 54.5 -75 86.5t-108 32q-61 0 -108.5 -31.5t-74 -86.5t-26.5 -122t26.5 -122t74 -86.5
t108.5 -31.5q60 0 108 32t75 86.5t27 121.5t-27 121.5zM233 771.5q-14 11.5 -14 38.5v18q0 28 15 39t46 11q33 0 47.5 -11.5t14.5 -38.5v-18q0 -28 -14.5 -39t-48.5 -11q-32 0 -46 11.5zM432 771.5q-14 11.5 -14 38.5v18q0 28 14.5 39t45.5 11q34 0 48.5 -11t14.5 -39v-18
q0 -28 -14.5 -39t-48.5 -11q-32 0 -46 11.5z" />
    <glyph glyph-name="uni022A" unicode="&#x22a;" horiz-adv-x="759" 
d="M675 168.5q-44 -82.5 -121.5 -130.5t-174.5 -48t-174.5 48t-121 130.5t-43.5 181.5t43.5 181.5t121 130.5t174.5 48t174.5 -48t121.5 -130.5t44 -181.5t-44 -181.5zM562 471.5q-27 54.5 -75 86.5t-108 32q-61 0 -108.5 -31.5t-74 -86.5t-26.5 -122t26.5 -122t74 -86.5
t108.5 -31.5q60 0 108 32t75 86.5t27 121.5t-27 121.5zM233 771.5q-14 11.5 -14 38.5v18q0 28 15 39t46 11q33 0 47.5 -11.5t14.5 -38.5v-18q0 -28 -14.5 -39t-48.5 -11q-32 0 -46 11.5zM432 771.5q-14 11.5 -14 38.5v18q0 28 14.5 39t45.5 11q34 0 48.5 -11t14.5 -39v-18
q0 -28 -14.5 -39t-48.5 -11q-32 0 -46 11.5zM222 959.5q-13 11.5 -13 33.5q0 21 13 32.5t37 11.5h242q24 0 37 -11.5t13 -32.5q0 -45 -50 -45h-242q-24 0 -37 11.5z" />
    <glyph glyph-name="uni0230" unicode="&#x230;" horiz-adv-x="759" 
d="M675 168.5q-44 -82.5 -121.5 -130.5t-174.5 -48t-174.5 48t-121 130.5t-43.5 181.5t43.5 181.5t121 130.5t174.5 48t174.5 -48t121.5 -130.5t44 -181.5t-44 -181.5zM562 471.5q-27 54.5 -75 86.5t-108 32q-61 0 -108.5 -31.5t-74 -86.5t-26.5 -122t26.5 -122t74 -86.5
t108.5 -31.5q60 0 108 32t75 86.5t27 121.5t-27 121.5zM331 751q-14 11 -14 39v19q0 28 14.5 39t47.5 11q36 0 50 -11t14 -39v-19q0 -29 -15 -39.5t-50 -10.5q-33 0 -47 11zM222 960.5q-13 11.5 -13 33.5q0 21 13 32.5t37 11.5h242q24 0 37 -11.5t13 -32.5q0 -45 -50 -45
h-242q-24 0 -37 11.5z" />
    <glyph glyph-name="uni1ECC" unicode="&#x1ecc;" horiz-adv-x="759" 
d="M675 168.5q-44 -82.5 -121.5 -130.5t-174.5 -48t-174.5 48t-121 130.5t-43.5 181.5t43.5 181.5t121 130.5t174.5 48t174.5 -48t121.5 -130.5t44 -181.5t-44 -181.5zM562 471.5q-27 54.5 -75 86.5t-108 32q-61 0 -108.5 -31.5t-74 -86.5t-26.5 -122t26.5 -122t74 -86.5
t108.5 -31.5q60 0 108 32t75 86.5t27 121.5t-27 121.5zM331 -136q-14 11 -14 39v19q0 28 15 39t46 11q37 0 51 -11t14 -39v-19q0 -29 -15 -39.5t-50 -10.5q-33 0 -47 11z" />
    <glyph glyph-name="Ograve" unicode="&#xd2;" horiz-adv-x="759" 
d="M675 168.5q-44 -82.5 -121.5 -130.5t-174.5 -48t-174.5 48t-121 130.5t-43.5 181.5t43.5 181.5t121 130.5t174.5 48t174.5 -48t121.5 -130.5t44 -181.5t-44 -181.5zM562 471.5q-27 54.5 -75 86.5t-108 32q-61 0 -108.5 -31.5t-74 -86.5t-26.5 -122t26.5 -122t74 -86.5
t108.5 -31.5q60 0 108 32t75 86.5t27 121.5t-27 121.5zM355 748l-100 53q-18 10 -27.5 24t-9.5 29q0 21 17 35t36 14q23 0 49 -22l86 -76q14 -13 14 -27q0 -16 -11.5 -26t-30.5 -10q-11 0 -23 6z" />
    <glyph glyph-name="uni1ECE" unicode="&#x1ece;" horiz-adv-x="759" 
d="M675 168.5q-44 -82.5 -121.5 -130.5t-174.5 -48t-174.5 48t-121 130.5t-43.5 181.5t43.5 181.5t121 130.5t174.5 48t174.5 -48t121.5 -130.5t44 -181.5t-44 -181.5zM562 471.5q-27 54.5 -75 86.5t-108 32q-61 0 -108.5 -31.5t-74 -86.5t-26.5 -122t26.5 -122t74 -86.5
t108.5 -31.5q60 0 108 32t75 86.5t27 121.5t-27 121.5zM319 949.5q18 7.5 43 7.5q56 0 79.5 -26.5t23.5 -60.5q0 -16 -4.5 -28.5t-14.5 -25.5q-2 -3 -9.5 -12t-11 -15t-3.5 -11q0 -12 -11 -17.5t-29 -5.5q-11 0 -19.5 5.5t-8.5 17.5q0 18 16 39q23 31 23 43t-10 19.5
t-24 7.5q-11 0 -20 -4.5t-22 -12.5q-10 -6 -16 -6q-12 0 -25 13q-9 9 -9 21q0 16 16 30q18 14 36 21.5z" />
    <glyph glyph-name="Ohorn" unicode="&#x1a0;" horiz-adv-x="759" 
d="M684 513.5q35 -75.5 35 -163.5q0 -99 -44 -181.5t-121.5 -130.5t-174.5 -48t-174.5 48t-121 130.5t-43.5 181.5t43.5 181.5t121 130.5t174.5 48q48 0 92 -12q67 7 67 61q0 20 13.5 36.5t37.5 16.5q25 0 37 -16.5t12 -36.5q0 -36 -12.5 -67.5t-38.5 -53.5
q62 -49 97 -124.5zM487 142q48 32 75 86.5t27 121.5t-27 121.5t-75 86.5t-108 32q-61 0 -108.5 -31.5t-74 -86.5t-26.5 -122t26.5 -122t74 -86.5t108.5 -31.5q60 0 108 32z" />
    <glyph glyph-name="uni1EDA" unicode="&#x1eda;" horiz-adv-x="759" 
d="M684 513.5q35 -75.5 35 -163.5q0 -99 -44 -181.5t-121.5 -130.5t-174.5 -48t-174.5 48t-121 130.5t-43.5 181.5t43.5 181.5t121 130.5t174.5 48q48 0 92 -12q67 7 67 61q0 20 13.5 36.5t37.5 16.5q25 0 37 -16.5t12 -36.5q0 -36 -12.5 -67.5t-38.5 -53.5
q62 -49 97 -124.5zM487 142q48 32 75 86.5t27 121.5t-27 121.5t-75 86.5t-108 32q-61 0 -108.5 -31.5t-74 -86.5t-26.5 -122t26.5 -122t74 -86.5t108.5 -31.5q60 0 108 32zM350.5 748q-11.5 10 -11.5 26q0 14 14 27l86 76q26 22 49 22q19 0 36 -14t17 -35q0 -15 -9.5 -29.5
t-27.5 -23.5l-100 -53q-10 -6 -23 -6q-19 0 -30.5 10z" />
    <glyph glyph-name="uni1EE2" unicode="&#x1ee2;" horiz-adv-x="759" 
d="M684 513.5q35 -75.5 35 -163.5q0 -99 -44 -181.5t-121.5 -130.5t-174.5 -48t-174.5 48t-121 130.5t-43.5 181.5t43.5 181.5t121 130.5t174.5 48q48 0 92 -12q67 7 67 61q0 20 13.5 36.5t37.5 16.5q25 0 37 -16.5t12 -36.5q0 -36 -12.5 -67.5t-38.5 -53.5
q62 -49 97 -124.5zM487 142q48 32 75 86.5t27 121.5t-27 121.5t-75 86.5t-108 32q-61 0 -108.5 -31.5t-74 -86.5t-26.5 -122t26.5 -122t74 -86.5t108.5 -31.5q60 0 108 32zM331 -136q-14 11 -14 39v19q0 28 15 39t46 11q37 0 51 -11t14 -39v-19q0 -29 -15 -39.5t-50 -10.5
q-33 0 -47 11z" />
    <glyph glyph-name="uni1EDC" unicode="&#x1edc;" horiz-adv-x="759" 
d="M684 513.5q35 -75.5 35 -163.5q0 -99 -44 -181.5t-121.5 -130.5t-174.5 -48t-174.5 48t-121 130.5t-43.5 181.5t43.5 181.5t121 130.5t174.5 48q48 0 92 -12q67 7 67 61q0 20 13.5 36.5t37.5 16.5q25 0 37 -16.5t12 -36.5q0 -36 -12.5 -67.5t-38.5 -53.5
q62 -49 97 -124.5zM487 142q48 32 75 86.5t27 121.5t-27 121.5t-75 86.5t-108 32q-61 0 -108.5 -31.5t-74 -86.5t-26.5 -122t26.5 -122t74 -86.5t108.5 -31.5q60 0 108 32zM355 748l-100 53q-18 10 -27.5 24t-9.5 29q0 21 17 35t36 14q23 0 49 -22l86 -76q14 -13 14 -27
q0 -16 -11.5 -26t-30.5 -10q-11 0 -23 6z" />
    <glyph glyph-name="uni1EDE" unicode="&#x1ede;" horiz-adv-x="759" 
d="M684 513.5q35 -75.5 35 -163.5q0 -99 -44 -181.5t-121.5 -130.5t-174.5 -48t-174.5 48t-121 130.5t-43.5 181.5t43.5 181.5t121 130.5t174.5 48q48 0 92 -12q67 7 67 61q0 20 13.5 36.5t37.5 16.5q25 0 37 -16.5t12 -36.5q0 -36 -12.5 -67.5t-38.5 -53.5
q62 -49 97 -124.5zM487 142q48 32 75 86.5t27 121.5t-27 121.5t-75 86.5t-108 32q-61 0 -108.5 -31.5t-74 -86.5t-26.5 -122t26.5 -122t74 -86.5t108.5 -31.5q60 0 108 32zM319 949.5q18 7.5 43 7.5q56 0 79.5 -26.5t23.5 -60.5q0 -16 -4.5 -28.5t-14.5 -25.5
q-2 -3 -9.5 -12t-11 -15t-3.5 -11q0 -12 -11 -17.5t-29 -5.5q-11 0 -19.5 5.5t-8.5 17.5q0 18 16 39q23 31 23 43t-10 19.5t-24 7.5q-11 0 -20 -4.5t-22 -12.5q-10 -6 -16 -6q-12 0 -25 13q-9 9 -9 21q0 16 16 30q18 14 36 21.5z" />
    <glyph glyph-name="uni1EE0" unicode="&#x1ee0;" horiz-adv-x="759" 
d="M684 513.5q35 -75.5 35 -163.5q0 -99 -44 -181.5t-121.5 -130.5t-174.5 -48t-174.5 48t-121 130.5t-43.5 181.5t43.5 181.5t121 130.5t174.5 48q48 0 92 -12q67 7 67 61q0 20 13.5 36.5t37.5 16.5q25 0 37 -16.5t12 -36.5q0 -36 -12.5 -67.5t-38.5 -53.5
q62 -49 97 -124.5zM487 142q48 32 75 86.5t27 121.5t-27 121.5t-75 86.5t-108 32q-61 0 -108.5 -31.5t-74 -86.5t-26.5 -122t26.5 -122t74 -86.5t108.5 -31.5q60 0 108 32zM188 771.5q-16 19.5 -16 51.5q0 34 30 61t81 27q26 0 49 -10t54 -28q21 -12 33.5 -18t22.5 -6
q11 0 17 6t3 15q-2 5 -2 14q0 16 10.5 25.5t26.5 9.5q23 0 39 -19.5t16 -49.5q0 -19 -11 -40t-32.5 -35.5t-51.5 -14.5q-29 0 -54 10t-63 29q-22 12 -35 17.5t-23 5.5q-11 0 -17 -6t-3 -15q2 -5 2 -14q0 -16 -10.5 -25.5t-26.5 -9.5q-23 0 -39 19.5z" />
    <glyph glyph-name="Ohungarumlaut" unicode="&#x150;" horiz-adv-x="759" 
d="M675 168.5q-44 -82.5 -121.5 -130.5t-174.5 -48t-174.5 48t-121 130.5t-43.5 181.5t43.5 181.5t121 130.5t174.5 48t174.5 -48t121.5 -130.5t44 -181.5t-44 -181.5zM562 471.5q-27 54.5 -75 86.5t-108 32q-61 0 -108.5 -31.5t-74 -86.5t-26.5 -122t26.5 -122t74 -86.5
t108.5 -31.5q60 0 108 32t75 86.5t27 121.5t-27 121.5zM267 786.5q-7 6.5 -7 18.5q0 16 12 35l41 64q19 31 48 31q22 0 39 -14.5t17 -34.5q0 -17 -18 -34l-49 -47q-14 -14 -28.5 -19.5t-33.5 -5.5q-14 0 -21 6.5zM442 804q0 16 13 36l42 65q9 13 19.5 19.5t27.5 6.5
q21 0 38.5 -10.5t17.5 -31.5q0 -20 -18 -37l-50 -47q-14 -14 -28.5 -19.5t-33.5 -5.5q-28 0 -28 24z" />
    <glyph glyph-name="uni020E" unicode="&#x20e;" horiz-adv-x="759" 
d="M675 168.5q-44 -82.5 -121.5 -130.5t-174.5 -48t-174.5 48t-121 130.5t-43.5 181.5t43.5 181.5t121 130.5t174.5 48t174.5 -48t121.5 -130.5t44 -181.5t-44 -181.5zM562 471.5q-27 54.5 -75 86.5t-108 32q-61 0 -108.5 -31.5t-74 -86.5t-26.5 -122t26.5 -122t74 -86.5
t108.5 -31.5q60 0 108 32t75 86.5t27 121.5t-27 121.5zM478.5 904q41.5 -24 59.5 -69q5 -13 5 -22q0 -15 -9.5 -24t-24.5 -9q-20 0 -32.5 8.5t-27.5 27.5q-24 27 -69 27t-69 -27q-15 -19 -27.5 -27.5t-32.5 -8.5q-15 0 -24.5 8.5t-9.5 23.5q0 10 4 21q19 46 60.5 70.5
t98.5 24.5t98.5 -24z" />
    <glyph glyph-name="Omacron" unicode="&#x14c;" horiz-adv-x="759" 
d="M675 168.5q-44 -82.5 -121.5 -130.5t-174.5 -48t-174.5 48t-121 130.5t-43.5 181.5t43.5 181.5t121 130.5t174.5 48t174.5 -48t121.5 -130.5t44 -181.5t-44 -181.5zM562 471.5q-27 54.5 -75 86.5t-108 32q-61 0 -108.5 -31.5t-74 -86.5t-26.5 -122t26.5 -122t74 -86.5
t108.5 -31.5q60 0 108 32t75 86.5t27 121.5t-27 121.5zM222 761.5q-13 11.5 -13 33.5q0 21 13 32.5t37 11.5h242q24 0 37 -11.5t13 -32.5q0 -45 -50 -45h-242q-24 0 -37 11.5z" />
    <glyph glyph-name="uni1E52" unicode="&#x1e52;" horiz-adv-x="759" 
d="M675 168.5q-44 -82.5 -121.5 -130.5t-174.5 -48t-174.5 48t-121 130.5t-43.5 181.5t43.5 181.5t121 130.5t174.5 48t174.5 -48t121.5 -130.5t44 -181.5t-44 -181.5zM562 471.5q-27 54.5 -75 86.5t-108 32q-61 0 -108.5 -31.5t-74 -86.5t-26.5 -122t26.5 -122t74 -86.5
t108.5 -31.5q60 0 108 32t75 86.5t27 121.5t-27 121.5zM222 761.5q-13 11.5 -13 33.5q0 21 13 32.5t37 11.5h242q24 0 37 -11.5t13 -32.5q0 -45 -50 -45h-242q-24 0 -37 11.5zM350.5 917q-11.5 10 -11.5 26q0 14 14 27l86 76q26 22 49 22q19 0 36 -14t17 -35
q0 -15 -9.5 -29.5t-27.5 -23.5l-100 -53q-10 -6 -23 -6q-19 0 -30.5 10z" />
    <glyph glyph-name="uni1E50" unicode="&#x1e50;" horiz-adv-x="759" 
d="M675 168.5q-44 -82.5 -121.5 -130.5t-174.5 -48t-174.5 48t-121 130.5t-43.5 181.5t43.5 181.5t121 130.5t174.5 48t174.5 -48t121.5 -130.5t44 -181.5t-44 -181.5zM562 471.5q-27 54.5 -75 86.5t-108 32q-61 0 -108.5 -31.5t-74 -86.5t-26.5 -122t26.5 -122t74 -86.5
t108.5 -31.5q60 0 108 32t75 86.5t27 121.5t-27 121.5zM222 761.5q-13 11.5 -13 33.5q0 21 13 32.5t37 11.5h242q24 0 37 -11.5t13 -32.5q0 -45 -50 -45h-242q-24 0 -37 11.5zM355 917l-100 53q-18 10 -27.5 24t-9.5 29q0 21 17 35t36 14q23 0 49 -22l86 -76q14 -13 14 -27
q0 -16 -11.5 -26t-30.5 -10q-11 0 -23 6z" />
    <glyph glyph-name="uni01EA" unicode="&#x1ea;" horiz-adv-x="759" 
d="M387 -78q0 -17 9 -26.5t22 -9.5q12 0 21 12q13 18 41 18q19 0 31.5 -13t12.5 -35q0 -16 -16.5 -34t-43.5 -29.5t-56 -11.5q-53 0 -86.5 27t-33.5 80t35 95q-83 13 -147.5 63t-100 126.5t-35.5 165.5q0 99 43.5 181.5t121 130.5t174.5 48t174.5 -48t121.5 -130.5
t44 -181.5q0 -84 -32 -157t-90.5 -123.5t-134.5 -69.5q-75 -29 -75 -78zM196.5 228q26.5 -55 74 -86.5t108.5 -31.5q60 0 108 32t75 86.5t27 121.5t-27 121.5t-75 86.5t-108 32q-61 0 -108.5 -31.5t-74 -86.5t-26.5 -122t26.5 -122z" />
    <glyph glyph-name="Oslash" unicode="&#xd8;" horiz-adv-x="739" 
d="M695.5 486q23.5 -64 23.5 -136q0 -99 -44 -181.5t-121.5 -130.5t-174.5 -48q-54 0 -103.5 16t-90.5 45l-51 -62q-15 -20 -39 -20q-19 0 -35 15t-16 35q0 18 12 33l57 70q-35 47 -54 105.5t-19 122.5q0 99 43.5 181.5t121 130.5t174.5 48q95 0 173 -47l54 67q16 19 39 19
q20 0 35.5 -14.5t15.5 -34.5q0 -18 -12 -33l-55 -68q43 -49 66.5 -113zM197 226l276 340q-40 24 -94 24q-61 0 -108.5 -31.5t-74 -86.5t-26.5 -122t27 -124zM487 142q48 32 75 86.5t27 121.5q0 84 -42 148l-285 -351q53 -37 117 -37q60 0 108 32z" />
    <glyph glyph-name="Oslashacute" unicode="&#x1fe;" horiz-adv-x="739" 
d="M695.5 486q23.5 -64 23.5 -136q0 -99 -44 -181.5t-121.5 -130.5t-174.5 -48q-54 0 -103.5 16t-90.5 45l-51 -62q-15 -20 -39 -20q-19 0 -35 15t-16 35q0 18 12 33l57 70q-35 47 -54 105.5t-19 122.5q0 99 43.5 181.5t121 130.5t174.5 48q95 0 173 -47l54 67q16 19 39 19
q20 0 35.5 -14.5t15.5 -34.5q0 -18 -12 -33l-55 -68q43 -49 66.5 -113zM197 226l276 340q-40 24 -94 24q-61 0 -108.5 -31.5t-74 -86.5t-26.5 -122t27 -124zM487 142q48 32 75 86.5t27 121.5q0 84 -42 148l-285 -351q53 -37 117 -37q60 0 108 32zM340.5 748
q-11.5 10 -11.5 26q0 14 14 27l86 76q26 22 49 22q19 0 36 -14t17 -35q0 -15 -9.5 -29.5t-27.5 -23.5l-100 -53q-10 -6 -23 -6q-19 0 -30.5 10z" />
    <glyph glyph-name="Otilde" unicode="&#xd5;" horiz-adv-x="759" 
d="M675 168.5q-44 -82.5 -121.5 -130.5t-174.5 -48t-174.5 48t-121 130.5t-43.5 181.5t43.5 181.5t121 130.5t174.5 48t174.5 -48t121.5 -130.5t44 -181.5t-44 -181.5zM562 471.5q-27 54.5 -75 86.5t-108 32q-61 0 -108.5 -31.5t-74 -86.5t-26.5 -122t26.5 -122t74 -86.5
t108.5 -31.5q60 0 108 32t75 86.5t27 121.5t-27 121.5zM206 755.5q-16 19.5 -16 51.5q0 34 30 61t81 27q26 0 49 -10t54 -28q21 -12 33.5 -18t22.5 -6q11 0 17 6t3 15q-2 5 -2 14q0 16 10.5 25.5t26.5 9.5q23 0 39 -19.5t16 -49.5q0 -19 -11 -40t-32.5 -35.5t-51.5 -14.5
q-29 0 -54 10t-63 29q-22 12 -35 17.5t-23 5.5q-11 0 -17 -6t-3 -15q2 -5 2 -14q0 -16 -10.5 -25.5t-26.5 -9.5q-23 0 -39 19.5z" />
    <glyph glyph-name="uni1E4C" unicode="&#x1e4c;" horiz-adv-x="759" 
d="M675 168.5q-44 -82.5 -121.5 -130.5t-174.5 -48t-174.5 48t-121 130.5t-43.5 181.5t43.5 181.5t121 130.5t174.5 48t174.5 -48t121.5 -130.5t44 -181.5t-44 -181.5zM562 471.5q-27 54.5 -75 86.5t-108 32q-61 0 -108.5 -31.5t-74 -86.5t-26.5 -122t26.5 -122t74 -86.5
t108.5 -31.5q60 0 108 32t75 86.5t27 121.5t-27 121.5zM206 755.5q-16 19.5 -16 51.5q0 34 30 61t81 27q26 0 49 -10t54 -28q21 -12 33.5 -18t22.5 -6q11 0 17 6t3 15q-2 5 -2 14q0 16 10.5 25.5t26.5 9.5q23 0 39 -19.5t16 -49.5q0 -19 -11 -40t-32.5 -35.5t-51.5 -14.5
q-29 0 -54 10t-63 29q-22 12 -35 17.5t-23 5.5q-11 0 -17 -6t-3 -15q2 -5 2 -14q0 -16 -10.5 -25.5t-26.5 -9.5q-23 0 -39 19.5zM350.5 965q-11.5 10 -11.5 26q0 14 14 27l86 76q26 22 49 22q19 0 36 -14t17 -35q0 -15 -9.5 -29.5t-27.5 -23.5l-100 -53q-10 -6 -23 -6
q-19 0 -30.5 10z" />
    <glyph glyph-name="uni1E4E" unicode="&#x1e4e;" horiz-adv-x="759" 
d="M675 168.5q-44 -82.5 -121.5 -130.5t-174.5 -48t-174.5 48t-121 130.5t-43.5 181.5t43.5 181.5t121 130.5t174.5 48t174.5 -48t121.5 -130.5t44 -181.5t-44 -181.5zM562 471.5q-27 54.5 -75 86.5t-108 32q-61 0 -108.5 -31.5t-74 -86.5t-26.5 -122t26.5 -122t74 -86.5
t108.5 -31.5q60 0 108 32t75 86.5t27 121.5t-27 121.5zM206 755.5q-16 19.5 -16 51.5q0 34 30 61t81 27q26 0 49 -10t54 -28q21 -12 33.5 -18t22.5 -6q11 0 17 6t3 15q-2 5 -2 14q0 16 10.5 25.5t26.5 9.5q23 0 39 -19.5t16 -49.5q0 -19 -11 -40t-32.5 -35.5t-51.5 -14.5
q-29 0 -54 10t-63 29q-22 12 -35 17.5t-23 5.5q-11 0 -17 -6t-3 -15q2 -5 2 -14q0 -16 -10.5 -25.5t-26.5 -9.5q-23 0 -39 19.5zM233 988.5q-14 11.5 -14 38.5v18q0 28 15 39t46 11q33 0 47.5 -11.5t14.5 -38.5v-18q0 -28 -14.5 -39t-48.5 -11q-32 0 -46 11.5zM432 988.5
q-14 11.5 -14 38.5v18q0 28 14.5 39t45.5 11q34 0 48.5 -11t14.5 -39v-18q0 -28 -14.5 -39t-48.5 -11q-32 0 -46 11.5z" />
    <glyph glyph-name="uni022C" unicode="&#x22c;" horiz-adv-x="759" 
d="M675 168.5q-44 -82.5 -121.5 -130.5t-174.5 -48t-174.5 48t-121 130.5t-43.5 181.5t43.5 181.5t121 130.5t174.5 48t174.5 -48t121.5 -130.5t44 -181.5t-44 -181.5zM562 471.5q-27 54.5 -75 86.5t-108 32q-61 0 -108.5 -31.5t-74 -86.5t-26.5 -122t26.5 -122t74 -86.5
t108.5 -31.5q60 0 108 32t75 86.5t27 121.5t-27 121.5zM206 755.5q-16 19.5 -16 51.5q0 34 30 61t81 27q26 0 49 -10t54 -28q21 -12 33.5 -18t22.5 -6q11 0 17 6t3 15q-2 5 -2 14q0 16 10.5 25.5t26.5 9.5q23 0 39 -19.5t16 -49.5q0 -19 -11 -40t-32.5 -35.5t-51.5 -14.5
q-29 0 -54 10t-63 29q-22 12 -35 17.5t-23 5.5q-11 0 -17 -6t-3 -15q2 -5 2 -14q0 -16 -10.5 -25.5t-26.5 -9.5q-23 0 -39 19.5zM222 978.5q-13 11.5 -13 33.5q0 21 13 32.5t37 11.5h242q24 0 37 -11.5t13 -32.5q0 -45 -50 -45h-242q-24 0 -37 11.5z" />
    <glyph glyph-name="OE" unicode="&#x152;" horiz-adv-x="967" 
d="M909.5 102.5q17.5 -17.5 17.5 -43.5q0 -25 -17.5 -42t-43.5 -17h-526q-94 0 -161.5 46.5t-103 126t-35.5 177.5t35.5 177.5t103 126t161.5 46.5h526q26 0 43.5 -17.5t17.5 -43.5q0 -25 -17.5 -42t-43.5 -17h-266v-176h221q26 0 43.5 -17.5t17.5 -43.5q0 -25 -17.5 -42
t-43.5 -17h-221v-164h266q26 0 43.5 -17.5zM205 184q45 -64 135 -64h140v460h-140q-90 0 -135 -64.5t-45 -165.5q0 -102 45 -166z" />
    <glyph glyph-name="P" unicode="P" horiz-adv-x="603" 
d="M461 669.5q46 -30.5 74 -82t28 -112.5q0 -60 -28 -112t-74 -82.5t-97 -30.5h-174v-189q0 -27 -16 -44t-42 -17q-25 0 -41 17.5t-16 43.5v578q0 26 17.5 43.5t43.5 17.5h228q51 0 97 -30.5zM401.5 380q18.5 16 30 41.5t11.5 53.5t-11.5 53.5t-30 41t-37.5 15.5h-174v-221
h174q19 0 37.5 16z" />
    <glyph glyph-name="Thorn" unicode="&#xde;" horiz-adv-x="603" 
d="M461 579.5q46 -30.5 74 -82t28 -112.5q0 -60 -28 -112t-74 -82.5t-97 -30.5h-169v-99q0 -26 -17.5 -43.5t-43.5 -17.5t-42.5 17.5t-16.5 43.5v618q0 26 17.5 43.5t43.5 17.5t42.5 -17.5t16.5 -43.5v-69h169q51 0 97 -30.5zM401.5 294.5q18.5 14.5 30 38.5t11.5 52
t-11.5 52t-30 38.5t-37.5 14.5h-169v-210h169q19 0 37.5 14.5z" />
    <glyph glyph-name="Q" unicode="Q" horiz-adv-x="755" 
d="M762 -46q18 -18 18 -40q0 -29 -33.5 -55.5t-82 -42.5t-86.5 -16q-64 0 -101.5 12.5t-75.5 34.5q-25 15 -41 21.5t-38 6.5q-12 0 -20 -3t-21 -9q-13 -7 -24 -10.5t-28 -3.5q-24 0 -41.5 18.5t-17.5 41.5q0 39 35 52l99 37q-78 17 -138 67.5t-93 124.5t-33 160
q0 99 43.5 181.5t121 130.5t174.5 48t174.5 -48t121.5 -130.5t44 -181.5q0 -86 -33.5 -160t-94 -124.5t-138.5 -67.5l-61 -23q23 -3 42.5 -11t44.5 -22q31 -17 54 -25t52 -8q25 0 43 7.5t35 21.5l18 14.5t22 14.5t20 5q21 0 39 -18zM196.5 228q26.5 -55 74 -86.5
t108.5 -31.5q60 0 108 32t75 86.5t27 121.5t-27 121.5t-75 86.5t-108 32q-61 0 -108.5 -31.5t-74 -86.5t-26.5 -122t26.5 -122z" />
    <glyph glyph-name="R" unicode="R" horiz-adv-x="687" 
d="M644.5 77q7.5 -13 7.5 -27q0 -18 -12 -33q-15 -18 -46 -18q-24 0 -44 11q-72 41 -72 167q0 36 -23.5 57t-67.5 21h-187v-194q0 -27 -14.5 -44t-38.5 -17q-29 0 -50.5 17.5t-21.5 43.5v578q0 26 17.5 43.5t43.5 17.5h288q52 0 98 -28t73.5 -77t27.5 -110q0 -50 -27 -97.5
t-70 -75.5q63 -44 69 -118q3 -16 3 -31q4 -31 8 -44.5t18 -20.5q13 -8 20.5 -21zM454 375q17 17 28 45.5t11 61.5q0 28 -11 51.5t-28 37.5t-35 14h-219v-227h219q18 0 35 17z" />
    <glyph glyph-name="Racute" unicode="&#x154;" horiz-adv-x="687" 
d="M644.5 77q7.5 -13 7.5 -27q0 -18 -12 -33q-15 -18 -46 -18q-24 0 -44 11q-72 41 -72 167q0 36 -23.5 57t-67.5 21h-187v-194q0 -27 -14.5 -44t-38.5 -17q-29 0 -50.5 17.5t-21.5 43.5v578q0 26 17.5 43.5t43.5 17.5h288q52 0 98 -28t73.5 -77t27.5 -110q0 -50 -27 -97.5
t-70 -75.5q63 -44 69 -118q3 -16 3 -31q4 -31 8 -44.5t18 -20.5q13 -8 20.5 -21zM454 375q17 17 28 45.5t11 61.5q0 28 -11 51.5t-28 37.5t-35 14h-219v-227h219q18 0 35 17zM314.5 748q-11.5 10 -11.5 26q0 14 14 27l86 76q26 22 49 22q19 0 36 -14t17 -35
q0 -15 -9.5 -29.5t-27.5 -23.5l-100 -53q-10 -6 -23 -6q-19 0 -30.5 10z" />
    <glyph glyph-name="Rcaron" unicode="&#x158;" horiz-adv-x="687" 
d="M644.5 77q7.5 -13 7.5 -27q0 -18 -12 -33q-15 -18 -46 -18q-24 0 -44 11q-72 41 -72 167q0 36 -23.5 57t-67.5 21h-187v-194q0 -27 -14.5 -44t-38.5 -17q-29 0 -50.5 17.5t-21.5 43.5v578q0 26 17.5 43.5t43.5 17.5h288q52 0 98 -28t73.5 -77t27.5 -110q0 -50 -27 -97.5
t-70 -75.5q63 -44 69 -118q3 -16 3 -31q4 -31 8 -44.5t18 -20.5q13 -8 20.5 -21zM454 375q17 17 28 45.5t11 61.5q0 28 -11 51.5t-28 37.5t-35 14h-219v-227h219q18 0 35 17zM483 888q9 -8 9 -17q0 -7 -3 -13t-12 -17l-63 -72q-13 -15 -27.5 -22t-33.5 -7h-16q-20 0 -34 7
t-27 22l-63 72q-9 11 -12 17t-3 13q0 9 9 17t22 8q20 0 51 -20l65 -42l65 42q31 20 51 20q13 0 22 -8z" />
    <glyph glyph-name="Rcommaaccent" unicode="&#x156;" horiz-adv-x="687" 
d="M644.5 77q7.5 -13 7.5 -27q0 -18 -12 -33q-15 -18 -46 -18q-24 0 -44 11q-72 41 -72 167q0 36 -23.5 57t-67.5 21h-187v-194q0 -27 -14.5 -44t-38.5 -17q-29 0 -50.5 17.5t-21.5 43.5v578q0 26 17.5 43.5t43.5 17.5h288q52 0 98 -28t73.5 -77t27.5 -110q0 -50 -27 -97.5
t-70 -75.5q63 -44 69 -118q3 -16 3 -31q4 -31 8 -44.5t18 -20.5q13 -8 20.5 -21zM454 375q17 17 28 45.5t11 61.5q0 28 -11 51.5t-28 37.5t-35 14h-219v-227h219q18 0 35 17zM414 -148q-14 -22 -37.5 -36t-50.5 -14q-23 0 -35.5 10t-12.5 22t6.5 17.5t14.5 5.5
q5 0 14.5 -2.5t15.5 -2.5q11 0 18 7.5t7 20.5t-10 13q-4 0 -10 -4.5t-17 -4.5q-16 0 -26 11t-10 30q0 23 18.5 35t49.5 12q35 0 57 -20.5t22 -55.5q0 -22 -14 -44z" />
    <glyph glyph-name="uni0210" unicode="&#x210;" horiz-adv-x="687" 
d="M644.5 77q7.5 -13 7.5 -27q0 -18 -12 -33q-15 -18 -46 -18q-24 0 -44 11q-72 41 -72 167q0 36 -23.5 57t-67.5 21h-187v-194q0 -27 -14.5 -44t-38.5 -17q-29 0 -50.5 17.5t-21.5 43.5v578q0 26 17.5 43.5t43.5 17.5h288q52 0 98 -28t73.5 -77t27.5 -110q0 -50 -27 -97.5
t-70 -75.5q63 -44 69 -118q3 -16 3 -31q4 -31 8 -44.5t18 -20.5q13 -8 20.5 -21zM454 375q17 17 28 45.5t11 61.5q0 28 -11 51.5t-28 37.5t-35 14h-219v-227h219q18 0 35 17zM427 768l-100 53q-18 10 -27.5 24t-9.5 29q0 21 17 35t36 14q23 0 49 -22l86 -76q14 -13 14 -27
q0 -16 -11.5 -26t-30.5 -10q-11 0 -23 6zM221 758l-100 53q-18 10 -27.5 24t-9.5 29q0 21 17 35t36 14q23 0 49 -22l86 -76q14 -13 14 -27q0 -16 -11.5 -26t-30.5 -10q-11 0 -23 6z" />
    <glyph glyph-name="uni1E5A" unicode="&#x1e5a;" horiz-adv-x="687" 
d="M644.5 77q7.5 -13 7.5 -27q0 -18 -12 -33q-15 -18 -46 -18q-24 0 -44 11q-72 41 -72 167q0 36 -23.5 57t-67.5 21h-187v-194q0 -27 -14.5 -44t-38.5 -17q-29 0 -50.5 17.5t-21.5 43.5v578q0 26 17.5 43.5t43.5 17.5h288q52 0 98 -28t73.5 -77t27.5 -110q0 -50 -27 -97.5
t-70 -75.5q63 -44 69 -118q3 -16 3 -31q4 -31 8 -44.5t18 -20.5q13 -8 20.5 -21zM454 375q17 17 28 45.5t11 61.5q0 28 -11 51.5t-28 37.5t-35 14h-219v-227h219q18 0 35 17zM295 -136q-14 11 -14 39v19q0 28 15 39t46 11q37 0 51 -11t14 -39v-19q0 -29 -15 -39.5t-50 -10.5
q-33 0 -47 11z" />
    <glyph glyph-name="uni0212" unicode="&#x212;" horiz-adv-x="687" 
d="M644.5 77q7.5 -13 7.5 -27q0 -18 -12 -33q-15 -18 -46 -18q-24 0 -44 11q-72 41 -72 167q0 36 -23.5 57t-67.5 21h-187v-194q0 -27 -14.5 -44t-38.5 -17q-29 0 -50.5 17.5t-21.5 43.5v578q0 26 17.5 43.5t43.5 17.5h288q52 0 98 -28t73.5 -77t27.5 -110q0 -50 -27 -97.5
t-70 -75.5q63 -44 69 -118q3 -16 3 -31q4 -31 8 -44.5t18 -20.5q13 -8 20.5 -21zM454 375q17 17 28 45.5t11 61.5q0 28 -11 51.5t-28 37.5t-35 14h-219v-227h219q18 0 35 17zM442.5 904q41.5 -24 59.5 -69q5 -13 5 -22q0 -15 -9.5 -24t-24.5 -9q-20 0 -32.5 8.5t-27.5 27.5
q-24 27 -69 27t-69 -27q-15 -19 -27.5 -27.5t-32.5 -8.5q-15 0 -24.5 8.5t-9.5 23.5q0 10 4 21q19 46 60.5 70.5t98.5 24.5t98.5 -24z" />
    <glyph glyph-name="uni1E5E" unicode="&#x1e5e;" horiz-adv-x="687" 
d="M644.5 77q7.5 -13 7.5 -27q0 -18 -12 -33q-15 -18 -46 -18q-24 0 -44 11q-72 41 -72 167q0 36 -23.5 57t-67.5 21h-187v-194q0 -27 -14.5 -44t-38.5 -17q-29 0 -50.5 17.5t-21.5 43.5v578q0 26 17.5 43.5t43.5 17.5h288q52 0 98 -28t73.5 -77t27.5 -110q0 -50 -27 -97.5
t-70 -75.5q63 -44 69 -118q3 -16 3 -31q4 -31 8 -44.5t18 -20.5q13 -8 20.5 -21zM454 375q17 17 28 45.5t11 61.5q0 28 -11 51.5t-28 37.5t-35 14h-219v-227h219q18 0 35 17zM196 -140.5q-13 11.5 -13 33.5q0 21 13 32.5t37 11.5h242q24 0 37 -11.5t13 -32.5q0 -45 -50 -45
h-242q-24 0 -37 11.5z" />
    <glyph glyph-name="S" unicode="S" horiz-adv-x="597" 
d="M172 8q-56 18 -105 61q-27 24 -27 53q0 23 17 40.5t41 17.5q19 0 34 -12q40 -33 78 -48t90 -15q56 0 96.5 25t40.5 62q0 45 -40 70.5t-127 38.5q-219 32 -219 204q0 63 33 109.5t90 71t127 24.5q63 0 118.5 -19t92.5 -50q29 -23 29 -53q0 -23 -17 -40.5t-40 -17.5
q-15 0 -27 9q-26 21 -72.5 38.5t-83.5 17.5q-63 0 -97.5 -23.5t-34.5 -61.5q0 -43 35.5 -65t111.5 -36q86 -15 137.5 -38.5t77.5 -64t26 -107.5q0 -63 -35.5 -110.5t-94.5 -73t-127 -25.5q-72 0 -128 18z" />
    <glyph glyph-name="Sacute" unicode="&#x15a;" horiz-adv-x="597" 
d="M172 8q-56 18 -105 61q-27 24 -27 53q0 23 17 40.5t41 17.5q19 0 34 -12q40 -33 78 -48t90 -15q56 0 96.5 25t40.5 62q0 45 -40 70.5t-127 38.5q-219 32 -219 204q0 63 33 109.5t90 71t127 24.5q63 0 118.5 -19t92.5 -50q29 -23 29 -53q0 -23 -17 -40.5t-40 -17.5
q-15 0 -27 9q-26 21 -72.5 38.5t-83.5 17.5q-63 0 -97.5 -23.5t-34.5 -61.5q0 -43 35.5 -65t111.5 -36q86 -15 137.5 -38.5t77.5 -64t26 -107.5q0 -63 -35.5 -110.5t-94.5 -73t-127 -25.5q-72 0 -128 18zM269.5 748q-11.5 10 -11.5 26q0 14 14 27l86 76q26 22 49 22
q19 0 36 -14t17 -35q0 -15 -9.5 -29.5t-27.5 -23.5l-100 -53q-10 -6 -23 -6q-19 0 -30.5 10z" />
    <glyph glyph-name="uni1E64" unicode="&#x1e64;" horiz-adv-x="597" 
d="M172 8q-56 18 -105 61q-27 24 -27 53q0 23 17 40.5t41 17.5q19 0 34 -12q40 -33 78 -48t90 -15q56 0 96.5 25t40.5 62q0 45 -40 70.5t-127 38.5q-219 32 -219 204q0 63 33 109.5t90 71t127 24.5q63 0 118.5 -19t92.5 -50q29 -23 29 -53q0 -23 -17 -40.5t-40 -17.5
q-15 0 -27 9q-26 21 -72.5 38.5t-83.5 17.5q-63 0 -97.5 -23.5t-34.5 -61.5q0 -43 35.5 -65t111.5 -36q86 -15 137.5 -38.5t77.5 -64t26 -107.5q0 -63 -35.5 -110.5t-94.5 -73t-127 -25.5q-72 0 -128 18zM269.5 748q-11.5 10 -11.5 26q0 14 14 27l86 76q26 22 49 22
q19 0 36 -14t17 -35q0 -15 -9.5 -29.5t-27.5 -23.5l-100 -53q-10 -6 -23 -6q-19 0 -30.5 10zM301 942q-14 11 -14 39v19q0 28 14.5 39t47.5 11q36 0 50 -11t14 -39v-19q0 -29 -15 -39.5t-50 -10.5q-33 0 -47 11z" />
    <glyph glyph-name="Scaron" unicode="&#x160;" horiz-adv-x="597" 
d="M172 8q-56 18 -105 61q-27 24 -27 53q0 23 17 40.5t41 17.5q19 0 34 -12q40 -33 78 -48t90 -15q56 0 96.5 25t40.5 62q0 45 -40 70.5t-127 38.5q-219 32 -219 204q0 63 33 109.5t90 71t127 24.5q63 0 118.5 -19t92.5 -50q29 -23 29 -53q0 -23 -17 -40.5t-40 -17.5
q-15 0 -27 9q-26 21 -72.5 38.5t-83.5 17.5q-63 0 -97.5 -23.5t-34.5 -61.5q0 -43 35.5 -65t111.5 -36q86 -15 137.5 -38.5t77.5 -64t26 -107.5q0 -63 -35.5 -110.5t-94.5 -73t-127 -25.5q-72 0 -128 18zM438 888q9 -8 9 -17q0 -7 -3 -13t-12 -17l-63 -72q-13 -15 -27.5 -22
t-33.5 -7h-16q-20 0 -34 7t-27 22l-63 72q-9 11 -12 17t-3 13q0 9 9 17t22 8q20 0 51 -20l65 -42l65 42q31 20 51 20q13 0 22 -8z" />
    <glyph glyph-name="uni1E66" unicode="&#x1e66;" horiz-adv-x="597" 
d="M172 8q-56 18 -105 61q-27 24 -27 53q0 23 17 40.5t41 17.5q19 0 34 -12q40 -33 78 -48t90 -15q56 0 96.5 25t40.5 62q0 45 -40 70.5t-127 38.5q-219 32 -219 204q0 63 33 109.5t90 71t127 24.5q63 0 118.5 -19t92.5 -50q29 -23 29 -53q0 -23 -17 -40.5t-40 -17.5
q-15 0 -27 9q-26 21 -72.5 38.5t-83.5 17.5q-63 0 -97.5 -23.5t-34.5 -61.5q0 -43 35.5 -65t111.5 -36q86 -15 137.5 -38.5t77.5 -64t26 -107.5q0 -63 -35.5 -110.5t-94.5 -73t-127 -25.5q-72 0 -128 18zM438 888q9 -8 9 -17q0 -7 -3 -13t-12 -17l-63 -72q-13 -15 -27.5 -22
t-33.5 -7h-16q-20 0 -34 7t-27 22l-63 72q-9 11 -12 17t-3 13q0 9 9 17t22 8q20 0 51 -20l65 -42l65 42q31 20 51 20q13 0 22 -8zM250 977q-14 11 -14 39v19q0 28 14.5 39t47.5 11q36 0 50 -11t14 -39v-19q0 -29 -15 -39.5t-50 -10.5q-33 0 -47 11z" />
    <glyph glyph-name="Scedilla" unicode="&#x15e;" horiz-adv-x="597" 
d="M525.5 94.5q-31.5 -45.5 -84 -72t-115.5 -31.5l-41 -110q-12 -32 -41 -32q-19 0 -42 13t-23 33q0 15 12 30l51 68q-51 6 -93.5 24t-81.5 52q-27 24 -27 53q0 23 17 40.5t41 17.5q19 0 34 -12q40 -33 78 -48t90 -15q56 0 96.5 25t40.5 62q0 45 -40 70.5t-127 38.5
q-219 32 -219 204q0 63 33 109.5t90 71t127 24.5q63 0 118.5 -19t92.5 -50q29 -23 29 -53q0 -23 -17 -40.5t-40 -17.5q-15 0 -27 9q-26 21 -72.5 38.5t-83.5 17.5q-63 0 -97.5 -23.5t-34.5 -61.5q0 -43 35.5 -65t111.5 -36q86 -15 137.5 -38.5t77.5 -64t26 -107.5
q0 -59 -31.5 -104.5z" />
    <glyph glyph-name="Scircumflex" unicode="&#x15c;" horiz-adv-x="597" 
d="M172 8q-56 18 -105 61q-27 24 -27 53q0 23 17 40.5t41 17.5q19 0 34 -12q40 -33 78 -48t90 -15q56 0 96.5 25t40.5 62q0 45 -40 70.5t-127 38.5q-219 32 -219 204q0 63 33 109.5t90 71t127 24.5q63 0 118.5 -19t92.5 -50q29 -23 29 -53q0 -23 -17 -40.5t-40 -17.5
q-15 0 -27 9q-26 21 -72.5 38.5t-83.5 17.5q-63 0 -97.5 -23.5t-34.5 -61.5q0 -43 35.5 -65t111.5 -36q86 -15 137.5 -38.5t77.5 -64t26 -107.5q0 -63 -35.5 -110.5t-94.5 -73t-127 -25.5q-72 0 -128 18zM442 779q3 -6 3 -14q0 -9 -9 -17t-22 -8q-9 0 -20 5t-31 17l-65 38
l-65 -38q-16 -9 -29 -15.5t-22 -6.5q-13 0 -22 8t-9 17q0 8 3 14t12 16l63 72q13 15 27 22t34 7h16q19 0 33.5 -7t27.5 -22l63 -72q9 -10 12 -16z" />
    <glyph glyph-name="Scommaaccent" unicode="&#x218;" horiz-adv-x="597" 
d="M172 8q-56 18 -105 61q-27 24 -27 53q0 23 17 40.5t41 17.5q19 0 34 -12q40 -33 78 -48t90 -15q56 0 96.5 25t40.5 62q0 45 -40 70.5t-127 38.5q-219 32 -219 204q0 63 33 109.5t90 71t127 24.5q63 0 118.5 -19t92.5 -50q29 -23 29 -53q0 -23 -17 -40.5t-40 -17.5
q-15 0 -27 9q-26 21 -72.5 38.5t-83.5 17.5q-63 0 -97.5 -23.5t-34.5 -61.5q0 -43 35.5 -65t111.5 -36q86 -15 137.5 -38.5t77.5 -64t26 -107.5q0 -63 -35.5 -110.5t-94.5 -73t-127 -25.5q-72 0 -128 18zM369 -148q-14 -22 -37.5 -36t-50.5 -14q-23 0 -35.5 10t-12.5 22
t6.5 17.5t14.5 5.5q5 0 14.5 -2.5t15.5 -2.5q11 0 18 7.5t7 20.5t-10 13q-4 0 -10 -4.5t-17 -4.5q-16 0 -26 11t-10 30q0 23 18.5 35t49.5 12q35 0 57 -20.5t22 -55.5q0 -22 -14 -44z" />
    <glyph glyph-name="uni1E60" unicode="&#x1e60;" horiz-adv-x="597" 
d="M172 8q-56 18 -105 61q-27 24 -27 53q0 23 17 40.5t41 17.5q19 0 34 -12q40 -33 78 -48t90 -15q56 0 96.5 25t40.5 62q0 45 -40 70.5t-127 38.5q-219 32 -219 204q0 63 33 109.5t90 71t127 24.5q63 0 118.5 -19t92.5 -50q29 -23 29 -53q0 -23 -17 -40.5t-40 -17.5
q-15 0 -27 9q-26 21 -72.5 38.5t-83.5 17.5q-63 0 -97.5 -23.5t-34.5 -61.5q0 -43 35.5 -65t111.5 -36q86 -15 137.5 -38.5t77.5 -64t26 -107.5q0 -63 -35.5 -110.5t-94.5 -73t-127 -25.5q-72 0 -128 18zM250 751q-14 11 -14 39v19q0 28 14.5 39t47.5 11q36 0 50 -11t14 -39
v-19q0 -29 -15 -39.5t-50 -10.5q-33 0 -47 11z" />
    <glyph glyph-name="uni1E62" unicode="&#x1e62;" horiz-adv-x="597" 
d="M172 8q-56 18 -105 61q-27 24 -27 53q0 23 17 40.5t41 17.5q19 0 34 -12q40 -33 78 -48t90 -15q56 0 96.5 25t40.5 62q0 45 -40 70.5t-127 38.5q-219 32 -219 204q0 63 33 109.5t90 71t127 24.5q63 0 118.5 -19t92.5 -50q29 -23 29 -53q0 -23 -17 -40.5t-40 -17.5
q-15 0 -27 9q-26 21 -72.5 38.5t-83.5 17.5q-63 0 -97.5 -23.5t-34.5 -61.5q0 -43 35.5 -65t111.5 -36q86 -15 137.5 -38.5t77.5 -64t26 -107.5q0 -63 -35.5 -110.5t-94.5 -73t-127 -25.5q-72 0 -128 18zM250 -136q-14 11 -14 39v19q0 28 15 39t46 11q37 0 51 -11t14 -39
v-19q0 -29 -15 -39.5t-50 -10.5q-33 0 -47 11z" />
    <glyph glyph-name="uni1E68" unicode="&#x1e68;" horiz-adv-x="597" 
d="M172 8q-56 18 -105 61q-27 24 -27 53q0 23 17 40.5t41 17.5q19 0 34 -12q40 -33 78 -48t90 -15q56 0 96.5 25t40.5 62q0 45 -40 70.5t-127 38.5q-219 32 -219 204q0 63 33 109.5t90 71t127 24.5q63 0 118.5 -19t92.5 -50q29 -23 29 -53q0 -23 -17 -40.5t-40 -17.5
q-15 0 -27 9q-26 21 -72.5 38.5t-83.5 17.5q-63 0 -97.5 -23.5t-34.5 -61.5q0 -43 35.5 -65t111.5 -36q86 -15 137.5 -38.5t77.5 -64t26 -107.5q0 -63 -35.5 -110.5t-94.5 -73t-127 -25.5q-72 0 -128 18zM250 -136q-14 11 -14 39v19q0 28 15 39t46 11q37 0 51 -11t14 -39
v-19q0 -29 -15 -39.5t-50 -10.5q-33 0 -47 11zM250 751q-14 11 -14 39v19q0 28 14.5 39t47.5 11q36 0 50 -11t14 -39v-19q0 -29 -15 -39.5t-50 -10.5q-33 0 -47 11z" />
    <glyph glyph-name="uni1E9E" unicode="&#x1e9e;" horiz-adv-x="746" 
d="M622 355q34 -19 59 -58.5t25 -104.5q0 -54 -33 -100.5t-86 -74t-111 -27.5q-57 0 -117 23t-91 62q-5 7 -10.5 21.5t-5.5 31.5q0 25 15 45t40 20q10 0 21.5 -4.5t19.5 -12.5q26 -27 61 -46.5t67 -19.5q49 0 74.5 16.5t25.5 46.5q0 34 -25.5 52.5t-79.5 39.5q-27 10 -34 13
q-61 25 -96.5 63t-35.5 105q0 70 35.5 114t91.5 64h-35q-50 1 -93.5 -19.5t-70 -62.5t-26.5 -103l-2 -378q0 -26 -19 -43.5t-47 -17.5t-46 17.5t-18 43.5l2 345q0 89 37.5 162t107 115.5t162.5 42.5q116 0 199 -34q63 -25 63 -75q0 -23 -15 -31t-49 -15q-24 -5 -32 -7
q-7 -2 -43 -11t-52.5 -26.5t-16.5 -44.5q0 -31 25.5 -52t71.5 -37q53 -19 87 -38z" />
    <glyph glyph-name="uni018F" unicode="&#x18f;" horiz-adv-x="776" 
d="M560.5 661.5q80.5 -48.5 128 -131t47.5 -180.5t-47 -180.5t-127 -131t-174 -48.5q-86 0 -163.5 38.5t-128 110t-56.5 166.5v25q0 35 22 54.5t53 19.5h491q-13 96 -72.5 141t-148.5 45q-52 0 -97.5 -13t-85.5 -45q-20 -15 -41 -15q-24 0 -41 16q-22 19 -22 45q0 25 21 43
q56 49 119 69t147 20q95 0 175.5 -48.5zM526 155.5q58 45.5 76 128.5h-433q20 -76 81 -125t138 -49q80 0 138 45.5z" />
    <glyph glyph-name="T" unicode="T" horiz-adv-x="626" 
d="M579 684q17 -16 17 -42t-17 -41.5t-44 -15.5h-157v-524q0 -26 -19 -43.5t-47 -17.5t-46 17.5t-18 43.5v524h-157q-27 0 -44 16t-17 42q0 25 17.5 41t43.5 16h444q27 0 44 -16z" />
    <glyph glyph-name="Tbar" unicode="&#x166;" horiz-adv-x="626" 
d="M579 684q17 -16 17 -42t-17 -41.5t-44 -15.5h-157v-178h32q26 0 43.5 -15.5t17.5 -38.5q0 -25 -17.5 -40.5t-43.5 -15.5h-32v-236q0 -26 -19 -43.5t-47 -17.5t-46 17.5t-18 43.5v236h-12q-26 0 -43.5 15.5t-17.5 40.5q0 23 17.5 38.5t43.5 15.5h12v178h-157q-27 0 -44 16
t-17 42q0 25 17.5 41t43.5 16h444q27 0 44 -16z" />
    <glyph glyph-name="Tcaron" unicode="&#x164;" horiz-adv-x="626" 
d="M579 684q17 -16 17 -42t-17 -41.5t-44 -15.5h-157v-524q0 -26 -19 -43.5t-47 -17.5t-46 17.5t-18 43.5v524h-157q-27 0 -44 16t-17 42q0 25 17.5 41t43.5 16h444q27 0 44 -16zM452 888q9 -8 9 -17q0 -7 -3 -13t-12 -17l-63 -72q-13 -15 -27.5 -22t-33.5 -7h-16
q-20 0 -34 7t-27 22l-63 72q-9 11 -12 17t-3 13q0 9 9 17t22 8q20 0 51 -20l65 -42l65 42q31 20 51 20q13 0 22 -8z" />
    <glyph glyph-name="uni0162" unicode="&#x162;" horiz-adv-x="626" 
d="M579 684q17 -16 17 -42t-17 -41.5t-44 -15.5h-157v-524q0 -17 -9 -31t-23 -22l-47 -127q-12 -32 -41 -32q-19 0 -42 13t-23 33q0 15 12 30l66 88q-23 18 -23 48v524h-157q-27 0 -44 16t-17 42q0 25 17.5 41t43.5 16h444q27 0 44 -16z" />
    <glyph glyph-name="uni021A" unicode="&#x21a;" horiz-adv-x="626" 
d="M579 684q17 -16 17 -42t-17 -41.5t-44 -15.5h-157v-524q0 -26 -19 -43.5t-47 -17.5t-46 17.5t-18 43.5v524h-157q-27 0 -44 16t-17 42q0 25 17.5 41t43.5 16h444q27 0 44 -16zM383 -148q-14 -22 -37.5 -36t-50.5 -14q-23 0 -35.5 10t-12.5 22t6.5 17.5t14.5 5.5
q5 0 14.5 -2.5t15.5 -2.5q11 0 18 7.5t7 20.5t-10 13q-4 0 -10 -4.5t-17 -4.5q-16 0 -26 11t-10 30q0 23 18.5 35t49.5 12q35 0 57 -20.5t22 -55.5q0 -22 -14 -44z" />
    <glyph glyph-name="uni1E6C" unicode="&#x1e6c;" horiz-adv-x="626" 
d="M579 684q17 -16 17 -42t-17 -41.5t-44 -15.5h-157v-524q0 -26 -19 -43.5t-47 -17.5t-46 17.5t-18 43.5v524h-157q-27 0 -44 16t-17 42q0 25 17.5 41t43.5 16h444q27 0 44 -16zM264 -136q-14 11 -14 39v19q0 28 15 39t46 11q37 0 51 -11t14 -39v-19q0 -29 -15 -39.5
t-50 -10.5q-33 0 -47 11z" />
    <glyph glyph-name="uni1E6E" unicode="&#x1e6e;" horiz-adv-x="626" 
d="M579 684q17 -16 17 -42t-17 -41.5t-44 -15.5h-157v-524q0 -26 -19 -43.5t-47 -17.5t-46 17.5t-18 43.5v524h-157q-27 0 -44 16t-17 42q0 25 17.5 41t43.5 16h444q27 0 44 -16zM165 -140.5q-13 11.5 -13 33.5q0 21 13 32.5t37 11.5h242q24 0 37 -11.5t13 -32.5
q0 -45 -50 -45h-242q-24 0 -37 11.5z" />
    <glyph glyph-name="U" unicode="U" horiz-adv-x="705" 
d="M614 684q16 -17 16 -44v-362q0 -83 -35 -147t-98 -100t-144 -36t-144.5 36t-98.5 100t-35 147v362q0 26 18 43.5t46 17.5q24 0 42 -17.5t18 -43.5v-362q0 -48 21 -85.5t56.5 -57.5t76.5 -20q43 0 80.5 20t60 57.5t22.5 85.5v362q0 27 15 44t41 17t42 -17z" />
    <glyph glyph-name="Uacute" unicode="&#xda;" horiz-adv-x="705" 
d="M614 684q16 -17 16 -44v-362q0 -83 -35 -147t-98 -100t-144 -36t-144.5 36t-98.5 100t-35 147v362q0 26 18 43.5t46 17.5q24 0 42 -17.5t18 -43.5v-362q0 -48 21 -85.5t56.5 -57.5t76.5 -20q43 0 80.5 20t60 57.5t22.5 85.5v362q0 27 15 44t41 17t42 -17zM323.5 748
q-11.5 10 -11.5 26q0 14 14 27l86 76q26 22 49 22q19 0 36 -14t17 -35q0 -15 -9.5 -29.5t-27.5 -23.5l-100 -53q-10 -6 -23 -6q-19 0 -30.5 10z" />
    <glyph glyph-name="Ubreve" unicode="&#x16c;" horiz-adv-x="705" 
d="M614 684q16 -17 16 -44v-362q0 -83 -35 -147t-98 -100t-144 -36t-144.5 36t-98.5 100t-35 147v362q0 26 18 43.5t46 17.5q24 0 42 -17.5t18 -43.5v-362q0 -48 21 -85.5t56.5 -57.5t76.5 -20q43 0 80.5 20t60 57.5t22.5 85.5v362q0 27 15 44t41 17t42 -17zM255.5 782.5
q-41.5 24.5 -60.5 68.5q-5 13 -5 22q0 15 9.5 24t24.5 9q19 0 31 -8t29 -28q24 -27 69 -27q48 0 69 27q15 19 27.5 27.5t32.5 8.5q15 0 24.5 -8.5t9.5 -23.5q0 -10 -4 -21q-19 -46 -60.5 -70.5t-98.5 -24.5q-56 0 -97.5 24.5z" />
    <glyph glyph-name="uni01D3" unicode="&#x1d3;" horiz-adv-x="705" 
d="M614 684q16 -17 16 -44v-362q0 -83 -35 -147t-98 -100t-144 -36t-144.5 36t-98.5 100t-35 147v362q0 26 18 43.5t46 17.5q24 0 42 -17.5t18 -43.5v-362q0 -48 21 -85.5t56.5 -57.5t76.5 -20q43 0 80.5 20t60 57.5t22.5 85.5v362q0 27 15 44t41 17t42 -17zM492 888
q9 -8 9 -17q0 -7 -3 -13t-12 -17l-63 -72q-13 -15 -27.5 -22t-33.5 -7h-16q-20 0 -34 7t-27 22l-63 72q-9 11 -12 17t-3 13q0 9 9 17t22 8q20 0 51 -20l65 -42l65 42q31 20 51 20q13 0 22 -8z" />
    <glyph glyph-name="Ucircumflex" unicode="&#xdb;" horiz-adv-x="705" 
d="M614 684q16 -17 16 -44v-362q0 -83 -35 -147t-98 -100t-144 -36t-144.5 36t-98.5 100t-35 147v362q0 26 18 43.5t46 17.5q24 0 42 -17.5t18 -43.5v-362q0 -48 21 -85.5t56.5 -57.5t76.5 -20q43 0 80.5 20t60 57.5t22.5 85.5v362q0 27 15 44t41 17t42 -17zM496 779
q3 -6 3 -14q0 -9 -9 -17t-22 -8q-9 0 -20 5t-31 17l-65 38l-65 -38q-16 -9 -29 -15.5t-22 -6.5q-13 0 -22 8t-9 17q0 8 3 14t12 16l63 72q13 15 27 22t34 7h16q19 0 33.5 -7t27.5 -22l63 -72q9 -10 12 -16z" />
    <glyph glyph-name="uni0214" unicode="&#x214;" horiz-adv-x="705" 
d="M614 684q16 -17 16 -44v-362q0 -83 -35 -147t-98 -100t-144 -36t-144.5 36t-98.5 100t-35 147v362q0 26 18 43.5t46 17.5q24 0 42 -17.5t18 -43.5v-362q0 -48 21 -85.5t56.5 -57.5t76.5 -20q43 0 80.5 20t60 57.5t22.5 85.5v362q0 27 15 44t41 17t42 -17zM436 768
l-100 53q-18 10 -27.5 24t-9.5 29q0 21 17 35t36 14q23 0 49 -22l86 -76q14 -13 14 -27q0 -16 -11.5 -26t-30.5 -10q-11 0 -23 6zM230 758l-100 53q-18 10 -27.5 24t-9.5 29q0 21 17 35t36 14q23 0 49 -22l86 -76q14 -13 14 -27q0 -16 -11.5 -26t-30.5 -10q-11 0 -23 6z" />
    <glyph glyph-name="Udieresis" unicode="&#xdc;" horiz-adv-x="705" 
d="M614 684q16 -17 16 -44v-362q0 -83 -35 -147t-98 -100t-144 -36t-144.5 36t-98.5 100t-35 147v362q0 26 18 43.5t46 17.5q24 0 42 -17.5t18 -43.5v-362q0 -48 21 -85.5t56.5 -57.5t76.5 -20q43 0 80.5 20t60 57.5t22.5 85.5v362q0 27 15 44t41 17t42 -17zM206 771.5
q-14 11.5 -14 38.5v18q0 28 15 39t46 11q33 0 47.5 -11.5t14.5 -38.5v-18q0 -28 -14.5 -39t-48.5 -11q-32 0 -46 11.5zM405 771.5q-14 11.5 -14 38.5v18q0 28 14.5 39t45.5 11q34 0 48.5 -11t14.5 -39v-18q0 -28 -14.5 -39t-48.5 -11q-32 0 -46 11.5z" />
    <glyph glyph-name="uni1EE4" unicode="&#x1ee4;" horiz-adv-x="705" 
d="M614 684q16 -17 16 -44v-362q0 -83 -35 -147t-98 -100t-144 -36t-144.5 36t-98.5 100t-35 147v362q0 26 18 43.5t46 17.5q24 0 42 -17.5t18 -43.5v-362q0 -48 21 -85.5t56.5 -57.5t76.5 -20q43 0 80.5 20t60 57.5t22.5 85.5v362q0 27 15 44t41 17t42 -17zM304 -136
q-14 11 -14 39v19q0 28 15 39t46 11q37 0 51 -11t14 -39v-19q0 -29 -15 -39.5t-50 -10.5q-33 0 -47 11z" />
    <glyph glyph-name="Ugrave" unicode="&#xd9;" horiz-adv-x="705" 
d="M614 684q16 -17 16 -44v-362q0 -83 -35 -147t-98 -100t-144 -36t-144.5 36t-98.5 100t-35 147v362q0 26 18 43.5t46 17.5q24 0 42 -17.5t18 -43.5v-362q0 -48 21 -85.5t56.5 -57.5t76.5 -20q43 0 80.5 20t60 57.5t22.5 85.5v362q0 27 15 44t41 17t42 -17zM328 748
l-100 53q-18 10 -27.5 24t-9.5 29q0 21 17 35t36 14q23 0 49 -22l86 -76q14 -13 14 -27q0 -16 -11.5 -26t-30.5 -10q-11 0 -23 6z" />
    <glyph glyph-name="uni1EE6" unicode="&#x1ee6;" horiz-adv-x="705" 
d="M614 684q16 -17 16 -44v-362q0 -83 -35 -147t-98 -100t-144 -36t-144.5 36t-98.5 100t-35 147v362q0 26 18 43.5t46 17.5q24 0 42 -17.5t18 -43.5v-362q0 -48 21 -85.5t56.5 -57.5t76.5 -20q43 0 80.5 20t60 57.5t22.5 85.5v362q0 27 15 44t41 17t42 -17zM292 949.5
q18 7.5 43 7.5q56 0 79.5 -26.5t23.5 -60.5q0 -16 -4.5 -28.5t-14.5 -25.5q-2 -3 -9.5 -12t-11 -15t-3.5 -11q0 -12 -11 -17.5t-29 -5.5q-11 0 -19.5 5.5t-8.5 17.5q0 18 16 39q23 31 23 43t-10 19.5t-24 7.5q-11 0 -20 -4.5t-22 -12.5q-10 -6 -16 -6q-12 0 -25 13
q-9 9 -9 21q0 16 16 30q18 14 36 21.5z" />
    <glyph glyph-name="Uhorn" unicode="&#x1af;" horiz-adv-x="705" 
d="M716.5 666q-28.5 -41 -86.5 -57v-331q0 -83 -35 -147t-98 -100t-144 -36t-144.5 36t-98.5 100t-35 147v362q0 26 18 43.5t46 17.5q24 0 42 -17.5t18 -43.5v-362q0 -48 21 -85.5t56.5 -57.5t76.5 -20q43 0 80.5 20t60 57.5t22.5 85.5v362q0 24 11.5 40t32.5 20h1q3 1 11 1
h5q68 6 68 61q0 20 13.5 36.5t37.5 16.5q25 0 37 -16.5t12 -36.5q0 -55 -28.5 -96z" />
    <glyph glyph-name="uni1EE8" unicode="&#x1ee8;" horiz-adv-x="705" 
d="M716.5 666q-28.5 -41 -86.5 -57v-331q0 -83 -35 -147t-98 -100t-144 -36t-144.5 36t-98.5 100t-35 147v362q0 26 18 43.5t46 17.5q24 0 42 -17.5t18 -43.5v-362q0 -48 21 -85.5t56.5 -57.5t76.5 -20q43 0 80.5 20t60 57.5t22.5 85.5v362q0 24 11.5 40t32.5 20h1q3 1 11 1
h5q68 6 68 61q0 20 13.5 36.5t37.5 16.5q25 0 37 -16.5t12 -36.5q0 -55 -28.5 -96zM331.5 748q-11.5 10 -11.5 26q0 14 14 27l86 76q26 22 49 22q19 0 36 -14t17 -35q0 -15 -9.5 -29.5t-27.5 -23.5l-100 -53q-10 -6 -23 -6q-19 0 -30.5 10z" />
    <glyph glyph-name="uni1EF0" unicode="&#x1ef0;" horiz-adv-x="705" 
d="M716.5 666q-28.5 -41 -86.5 -57v-331q0 -83 -35 -147t-98 -100t-144 -36t-144.5 36t-98.5 100t-35 147v362q0 26 18 43.5t46 17.5q24 0 42 -17.5t18 -43.5v-362q0 -48 21 -85.5t56.5 -57.5t76.5 -20q43 0 80.5 20t60 57.5t22.5 85.5v362q0 24 11.5 40t32.5 20h1q3 1 11 1
h5q68 6 68 61q0 20 13.5 36.5t37.5 16.5q25 0 37 -16.5t12 -36.5q0 -55 -28.5 -96zM311 -136q-14 11 -14 39v19q0 28 15 39t46 11q37 0 51 -11t14 -39v-19q0 -29 -15 -39.5t-50 -10.5q-33 0 -47 11z" />
    <glyph glyph-name="uni1EEA" unicode="&#x1eea;" horiz-adv-x="705" 
d="M716.5 666q-28.5 -41 -86.5 -57v-331q0 -83 -35 -147t-98 -100t-144 -36t-144.5 36t-98.5 100t-35 147v362q0 26 18 43.5t46 17.5q24 0 42 -17.5t18 -43.5v-362q0 -48 21 -85.5t56.5 -57.5t76.5 -20q43 0 80.5 20t60 57.5t22.5 85.5v362q0 24 11.5 40t32.5 20h1q3 1 11 1
h5q68 6 68 61q0 20 13.5 36.5t37.5 16.5q25 0 37 -16.5t12 -36.5q0 -55 -28.5 -96zM336 748l-100 53q-18 10 -27.5 24t-9.5 29q0 21 17 35t36 14q23 0 49 -22l86 -76q14 -13 14 -27q0 -16 -11.5 -26t-30.5 -10q-11 0 -23 6z" />
    <glyph glyph-name="uni1EEC" unicode="&#x1eec;" horiz-adv-x="705" 
d="M716.5 666q-28.5 -41 -86.5 -57v-331q0 -83 -35 -147t-98 -100t-144 -36t-144.5 36t-98.5 100t-35 147v362q0 26 18 43.5t46 17.5q24 0 42 -17.5t18 -43.5v-362q0 -48 21 -85.5t56.5 -57.5t76.5 -20q43 0 80.5 20t60 57.5t22.5 85.5v362q0 24 11.5 40t32.5 20h1q3 1 11 1
h5q68 6 68 61q0 20 13.5 36.5t37.5 16.5q25 0 37 -16.5t12 -36.5q0 -55 -28.5 -96zM300 949.5q18 7.5 43 7.5q56 0 79.5 -26.5t23.5 -60.5q0 -16 -4.5 -28.5t-14.5 -25.5q-2 -3 -9.5 -12t-11 -15t-3.5 -11q0 -12 -11 -17.5t-29 -5.5q-11 0 -19.5 5.5t-8.5 17.5q0 18 16 39
q23 31 23 43t-10 19.5t-24 7.5q-11 0 -20 -4.5t-22 -12.5q-10 -6 -16 -6q-12 0 -25 13q-9 9 -9 21q0 16 16 30q18 14 36 21.5z" />
    <glyph glyph-name="uni1EEE" unicode="&#x1eee;" horiz-adv-x="705" 
d="M716.5 666q-28.5 -41 -86.5 -57v-331q0 -83 -35 -147t-98 -100t-144 -36t-144.5 36t-98.5 100t-35 147v362q0 26 18 43.5t46 17.5q24 0 42 -17.5t18 -43.5v-362q0 -48 21 -85.5t56.5 -57.5t76.5 -20q43 0 80.5 20t60 57.5t22.5 85.5v362q0 24 11.5 40t32.5 20h1q3 1 11 1
h5q68 6 68 61q0 20 13.5 36.5t37.5 16.5q25 0 37 -16.5t12 -36.5q0 -55 -28.5 -96zM187 755.5q-16 19.5 -16 51.5q0 34 30 61t81 27q26 0 49 -10t54 -28q21 -12 33.5 -18t22.5 -6q11 0 17 6t3 15q-2 5 -2 14q0 16 10.5 25.5t26.5 9.5q23 0 39 -19.5t16 -49.5q0 -19 -11 -40
t-32.5 -35.5t-51.5 -14.5q-29 0 -54 10t-63 29q-22 12 -35 17.5t-23 5.5q-11 0 -17 -6t-3 -15q2 -5 2 -14q0 -16 -10.5 -25.5t-26.5 -9.5q-23 0 -39 19.5z" />
    <glyph glyph-name="Uhungarumlaut" unicode="&#x170;" horiz-adv-x="705" 
d="M614 684q16 -17 16 -44v-362q0 -83 -35 -147t-98 -100t-144 -36t-144.5 36t-98.5 100t-35 147v362q0 26 18 43.5t46 17.5q24 0 42 -17.5t18 -43.5v-362q0 -48 21 -85.5t56.5 -57.5t76.5 -20q43 0 80.5 20t60 57.5t22.5 85.5v362q0 27 15 44t41 17t42 -17zM240 786.5
q-7 6.5 -7 18.5q0 16 12 35l41 64q19 31 48 31q22 0 39 -14.5t17 -34.5q0 -17 -18 -34l-49 -47q-14 -14 -28.5 -19.5t-33.5 -5.5q-14 0 -21 6.5zM415 804q0 16 13 36l42 65q9 13 19.5 19.5t27.5 6.5q21 0 38.5 -10.5t17.5 -31.5q0 -20 -18 -37l-50 -47q-14 -14 -28.5 -19.5
t-33.5 -5.5q-28 0 -28 24z" />
    <glyph glyph-name="uni0216" unicode="&#x216;" horiz-adv-x="705" 
d="M614 684q16 -17 16 -44v-362q0 -83 -35 -147t-98 -100t-144 -36t-144.5 36t-98.5 100t-35 147v362q0 26 18 43.5t46 17.5q24 0 42 -17.5t18 -43.5v-362q0 -48 21 -85.5t56.5 -57.5t76.5 -20q43 0 80.5 20t60 57.5t22.5 85.5v362q0 27 15 44t41 17t42 -17zM451.5 904
q41.5 -24 59.5 -69q5 -13 5 -22q0 -15 -9.5 -24t-24.5 -9q-20 0 -32.5 8.5t-27.5 27.5q-24 27 -69 27t-69 -27q-15 -19 -27.5 -27.5t-32.5 -8.5q-15 0 -24.5 8.5t-9.5 23.5q0 10 4 21q19 46 60.5 70.5t98.5 24.5t98.5 -24z" />
    <glyph glyph-name="Umacron" unicode="&#x16a;" horiz-adv-x="705" 
d="M614 684q16 -17 16 -44v-362q0 -83 -35 -147t-98 -100t-144 -36t-144.5 36t-98.5 100t-35 147v362q0 26 18 43.5t46 17.5q24 0 42 -17.5t18 -43.5v-362q0 -48 21 -85.5t56.5 -57.5t76.5 -20q43 0 80.5 20t60 57.5t22.5 85.5v362q0 27 15 44t41 17t42 -17zM195 761.5
q-13 11.5 -13 33.5q0 21 13 32.5t37 11.5h242q24 0 37 -11.5t13 -32.5q0 -45 -50 -45h-242q-24 0 -37 11.5z" />
    <glyph glyph-name="uni1E7A" unicode="&#x1e7a;" horiz-adv-x="705" 
d="M614 684q16 -17 16 -44v-362q0 -83 -35 -147t-98 -100t-144 -36t-144.5 36t-98.5 100t-35 147v362q0 26 18 43.5t46 17.5q24 0 42 -17.5t18 -43.5v-362q0 -48 21 -85.5t56.5 -57.5t76.5 -20q43 0 80.5 20t60 57.5t22.5 85.5v362q0 27 15 44t41 17t42 -17zM195 761.5
q-13 11.5 -13 33.5q0 21 13 32.5t37 11.5h242q24 0 37 -11.5t13 -32.5q0 -45 -50 -45h-242q-24 0 -37 11.5zM206 940.5q-14 11.5 -14 38.5v18q0 28 15 39t46 11q33 0 47.5 -11.5t14.5 -38.5v-18q0 -28 -14.5 -39t-48.5 -11q-32 0 -46 11.5zM405 940.5q-14 11.5 -14 38.5v18
q0 28 14.5 39t45.5 11q34 0 48.5 -11t14.5 -39v-18q0 -28 -14.5 -39t-48.5 -11q-32 0 -46 11.5z" />
    <glyph glyph-name="Uogonek" unicode="&#x172;" horiz-adv-x="705" 
d="M445.5 -20q-25.5 -32 -25.5 -58q0 -17 9 -26.5t22 -9.5q12 0 21 12q13 18 41 18q19 0 31.5 -13t12.5 -35q0 -16 -16.5 -34t-43.5 -29.5t-56 -11.5q-53 0 -86.5 27t-33.5 80q0 51 31 95q-81 0 -144 36t-98 100t-35 147v362q0 26 18 43.5t46 17.5q27 0 43.5 -17t16.5 -44
v-362q0 -48 21 -85.5t56.5 -57.5t76.5 -20q43 0 80.5 20t60 57.5t22.5 85.5v362q0 26 17 43.5t39 17.5q26 0 42 -17t16 -44v-362q0 -67 -27 -132t-83 -102q-49 -32 -74.5 -64z" />
    <glyph glyph-name="Uring" unicode="&#x16e;" horiz-adv-x="705" 
d="M614 684q16 -17 16 -44v-362q0 -83 -35 -147t-98 -100t-144 -36t-144.5 36t-98.5 100t-35 147v362q0 26 18 43.5t46 17.5q24 0 42 -17.5t18 -43.5v-362q0 -48 21 -85.5t56.5 -57.5t76.5 -20q43 0 80.5 20t60 57.5t22.5 85.5v362q0 27 15 44t41 17t42 -17zM297 765
q-26 15 -42 40t-16 54q0 46 34 78.5t80 32.5t80 -32.5t34 -78.5q0 -29 -16 -54t-42 -40t-56 -15t-56 15zM384.5 831q12.5 11 12.5 28q0 20 -13 30.5t-31 10.5q-19 0 -31.5 -11t-12.5 -30q0 -17 12.5 -28t31.5 -11t31.5 11z" />
    <glyph glyph-name="Utilde" unicode="&#x168;" horiz-adv-x="705" 
d="M614 684q16 -17 16 -44v-362q0 -83 -35 -147t-98 -100t-144 -36t-144.5 36t-98.5 100t-35 147v362q0 26 18 43.5t46 17.5q24 0 42 -17.5t18 -43.5v-362q0 -48 21 -85.5t56.5 -57.5t76.5 -20q43 0 80.5 20t60 57.5t22.5 85.5v362q0 27 15 44t41 17t42 -17zM179 755.5
q-16 19.5 -16 51.5q0 34 30 61t81 27q26 0 49 -10t54 -28q21 -12 33.5 -18t22.5 -6q11 0 17 6t3 15q-2 5 -2 14q0 16 10.5 25.5t26.5 9.5q23 0 39 -19.5t16 -49.5q0 -19 -11 -40t-32.5 -35.5t-51.5 -14.5q-29 0 -54 10t-63 29q-22 12 -35 17.5t-23 5.5q-11 0 -17 -6t-3 -15
q2 -5 2 -14q0 -16 -10.5 -25.5t-26.5 -9.5q-23 0 -39 19.5z" />
    <glyph glyph-name="uni1E78" unicode="&#x1e78;" horiz-adv-x="705" 
d="M614 684q16 -17 16 -44v-362q0 -83 -35 -147t-98 -100t-144 -36t-144.5 36t-98.5 100t-35 147v362q0 26 18 43.5t46 17.5q24 0 42 -17.5t18 -43.5v-362q0 -48 21 -85.5t56.5 -57.5t76.5 -20q43 0 80.5 20t60 57.5t22.5 85.5v362q0 27 15 44t41 17t42 -17zM179 755.5
q-16 19.5 -16 51.5q0 34 30 61t81 27q26 0 49 -10t54 -28q21 -12 33.5 -18t22.5 -6q11 0 17 6t3 15q-2 5 -2 14q0 16 10.5 25.5t26.5 9.5q23 0 39 -19.5t16 -49.5q0 -19 -11 -40t-32.5 -35.5t-51.5 -14.5q-29 0 -54 10t-63 29q-22 12 -35 17.5t-23 5.5q-11 0 -17 -6t-3 -15
q2 -5 2 -14q0 -16 -10.5 -25.5t-26.5 -9.5q-23 0 -39 19.5zM323.5 965q-11.5 10 -11.5 26q0 14 14 27l86 76q26 22 49 22q19 0 36 -14t17 -35q0 -15 -9.5 -29.5t-27.5 -23.5l-100 -53q-10 -6 -23 -6q-19 0 -30.5 10z" />
    <glyph glyph-name="V" unicode="V" horiz-adv-x="678" 
d="M629.5 685q18.5 -17 18.5 -41q0 -13 -6 -27l-247 -578q-9 -19 -25 -29t-34 -10q-17 1 -31.5 10.5t-22.5 27.5l-247 580q-5 10 -5 25q0 27 20 43.5t41 16.5q17 0 32 -10t23 -29l201 -473l184 473q8 18 23 28t32 10q25 0 43.5 -17z" />
    <glyph glyph-name="W" unicode="W" horiz-adv-x="943" 
d="M906.5 684.5q20.5 -18.5 20.5 -46.5q0 -9 -3 -20l-197 -580q-6 -17 -21 -27t-33 -11q-18 0 -34 10t-25 29l-142 323l-143 -323q-9 -19 -25 -29t-34 -10q-18 1 -33 11t-21 27l-197 580q-3 11 -3 20q0 28 20.5 46.5t45.5 18.5q20 0 36 -10.5t22 -28.5l149 -452l130 312
q8 18 23 28.5t34 9.5q19 1 33.5 -9.5t22.5 -28.5l123 -309l148 449q6 18 22.5 28.5t36.5 10.5q24 0 44.5 -18.5z" />
    <glyph glyph-name="Wacute" unicode="&#x1e82;" horiz-adv-x="943" 
d="M906.5 684.5q20.5 -18.5 20.5 -46.5q0 -9 -3 -20l-197 -580q-6 -17 -21 -27t-33 -11q-18 0 -34 10t-25 29l-142 323l-143 -323q-9 -19 -25 -29t-34 -10q-18 1 -33 11t-21 27l-197 580q-3 11 -3 20q0 28 20.5 46.5t45.5 18.5q20 0 36 -10.5t22 -28.5l149 -452l130 312
q8 18 23 28.5t34 9.5q19 1 33.5 -9.5t22.5 -28.5l123 -309l148 449q6 18 22.5 28.5t36.5 10.5q24 0 44.5 -18.5zM442.5 748q-11.5 10 -11.5 26q0 14 14 27l86 76q26 22 49 22q19 0 36 -14t17 -35q0 -15 -9.5 -29.5t-27.5 -23.5l-100 -53q-10 -6 -23 -6q-19 0 -30.5 10z" />
    <glyph glyph-name="Wcircumflex" unicode="&#x174;" horiz-adv-x="943" 
d="M906.5 684.5q20.5 -18.5 20.5 -46.5q0 -9 -3 -20l-197 -580q-6 -17 -21 -27t-33 -11q-18 0 -34 10t-25 29l-142 323l-143 -323q-9 -19 -25 -29t-34 -10q-18 1 -33 11t-21 27l-197 580q-3 11 -3 20q0 28 20.5 46.5t45.5 18.5q20 0 36 -10.5t22 -28.5l149 -452l130 312
q8 18 23 28.5t34 9.5q19 1 33.5 -9.5t22.5 -28.5l123 -309l148 449q6 18 22.5 28.5t36.5 10.5q24 0 44.5 -18.5zM615 779q3 -6 3 -14q0 -9 -9 -17t-22 -8q-9 0 -20 5t-31 17l-65 38l-65 -38q-16 -9 -29 -15.5t-22 -6.5q-13 0 -22 8t-9 17q0 8 3 14t12 16l63 72q13 15 27 22
t34 7h16q19 0 33.5 -7t27.5 -22l63 -72q9 -10 12 -16z" />
    <glyph glyph-name="Wdieresis" unicode="&#x1e84;" horiz-adv-x="943" 
d="M906.5 684.5q20.5 -18.5 20.5 -46.5q0 -9 -3 -20l-197 -580q-6 -17 -21 -27t-33 -11q-18 0 -34 10t-25 29l-142 323l-143 -323q-9 -19 -25 -29t-34 -10q-18 1 -33 11t-21 27l-197 580q-3 11 -3 20q0 28 20.5 46.5t45.5 18.5q20 0 36 -10.5t22 -28.5l149 -452l130 312
q8 18 23 28.5t34 9.5q19 1 33.5 -9.5t22.5 -28.5l123 -309l148 449q6 18 22.5 28.5t36.5 10.5q24 0 44.5 -18.5zM325 771.5q-14 11.5 -14 38.5v18q0 28 15 39t46 11q33 0 47.5 -11.5t14.5 -38.5v-18q0 -28 -14.5 -39t-48.5 -11q-32 0 -46 11.5zM524 771.5q-14 11.5 -14 38.5
v18q0 28 14.5 39t45.5 11q34 0 48.5 -11t14.5 -39v-18q0 -28 -14.5 -39t-48.5 -11q-32 0 -46 11.5z" />
    <glyph glyph-name="Wgrave" unicode="&#x1e80;" horiz-adv-x="943" 
d="M906.5 684.5q20.5 -18.5 20.5 -46.5q0 -9 -3 -20l-197 -580q-6 -17 -21 -27t-33 -11q-18 0 -34 10t-25 29l-142 323l-143 -323q-9 -19 -25 -29t-34 -10q-18 1 -33 11t-21 27l-197 580q-3 11 -3 20q0 28 20.5 46.5t45.5 18.5q20 0 36 -10.5t22 -28.5l149 -452l130 312
q8 18 23 28.5t34 9.5q19 1 33.5 -9.5t22.5 -28.5l123 -309l148 449q6 18 22.5 28.5t36.5 10.5q24 0 44.5 -18.5zM447 748l-100 53q-18 10 -27.5 24t-9.5 29q0 21 17 35t36 14q23 0 49 -22l86 -76q14 -13 14 -27q0 -16 -11.5 -26t-30.5 -10q-11 0 -23 6z" />
    <glyph glyph-name="X" unicode="X" horiz-adv-x="655" 
d="M597 92q12 -16 12 -37q0 -26 -19 -43t-41 -17q-29 0 -49 26l-178 237l-173 -235q-20 -28 -50 -28q-22 0 -38 16t-16 37q0 22 15 41l193 261l-193 256q-13 16 -13 36q0 25 19 43t42 18q29 0 49 -26l176 -234l172 229q10 14 23 21.5t26 7.5q22 0 39 -17.5t17 -38.5
q0 -19 -13 -36l-195 -257z" />
    <glyph glyph-name="Y" unicode="Y" horiz-adv-x="596" 
d="M570 604l-209 -299v-244q0 -26 -17 -43.5t-41 -17.5q-25 0 -42.5 17.5t-17.5 43.5v258l-208 276q-18 24 -18 47q0 26 20.5 43.5t43.5 17.5q28 0 49 -28l176 -243l165 241q21 30 50 30q24 0 42 -18t18 -44q0 -20 -11 -37z" />
    <glyph glyph-name="Yacute" unicode="&#xdd;" horiz-adv-x="596" 
d="M570 604l-209 -299v-244q0 -26 -17 -43.5t-41 -17.5q-25 0 -42.5 17.5t-17.5 43.5v258l-208 276q-18 24 -18 47q0 26 20.5 43.5t43.5 17.5q28 0 49 -28l176 -243l165 241q21 30 50 30q24 0 42 -18t18 -44q0 -20 -11 -37zM268.5 748q-11.5 10 -11.5 26q0 14 14 27l86 76
q26 22 49 22q19 0 36 -14t17 -35q0 -15 -9.5 -29.5t-27.5 -23.5l-100 -53q-10 -6 -23 -6q-19 0 -30.5 10z" />
    <glyph glyph-name="Ycircumflex" unicode="&#x176;" horiz-adv-x="596" 
d="M570 604l-209 -299v-244q0 -26 -17 -43.5t-41 -17.5q-25 0 -42.5 17.5t-17.5 43.5v258l-208 276q-18 24 -18 47q0 26 20.5 43.5t43.5 17.5q28 0 49 -28l176 -243l165 241q21 30 50 30q24 0 42 -18t18 -44q0 -20 -11 -37zM441 779q3 -6 3 -14q0 -9 -9 -17t-22 -8
q-9 0 -20 5t-31 17l-65 38l-65 -38q-16 -9 -29 -15.5t-22 -6.5q-13 0 -22 8t-9 17q0 8 3 14t12 16l63 72q13 15 27 22t34 7h16q19 0 33.5 -7t27.5 -22l63 -72q9 -10 12 -16z" />
    <glyph glyph-name="Ydieresis" unicode="&#x178;" horiz-adv-x="596" 
d="M570 604l-209 -299v-244q0 -26 -17 -43.5t-41 -17.5q-25 0 -42.5 17.5t-17.5 43.5v258l-208 276q-18 24 -18 47q0 26 20.5 43.5t43.5 17.5q28 0 49 -28l176 -243l165 241q21 30 50 30q24 0 42 -18t18 -44q0 -20 -11 -37zM151 771.5q-14 11.5 -14 38.5v18q0 28 15 39
t46 11q33 0 47.5 -11.5t14.5 -38.5v-18q0 -28 -14.5 -39t-48.5 -11q-32 0 -46 11.5zM350 771.5q-14 11.5 -14 38.5v18q0 28 14.5 39t45.5 11q34 0 48.5 -11t14.5 -39v-18q0 -28 -14.5 -39t-48.5 -11q-32 0 -46 11.5z" />
    <glyph glyph-name="uni1E8E" unicode="&#x1e8e;" horiz-adv-x="596" 
d="M570 604l-209 -299v-244q0 -26 -17 -43.5t-41 -17.5q-25 0 -42.5 17.5t-17.5 43.5v258l-208 276q-18 24 -18 47q0 26 20.5 43.5t43.5 17.5q28 0 49 -28l176 -243l165 241q21 30 50 30q24 0 42 -18t18 -44q0 -20 -11 -37zM249 751q-14 11 -14 39v19q0 28 14.5 39t47.5 11
q36 0 50 -11t14 -39v-19q0 -29 -15 -39.5t-50 -10.5q-33 0 -47 11z" />
    <glyph glyph-name="uni1EF4" unicode="&#x1ef4;" horiz-adv-x="596" 
d="M570 604l-209 -299v-244q0 -26 -17 -43.5t-41 -17.5q-25 0 -42.5 17.5t-17.5 43.5v258l-208 276q-18 24 -18 47q0 26 20.5 43.5t43.5 17.5q28 0 49 -28l176 -243l165 241q21 30 50 30q24 0 42 -18t18 -44q0 -20 -11 -37zM254 -137q-14 11 -14 39v19q0 28 15 39t46 11
q37 0 51 -11t14 -39v-19q0 -29 -15 -39.5t-50 -10.5q-33 0 -47 11z" />
    <glyph glyph-name="Ygrave" unicode="&#x1ef2;" horiz-adv-x="596" 
d="M570 604l-209 -299v-244q0 -26 -17 -43.5t-41 -17.5q-25 0 -42.5 17.5t-17.5 43.5v258l-208 276q-18 24 -18 47q0 26 20.5 43.5t43.5 17.5q28 0 49 -28l176 -243l165 241q21 30 50 30q24 0 42 -18t18 -44q0 -20 -11 -37zM273 748l-100 53q-18 10 -27.5 24t-9.5 29
q0 21 17 35t36 14q23 0 49 -22l86 -76q14 -13 14 -27q0 -16 -11.5 -26t-30.5 -10q-11 0 -23 6z" />
    <glyph glyph-name="uni1EF6" unicode="&#x1ef6;" horiz-adv-x="596" 
d="M570 604l-209 -299v-244q0 -26 -17 -43.5t-41 -17.5q-25 0 -42.5 17.5t-17.5 43.5v258l-208 276q-18 24 -18 47q0 26 20.5 43.5t43.5 17.5q28 0 49 -28l176 -243l165 241q21 30 50 30q24 0 42 -18t18 -44q0 -20 -11 -37zM237 949.5q18 7.5 43 7.5q56 0 79.5 -26.5
t23.5 -60.5q0 -16 -4.5 -28.5t-14.5 -25.5q-2 -3 -9.5 -12t-11 -15t-3.5 -11q0 -12 -11 -17.5t-29 -5.5q-11 0 -19.5 5.5t-8.5 17.5q0 18 16 39q23 31 23 43t-10 19.5t-24 7.5q-11 0 -20 -4.5t-22 -12.5q-10 -6 -16 -6q-12 0 -25 13q-9 9 -9 21q0 16 16 30q18 14 36 21.5z
" />
    <glyph glyph-name="uni0232" unicode="&#x232;" horiz-adv-x="596" 
d="M570 604l-209 -299v-244q0 -26 -17 -43.5t-41 -17.5q-25 0 -42.5 17.5t-17.5 43.5v258l-208 276q-18 24 -18 47q0 26 20.5 43.5t43.5 17.5q28 0 49 -28l176 -243l165 241q21 30 50 30q24 0 42 -18t18 -44q0 -20 -11 -37zM140 761.5q-13 11.5 -13 33.5q0 21 13 32.5
t37 11.5h242q24 0 37 -11.5t13 -32.5q0 -45 -50 -45h-242q-24 0 -37 11.5z" />
    <glyph glyph-name="uni1EF8" unicode="&#x1ef8;" horiz-adv-x="596" 
d="M570 604l-209 -299v-244q0 -26 -17 -43.5t-41 -17.5q-25 0 -42.5 17.5t-17.5 43.5v258l-208 276q-18 24 -18 47q0 26 20.5 43.5t43.5 17.5q28 0 49 -28l176 -243l165 241q21 30 50 30q24 0 42 -18t18 -44q0 -20 -11 -37zM124 755.5q-16 19.5 -16 51.5q0 34 30 61t81 27
q26 0 49 -10t54 -28q21 -12 33.5 -18t22.5 -6q11 0 17 6t3 15q-2 5 -2 14q0 16 10.5 25.5t26.5 9.5q23 0 39 -19.5t16 -49.5q0 -19 -11 -40t-32.5 -35.5t-51.5 -14.5q-29 0 -54 10t-63 29q-22 12 -35 17.5t-23 5.5q-11 0 -17 -6t-3 -15q2 -5 2 -14q0 -16 -10.5 -25.5
t-26.5 -9.5q-23 0 -39 19.5z" />
    <glyph glyph-name="Z" unicode="Z" horiz-adv-x="648" 
d="M599 603l-380 -488h319q27 0 44 -15.5t17 -41.5q0 -25 -17.5 -41.5t-43.5 -16.5h-439q-26 0 -45 18t-19 41q0 19 14 38l379 488h-289q-27 0 -44 16t-17 42q0 25 17.5 41t43.5 16h409q24 0 44.5 -17t20.5 -42q0 -19 -14 -38z" />
    <glyph glyph-name="Zacute" unicode="&#x179;" horiz-adv-x="648" 
d="M599 603l-380 -488h319q27 0 44 -15.5t17 -41.5q0 -25 -17.5 -41.5t-43.5 -16.5h-439q-26 0 -45 18t-19 41q0 19 14 38l379 488h-289q-27 0 -44 16t-17 42q0 25 17.5 41t43.5 16h409q24 0 44.5 -17t20.5 -42q0 -19 -14 -38zM294.5 748q-11.5 10 -11.5 26q0 14 14 27
l86 76q26 22 49 22q19 0 36 -14t17 -35q0 -15 -9.5 -29.5t-27.5 -23.5l-100 -53q-10 -6 -23 -6q-19 0 -30.5 10z" />
    <glyph glyph-name="Zcaron" unicode="&#x17d;" horiz-adv-x="648" 
d="M599 603l-380 -488h319q27 0 44 -15.5t17 -41.5q0 -25 -17.5 -41.5t-43.5 -16.5h-439q-26 0 -45 18t-19 41q0 19 14 38l379 488h-289q-27 0 -44 16t-17 42q0 25 17.5 41t43.5 16h409q24 0 44.5 -17t20.5 -42q0 -19 -14 -38zM463 888q9 -8 9 -17q0 -7 -3 -13t-12 -17
l-63 -72q-13 -15 -27.5 -22t-33.5 -7h-16q-20 0 -34 7t-27 22l-63 72q-9 11 -12 17t-3 13q0 9 9 17t22 8q20 0 51 -20l65 -42l65 42q31 20 51 20q13 0 22 -8z" />
    <glyph glyph-name="Zdotaccent" unicode="&#x17b;" horiz-adv-x="648" 
d="M599 603l-380 -488h319q27 0 44 -15.5t17 -41.5q0 -25 -17.5 -41.5t-43.5 -16.5h-439q-26 0 -45 18t-19 41q0 19 14 38l379 488h-289q-27 0 -44 16t-17 42q0 25 17.5 41t43.5 16h409q24 0 44.5 -17t20.5 -42q0 -19 -14 -38zM275 751q-14 11 -14 39v19q0 28 14.5 39
t47.5 11q36 0 50 -11t14 -39v-19q0 -29 -15 -39.5t-50 -10.5q-33 0 -47 11z" />
    <glyph glyph-name="uni1E92" unicode="&#x1e92;" horiz-adv-x="648" 
d="M599 603l-380 -488h319q27 0 44 -15.5t17 -41.5q0 -25 -17.5 -41.5t-43.5 -16.5h-439q-26 0 -45 18t-19 41q0 19 14 38l379 488h-289q-27 0 -44 16t-17 42q0 25 17.5 41t43.5 16h409q24 0 44.5 -17t20.5 -42q0 -19 -14 -38zM275 -136q-14 11 -14 39v19q0 28 15 39t46 11
q37 0 51 -11t14 -39v-19q0 -29 -15 -39.5t-50 -10.5q-33 0 -47 11z" />
    <glyph glyph-name="a" unicode="a" horiz-adv-x="623" 
d="M541 528q17 -17 17 -44v-423q0 -26 -17 -43.5t-43 -17.5t-42.5 17t-17.5 43q-25 -29 -67.5 -49.5t-89.5 -20.5q-69 0 -125 35.5t-88.5 98.5t-32.5 143t32 143.5t87.5 99t122.5 35.5q48 0 90 -17.5t71 -44.5v1q0 26 17 43.5t43 17.5t43 -17zM402 147.5q41 47.5 41 119.5
t-41 120t-106 48q-64 0 -105 -48t-41 -120t40.5 -119.5t105.5 -47.5t106 47.5z" />
    <glyph glyph-name="aacute" unicode="&#xe1;" horiz-adv-x="623" 
d="M541 528q17 -17 17 -44v-423q0 -26 -17 -43.5t-43 -17.5t-42.5 17t-17.5 43q-25 -29 -67.5 -49.5t-89.5 -20.5q-69 0 -125 35.5t-88.5 98.5t-32.5 143t32 143.5t87.5 99t122.5 35.5q48 0 90 -17.5t71 -44.5v1q0 26 17 43.5t43 17.5t43 -17zM402 147.5q41 47.5 41 119.5
t-41 120t-106 48q-64 0 -105 -48t-41 -120t40.5 -119.5t105.5 -47.5t106 47.5zM285.5 578q-11.5 9 -10.5 24q0 9 6 19l58 102q10 18 24 29t31 11q27 0 40.5 -14t12.5 -36q-2 -23 -19 -43l-76 -84q-16 -17 -45 -17q-10 0 -21.5 9z" />
    <glyph glyph-name="abreve" unicode="&#x103;" horiz-adv-x="623" 
d="M541 528q17 -17 17 -44v-423q0 -26 -17 -43.5t-43 -17.5t-42.5 17t-17.5 43q-25 -29 -67.5 -49.5t-89.5 -20.5q-69 0 -125 35.5t-88.5 98.5t-32.5 143t32 143.5t87.5 99t122.5 35.5q48 0 90 -17.5t71 -44.5v1q0 26 17 43.5t43 17.5t43 -17zM402 147.5q41 47.5 41 119.5
t-41 120t-106 48q-64 0 -105 -48t-41 -120t40.5 -119.5t105.5 -47.5t106 47.5zM203.5 595q-41.5 24 -59.5 69q-5 13 -5 22q0 15 9.5 24t24.5 9q20 0 32.5 -8.5t27.5 -27.5q24 -27 69 -27t69 27q15 19 27.5 27.5t32.5 8.5q15 0 24.5 -8.5t9.5 -23.5q0 -10 -4 -21
q-19 -46 -60.5 -70.5t-98.5 -24.5t-98.5 24z" />
    <glyph glyph-name="uni1EAF" unicode="&#x1eaf;" horiz-adv-x="623" 
d="M541 528q17 -17 17 -44v-423q0 -26 -17 -43.5t-43 -17.5t-42.5 17t-17.5 43q-25 -29 -67.5 -49.5t-89.5 -20.5q-69 0 -125 35.5t-88.5 98.5t-32.5 143t32 143.5t87.5 99t122.5 35.5q48 0 90 -17.5t71 -44.5v1q0 26 17 43.5t43 17.5t43 -17zM402 147.5q41 47.5 41 119.5
t-41 120t-106 48q-64 0 -105 -48t-41 -120t40.5 -119.5t105.5 -47.5t106 47.5zM215.5 601q-41.5 24 -59.5 69q-5 13 -5 22q0 15 9.5 24t24.5 9q20 0 32.5 -8.5t27.5 -27.5q24 -27 69 -27t69 27q15 19 27.5 27.5t32.5 8.5q15 0 24.5 -8.5t9.5 -23.5q0 -10 -4 -21
q-19 -46 -60.5 -70.5t-98.5 -24.5t-98.5 24zM297.5 725q-11.5 9 -10.5 24q0 9 6 19l58 102q10 18 24 29t31 11q27 0 40.5 -14t12.5 -36q-2 -23 -19 -43l-76 -84q-16 -17 -45 -17q-10 0 -21.5 9z" />
    <glyph glyph-name="uni1EB7" unicode="&#x1eb7;" horiz-adv-x="623" 
d="M541 528q17 -17 17 -44v-423q0 -26 -17 -43.5t-43 -17.5t-42.5 17t-17.5 43q-25 -29 -67.5 -49.5t-89.5 -20.5q-69 0 -125 35.5t-88.5 98.5t-32.5 143t32 143.5t87.5 99t122.5 35.5q48 0 90 -17.5t71 -44.5v1q0 26 17 43.5t43 17.5t43 -17zM402 147.5q41 47.5 41 119.5
t-41 120t-106 48q-64 0 -105 -48t-41 -120t40.5 -119.5t105.5 -47.5t106 47.5zM263 -149q-14 11 -14 39v19q0 28 15 39t46 11q37 0 51 -11t14 -39v-19q0 -29 -15 -39.5t-50 -10.5q-33 0 -47 11zM203.5 595q-41.5 24 -59.5 69q-5 13 -5 22q0 15 9.5 24t24.5 9q20 0 32.5 -8.5
t27.5 -27.5q24 -27 69 -27t69 27q15 19 27.5 27.5t32.5 8.5q15 0 24.5 -8.5t9.5 -23.5q0 -10 -4 -21q-19 -46 -60.5 -70.5t-98.5 -24.5t-98.5 24z" />
    <glyph glyph-name="uni1EB1" unicode="&#x1eb1;" horiz-adv-x="623" 
d="M541 528q17 -17 17 -44v-423q0 -26 -17 -43.5t-43 -17.5t-42.5 17t-17.5 43q-25 -29 -67.5 -49.5t-89.5 -20.5q-69 0 -125 35.5t-88.5 98.5t-32.5 143t32 143.5t87.5 99t122.5 35.5q48 0 90 -17.5t71 -44.5v1q0 26 17 43.5t43 17.5t43 -17zM402 147.5q41 47.5 41 119.5
t-41 120t-106 48q-64 0 -105 -48t-41 -120t40.5 -119.5t105.5 -47.5t106 47.5zM221.5 607q-41.5 24 -59.5 69q-5 13 -5 22q0 15 9.5 24t24.5 9q20 0 32.5 -8.5t27.5 -27.5q24 -27 69 -27t69 27q15 19 27.5 27.5t32.5 8.5q15 0 24.5 -8.5t9.5 -23.5q0 -10 -4 -21
q-19 -46 -60.5 -70.5t-98.5 -24.5t-98.5 24zM300 729l-100 53q-18 10 -27.5 24t-9.5 29q0 21 17 35t36 14q23 0 49 -22l86 -76q14 -13 14 -27q0 -16 -11.5 -26t-30.5 -10q-11 0 -23 6z" />
    <glyph glyph-name="uni1EB3" unicode="&#x1eb3;" horiz-adv-x="623" 
d="M541 528q17 -17 17 -44v-423q0 -26 -17 -43.5t-43 -17.5t-42.5 17t-17.5 43q-25 -29 -67.5 -49.5t-89.5 -20.5q-69 0 -125 35.5t-88.5 98.5t-32.5 143t32 143.5t87.5 99t122.5 35.5q48 0 90 -17.5t71 -44.5v1q0 26 17 43.5t43 17.5t43 -17zM402 147.5q41 47.5 41 119.5
t-41 120t-106 48q-64 0 -105 -48t-41 -120t40.5 -119.5t105.5 -47.5t106 47.5zM209.5 615q-41.5 24 -59.5 69q-5 13 -5 22q0 15 9.5 24t24.5 9q20 0 32.5 -8.5t27.5 -27.5q24 -27 69 -27t69 27q15 19 27.5 27.5t32.5 8.5q15 0 24.5 -8.5t9.5 -23.5q0 -10 -4 -21
q-19 -46 -60.5 -70.5t-98.5 -24.5t-98.5 24zM247 925.5q18 7.5 43 7.5q56 0 79.5 -26.5t23.5 -60.5q0 -16 -4.5 -28.5t-14.5 -25.5q-2 -3 -9.5 -12t-11 -15t-3.5 -11q0 -12 -10 -20t-24 -8t-24 8t-10 20q0 18 16 39q23 31 23 43t-10 19.5t-24 7.5q-11 0 -20 -4.5t-22 -12.5
q-10 -6 -16 -6q-12 0 -25 13q-9 9 -9 21q0 16 16 30q18 14 36 21.5z" />
    <glyph glyph-name="uni1EB5" unicode="&#x1eb5;" horiz-adv-x="623" 
d="M541 528q17 -17 17 -44v-423q0 -26 -17 -43.5t-43 -17.5t-42.5 17t-17.5 43q-25 -29 -67.5 -49.5t-89.5 -20.5q-69 0 -125 35.5t-88.5 98.5t-32.5 143t32 143.5t87.5 99t122.5 35.5q48 0 90 -17.5t71 -44.5v1q0 26 17 43.5t43 17.5t43 -17zM402 147.5q41 47.5 41 119.5
t-41 120t-106 48q-64 0 -105 -48t-41 -120t40.5 -119.5t105.5 -47.5t106 47.5zM187.5 595q-41.5 24 -59.5 69q-5 13 -5 22q0 15 9.5 24t24.5 9q20 0 32.5 -8.5t27.5 -27.5q24 -27 69 -27t69 27q15 19 27.5 27.5t32.5 8.5q15 0 24.5 -8.5t9.5 -23.5q0 -10 -4 -21
q-19 -46 -60.5 -70.5t-98.5 -24.5t-98.5 24zM113 749.5q-16 18.5 -16 49.5q0 35 32 61.5t91 26.5q26 0 47.5 -10.5t49.5 -29.5q17 -13 28.5 -19t21.5 -6q11 0 17 6t3 15q-2 5 -2 14q0 16 10.5 25.5t26.5 9.5q23 0 39 -18t16 -48q0 -19 -12 -40t-37.5 -35.5t-64.5 -14.5
q-20 0 -42 10t-52 28q-24 14 -37.5 20.5t-24.5 6.5t-17 -6t-3 -15q2 -5 2 -14q0 -16 -10.5 -25.5t-26.5 -9.5q-23 0 -39 18.5z" />
    <glyph glyph-name="uni01CE" unicode="&#x1ce;" horiz-adv-x="623" 
d="M541 528q17 -17 17 -44v-423q0 -26 -17 -43.5t-43 -17.5t-42.5 17t-17.5 43q-25 -29 -67.5 -49.5t-89.5 -20.5q-69 0 -125 35.5t-88.5 98.5t-32.5 143t32 143.5t87.5 99t122.5 35.5q48 0 90 -17.5t71 -44.5v1q0 26 17 43.5t43 17.5t43 -17zM402 147.5q41 47.5 41 119.5
t-41 120t-106 48q-64 0 -105 -48t-41 -120t40.5 -119.5t105.5 -47.5t106 47.5zM429 738.5q10 -7.5 10 -18.5q0 -16 -16 -35l-44 -55q-12 -16 -26.5 -23t-34.5 -7h-36q-20 0 -34.5 7t-26.5 23l-44 55q-12 16 -12 32q0 13 10.5 21t30.5 8q18 0 45 -23l50 -43l50 43
q16 13 26.5 18t28.5 5q13 0 23 -7.5z" />
    <glyph glyph-name="acircumflex" unicode="&#xe2;" horiz-adv-x="623" 
d="M541 528q17 -17 17 -44v-423q0 -26 -17 -43.5t-43 -17.5t-42.5 17t-17.5 43q-25 -29 -67.5 -49.5t-89.5 -20.5q-69 0 -125 35.5t-88.5 98.5t-32.5 143t32 143.5t87.5 99t122.5 35.5q48 0 90 -17.5t71 -44.5v1q0 26 17 43.5t43 17.5t43 -17zM402 147.5q41 47.5 41 119.5
t-41 120t-106 48q-64 0 -105 -48t-41 -120t40.5 -119.5t105.5 -47.5t106 47.5zM434 639q2 -6 2 -15q0 -10 -8.5 -17.5t-21.5 -7.5q-15 0 -22.5 4t-15 10.5t-11.5 9.5l-53 47l-57 -47q-4 -3 -12.5 -10.5t-16.5 -10.5t-20 -3q-13 0 -21.5 7.5t-8.5 17.5q0 9 2 15t10 16l49 62
q23 29 61 29h36q20 0 31.5 -6t22.5 -23l44 -62q8 -10 10 -16z" />
    <glyph glyph-name="uni1EA5" unicode="&#x1ea5;" horiz-adv-x="623" 
d="M541 528q17 -17 17 -44v-423q0 -26 -17 -43.5t-43 -17.5t-42.5 17t-17.5 43q-25 -29 -67.5 -49.5t-89.5 -20.5q-69 0 -125 35.5t-88.5 98.5t-32.5 143t32 143.5t87.5 99t122.5 35.5q48 0 90 -17.5t71 -44.5v1q0 26 17 43.5t43 17.5t43 -17zM402 147.5q41 47.5 41 119.5
t-41 120t-106 48q-64 0 -105 -48t-41 -120t40.5 -119.5t105.5 -47.5t106 47.5zM427 639q2 -6 2 -15q0 -10 -8.5 -17.5t-21.5 -7.5q-15 0 -22.5 4t-15 10.5t-11.5 9.5l-53 47l-57 -47q-4 -3 -12.5 -10.5t-16.5 -10.5t-20 -3q-13 0 -21.5 7.5t-8.5 17.5q0 9 2 15t10 16l49 62
q23 29 61 29h36q20 0 31.5 -6t22.5 -23l44 -62q8 -10 10 -16zM417.5 688q-11.5 9 -10.5 24q0 9 6 19l58 102q10 18 24 29t31 11q27 0 40.5 -14t12.5 -36q-2 -23 -19 -43l-76 -84q-16 -17 -45 -17q-10 0 -21.5 9z" />
    <glyph glyph-name="uni1EAD" unicode="&#x1ead;" horiz-adv-x="623" 
d="M541 528q17 -17 17 -44v-423q0 -26 -17 -43.5t-43 -17.5t-42.5 17t-17.5 43q-25 -29 -67.5 -49.5t-89.5 -20.5q-69 0 -125 35.5t-88.5 98.5t-32.5 143t32 143.5t87.5 99t122.5 35.5q48 0 90 -17.5t71 -44.5v1q0 26 17 43.5t43 17.5t43 -17zM402 147.5q41 47.5 41 119.5
t-41 120t-106 48q-64 0 -105 -48t-41 -120t40.5 -119.5t105.5 -47.5t106 47.5zM263 -149q-14 11 -14 39v19q0 28 15 39t46 11q37 0 51 -11t14 -39v-19q0 -29 -15 -39.5t-50 -10.5q-33 0 -47 11zM434 639q2 -6 2 -15q0 -10 -8.5 -17.5t-21.5 -7.5q-15 0 -22.5 4t-15 10.5
t-11.5 9.5l-53 47l-57 -47q-4 -3 -12.5 -10.5t-16.5 -10.5t-20 -3q-13 0 -21.5 7.5t-8.5 17.5q0 9 2 15t10 16l49 62q23 29 61 29h36q20 0 31.5 -6t22.5 -23l44 -62q8 -10 10 -16z" />
    <glyph glyph-name="uni1EA7" unicode="&#x1ea7;" horiz-adv-x="623" 
d="M541 528q17 -17 17 -44v-423q0 -26 -17 -43.5t-43 -17.5t-42.5 17t-17.5 43q-25 -29 -67.5 -49.5t-89.5 -20.5q-69 0 -125 35.5t-88.5 98.5t-32.5 143t32 143.5t87.5 99t122.5 35.5q48 0 90 -17.5t71 -44.5v1q0 26 17 43.5t43 17.5t43 -17zM402 147.5q41 47.5 41 119.5
t-41 120t-106 48q-64 0 -105 -48t-41 -120t40.5 -119.5t105.5 -47.5t106 47.5zM427 639q2 -6 2 -15q0 -10 -8.5 -17.5t-21.5 -7.5q-15 0 -22.5 4t-15 10.5t-11.5 9.5l-53 47l-57 -47q-4 -3 -12.5 -10.5t-16.5 -10.5t-20 -3q-13 0 -21.5 7.5t-8.5 17.5q0 9 2 15t10 16l49 62
q23 29 61 29h36q20 0 31.5 -6t22.5 -23l44 -62q8 -10 10 -16zM419 740l-100 53q-18 10 -27.5 24t-9.5 29q0 21 17 35t36 14q23 0 49 -22l86 -76q14 -13 14 -27q0 -16 -11.5 -26t-30.5 -10q-11 0 -23 6z" />
    <glyph glyph-name="uni1EA9" unicode="&#x1ea9;" horiz-adv-x="623" 
d="M541 528q17 -17 17 -44v-423q0 -26 -17 -43.5t-43 -17.5t-42.5 17t-17.5 43q-25 -29 -67.5 -49.5t-89.5 -20.5q-69 0 -125 35.5t-88.5 98.5t-32.5 143t32 143.5t87.5 99t122.5 35.5q48 0 90 -17.5t71 -44.5v1q0 26 17 43.5t43 17.5t43 -17zM402 147.5q41 47.5 41 119.5
t-41 120t-106 48q-64 0 -105 -48t-41 -120t40.5 -119.5t105.5 -47.5t106 47.5zM432 610q2 -6 2 -15q0 -10 -8.5 -17.5t-21.5 -7.5q-15 0 -22.5 4t-15 10.5t-11.5 9.5l-53 47l-57 -47q-4 -3 -12.5 -10.5t-16.5 -10.5t-20 -3q-13 0 -21.5 7.5t-8.5 17.5q0 9 2 15t10 16l49 62
q23 29 61 29h36q20 0 31.5 -6t22.5 -23l44 -62q8 -10 10 -16zM400 839.5q18 7.5 43 7.5q56 0 79.5 -26.5t23.5 -60.5q0 -16 -4.5 -28.5t-14.5 -25.5q-2 -3 -9.5 -12t-11 -15t-3.5 -11q0 -12 -10 -20t-24 -8t-24 8t-10 20q0 18 16 39q23 31 23 43t-10 19.5t-24 7.5
q-11 0 -20 -4.5t-22 -12.5q-10 -6 -16 -6q-12 0 -25 13q-9 9 -9 21q0 16 16 30q18 14 36 21.5z" />
    <glyph glyph-name="uni1EAB" unicode="&#x1eab;" horiz-adv-x="623" 
d="M541 528q17 -17 17 -44v-423q0 -26 -17 -43.5t-43 -17.5t-42.5 17t-17.5 43q-25 -29 -67.5 -49.5t-89.5 -20.5q-69 0 -125 35.5t-88.5 98.5t-32.5 143t32 143.5t87.5 99t122.5 35.5q48 0 90 -17.5t71 -44.5v1q0 26 17 43.5t43 17.5t43 -17zM402 147.5q41 47.5 41 119.5
t-41 120t-106 48q-64 0 -105 -48t-41 -120t40.5 -119.5t105.5 -47.5t106 47.5zM429 604q2 -6 2 -15q0 -10 -8.5 -17.5t-21.5 -7.5q-15 0 -22.5 4t-15 10.5t-11.5 9.5l-53 47l-57 -47q-4 -3 -12.5 -10.5t-16.5 -10.5t-20 -3q-13 0 -21.5 7.5t-8.5 17.5q0 9 2 15t10 16l49 62
q23 29 61 29h36q20 0 31.5 -6t22.5 -23l44 -62q8 -10 10 -16zM131 744.5q-16 18.5 -16 49.5q0 35 32 61.5t91 26.5q26 0 47.5 -10.5t49.5 -29.5q17 -13 28.5 -19t21.5 -6q11 0 17 6t3 15q-2 5 -2 14q0 16 10.5 25.5t26.5 9.5q23 0 39 -18t16 -48q0 -19 -12 -40t-37.5 -35.5
t-64.5 -14.5q-20 0 -42 10t-52 28q-24 14 -37.5 20.5t-24.5 6.5t-17 -6t-3 -15q2 -5 2 -14q0 -16 -10.5 -25.5t-26.5 -9.5q-23 0 -39 18.5z" />
    <glyph glyph-name="uni0201" unicode="&#x201;" horiz-adv-x="623" 
d="M541 528q17 -17 17 -44v-423q0 -26 -17 -43.5t-43 -17.5t-42.5 17t-17.5 43q-25 -29 -67.5 -49.5t-89.5 -20.5q-69 0 -125 35.5t-88.5 98.5t-32.5 143t32 143.5t87.5 99t122.5 35.5q48 0 90 -17.5t71 -44.5v1q0 26 17 43.5t43 17.5t43 -17zM402 147.5q41 47.5 41 119.5
t-41 120t-106 48q-64 0 -105 -48t-41 -120t40.5 -119.5t105.5 -47.5t106 47.5zM199 606l-100 53q-18 10 -27.5 24t-9.5 29q0 21 17 35t36 14q23 0 49 -22l86 -76q14 -13 14 -27q0 -16 -11.5 -26t-30.5 -10q-11 0 -23 6zM385 606l-100 53q-18 10 -27.5 24t-9.5 29q0 21 17 35
t36 14q23 0 49 -22l86 -76q14 -13 14 -27q0 -16 -11.5 -26t-30.5 -10q-11 0 -23 6z" />
    <glyph glyph-name="adieresis" unicode="&#xe4;" horiz-adv-x="623" 
d="M541 528q17 -17 17 -44v-423q0 -26 -17 -43.5t-43 -17.5t-42.5 17t-17.5 43q-25 -29 -67.5 -49.5t-89.5 -20.5q-69 0 -125 35.5t-88.5 98.5t-32.5 143t32 143.5t87.5 99t122.5 35.5q48 0 90 -17.5t71 -44.5v1q0 26 17 43.5t43 17.5t43 -17zM402 147.5q41 47.5 41 119.5
t-41 120t-106 48q-64 0 -105 -48t-41 -120t40.5 -119.5t105.5 -47.5t106 47.5zM155 611.5q-14 11.5 -14 38.5v18q0 27 14.5 38.5t44.5 11.5q36 0 50 -11t14 -39v-18q0 -29 -14.5 -39.5t-49.5 -10.5q-31 0 -45 11.5zM354 611.5q-14 11.5 -14 38.5v18q0 28 15 39t46 11
q33 0 47.5 -11.5t14.5 -38.5v-18q0 -29 -14.5 -39.5t-49.5 -10.5q-31 0 -45 11.5z" />
    <glyph glyph-name="uni1EA1" unicode="&#x1ea1;" horiz-adv-x="623" 
d="M541 528q17 -17 17 -44v-423q0 -26 -17 -43.5t-43 -17.5t-42.5 17t-17.5 43q-25 -29 -67.5 -49.5t-89.5 -20.5q-69 0 -125 35.5t-88.5 98.5t-32.5 143t32 143.5t87.5 99t122.5 35.5q48 0 90 -17.5t71 -44.5v1q0 26 17 43.5t43 17.5t43 -17zM402 147.5q41 47.5 41 119.5
t-41 120t-106 48q-64 0 -105 -48t-41 -120t40.5 -119.5t105.5 -47.5t106 47.5zM263 -149q-14 11 -14 39v19q0 28 15 39t46 11q37 0 51 -11t14 -39v-19q0 -29 -15 -39.5t-50 -10.5q-33 0 -47 11z" />
    <glyph glyph-name="agrave" unicode="&#xe0;" horiz-adv-x="623" 
d="M541 528q17 -17 17 -44v-423q0 -26 -17 -43.5t-43 -17.5t-42.5 17t-17.5 43q-25 -29 -67.5 -49.5t-89.5 -20.5q-69 0 -125 35.5t-88.5 98.5t-32.5 143t32 143.5t87.5 99t122.5 35.5q48 0 90 -17.5t71 -44.5v1q0 26 17 43.5t43 17.5t43 -17zM402 147.5q41 47.5 41 119.5
t-41 120t-106 48q-64 0 -105 -48t-41 -120t40.5 -119.5t105.5 -47.5t106 47.5zM282 576l-100 53q-18 10 -27.5 24t-9.5 29q0 21 17 35t36 14q23 0 49 -22l86 -76q14 -13 14 -27q0 -16 -11.5 -26t-30.5 -10q-11 0 -23 6z" />
    <glyph glyph-name="uni1EA3" unicode="&#x1ea3;" horiz-adv-x="623" 
d="M541 528q17 -17 17 -44v-423q0 -26 -17 -43.5t-43 -17.5t-42.5 17t-17.5 43q-25 -29 -67.5 -49.5t-89.5 -20.5q-69 0 -125 35.5t-88.5 98.5t-32.5 143t32 143.5t87.5 99t122.5 35.5q48 0 90 -17.5t71 -44.5v1q0 26 17 43.5t43 17.5t43 -17zM402 147.5q41 47.5 41 119.5
t-41 120t-106 48q-64 0 -105 -48t-41 -120t40.5 -119.5t105.5 -47.5t106 47.5zM241 764.5q18 7.5 43 7.5q56 0 79.5 -26.5t23.5 -60.5q0 -16 -4.5 -28.5t-14.5 -25.5q-2 -3 -9.5 -12t-11 -15t-3.5 -11q0 -12 -10 -20t-24 -8t-24 8t-10 20q0 18 16 39q23 31 23 43t-10 19.5
t-24 7.5q-11 0 -20 -4.5t-22 -12.5q-10 -6 -16 -6q-12 0 -25 13q-9 9 -9 21q0 16 16 30q18 14 36 21.5z" />
    <glyph glyph-name="uni0203" unicode="&#x203;" horiz-adv-x="623" 
d="M541 528q17 -17 17 -44v-423q0 -26 -17 -43.5t-43 -17.5t-42.5 17t-17.5 43q-25 -29 -67.5 -49.5t-89.5 -20.5q-69 0 -125 35.5t-88.5 98.5t-32.5 143t32 143.5t87.5 99t122.5 35.5q48 0 90 -17.5t71 -44.5v1q0 26 17 43.5t43 17.5t43 -17zM402 147.5q41 47.5 41 119.5
t-41 120t-106 48q-64 0 -105 -48t-41 -120t40.5 -119.5t105.5 -47.5t106 47.5zM400.5 724q41.5 -24 59.5 -69q5 -13 5 -22q0 -15 -9.5 -24t-24.5 -9q-20 0 -32.5 8.5t-27.5 27.5q-24 27 -69 27t-69 -27q-15 -19 -27.5 -27.5t-32.5 -8.5q-15 0 -24.5 8.5t-9.5 23.5q0 10 4 21
q19 46 60.5 70.5t98.5 24.5t98.5 -24z" />
    <glyph glyph-name="amacron" unicode="&#x101;" horiz-adv-x="623" 
d="M541 528q17 -17 17 -44v-423q0 -26 -17 -43.5t-43 -17.5t-42.5 17t-17.5 43q-25 -29 -67.5 -49.5t-89.5 -20.5q-69 0 -125 35.5t-88.5 98.5t-32.5 143t32 143.5t87.5 99t122.5 35.5q48 0 90 -17.5t71 -44.5v1q0 26 17 43.5t43 17.5t43 -17zM402 147.5q41 47.5 41 119.5
t-41 120t-106 48q-64 0 -105 -48t-41 -120t40.5 -119.5t105.5 -47.5t106 47.5zM144 611.5q-13 11.5 -13 33.5q0 21 13 32.5t37 11.5h242q24 0 37 -11.5t13 -32.5q0 -45 -50 -45h-242q-24 0 -37 11.5z" />
    <glyph glyph-name="aogonek" unicode="&#x105;" horiz-adv-x="623" 
d="M549.5 -107q12.5 -13 12.5 -35q0 -16 -16.5 -34t-43.5 -29.5t-56 -11.5q-53 0 -86.5 27t-33.5 80t30.5 86t81.5 54v29q-25 -28 -67.5 -48.5t-89.5 -20.5q-69 0 -125 35.5t-88.5 98.5t-32.5 143t32 143.5t87.5 99t122.5 35.5q48 0 90 -17.5t71 -44.5v1q0 26 17 43.5
t43 17.5t43 -17t17 -44v-459q0 -12 -6.5 -22.5t-20.5 -14.5q-48 -14 -77 -33t-29 -43q0 -17 9 -26.5t22 -9.5q12 0 21 12q14 18 41 18q19 0 31.5 -13zM402 147.5q41 47.5 41 119.5t-41 120t-106 48q-64 0 -105 -48t-41 -120t40.5 -119.5t105.5 -47.5t106 47.5z" />
    <glyph glyph-name="aring" unicode="&#xe5;" horiz-adv-x="623" 
d="M541 528q17 -17 17 -44v-423q0 -26 -17 -43.5t-43 -17.5t-42.5 17t-17.5 43q-25 -29 -67.5 -49.5t-89.5 -20.5q-69 0 -125 35.5t-88.5 98.5t-32.5 143t32 143.5t87.5 99t122.5 35.5q48 0 90 -17.5t71 -44.5v1q0 26 17 43.5t43 17.5t43 -17zM402 147.5q41 47.5 41 119.5
t-41 120t-106 48q-64 0 -105 -48t-41 -120t40.5 -119.5t105.5 -47.5t106 47.5zM248 585q-26 15 -42 40t-16 54q0 46 34 78.5t80 32.5t80 -32.5t34 -78.5q0 -29 -16 -54t-42 -40t-56 -15t-56 15zM335.5 651q12.5 11 12.5 28q0 20 -13 30.5t-31 10.5q-19 0 -31.5 -11
t-12.5 -30q0 -17 12.5 -28t31.5 -11t31.5 11z" />
    <glyph glyph-name="aringacute" unicode="&#x1fb;" horiz-adv-x="623" 
d="M541 528q17 -17 17 -44v-423q0 -26 -17 -43.5t-43 -17.5t-42.5 17t-17.5 43q-25 -29 -67.5 -49.5t-89.5 -20.5q-69 0 -125 35.5t-88.5 98.5t-32.5 143t32 143.5t87.5 99t122.5 35.5q48 0 90 -17.5t71 -44.5v1q0 26 17 43.5t43 17.5t43 -17zM402 147.5q41 47.5 41 119.5
t-41 120t-106 48q-64 0 -105 -48t-41 -120t40.5 -119.5t105.5 -47.5t106 47.5zM248 585q-26 15 -42 40t-16 54q0 46 34 78.5t80 32.5t80 -32.5t34 -78.5q0 -29 -16 -54t-42 -40t-56 -15t-56 15zM335.5 651q12.5 11 12.5 28q0 20 -13 30.5t-31 10.5q-19 0 -31.5 -11
t-12.5 -30q0 -17 12.5 -28t31.5 -11t31.5 11zM272.5 828q-11.5 10 -11.5 26q0 14 14 27l86 76q26 22 49 22q19 0 36 -14t17 -35q0 -15 -9.5 -29.5t-27.5 -23.5l-100 -53q-10 -6 -23 -6q-19 0 -30.5 10z" />
    <glyph glyph-name="atilde" unicode="&#xe3;" horiz-adv-x="623" 
d="M541 528q17 -17 17 -44v-423q0 -26 -17 -43.5t-43 -17.5t-42.5 17t-17.5 43q-25 -29 -67.5 -49.5t-89.5 -20.5q-69 0 -125 35.5t-88.5 98.5t-32.5 143t32 143.5t87.5 99t122.5 35.5q48 0 90 -17.5t71 -44.5v1q0 26 17 43.5t43 17.5t43 -17zM402 147.5q41 47.5 41 119.5
t-41 120t-106 48q-64 0 -105 -48t-41 -120t40.5 -119.5t105.5 -47.5t106 47.5zM129 608.5q-16 18.5 -16 49.5q0 35 32 61.5t91 26.5q26 0 47.5 -10.5t49.5 -29.5q17 -13 28.5 -19t21.5 -6q11 0 17 6t3 15q-2 5 -2 14q0 16 10.5 25.5t26.5 9.5q23 0 39 -18t16 -48
q0 -19 -12 -40t-37.5 -35.5t-64.5 -14.5q-20 0 -42 10t-52 28q-24 14 -37.5 20.5t-24.5 6.5t-17 -6t-3 -15q2 -5 2 -14q0 -16 -10.5 -25.5t-26.5 -9.5q-23 0 -39 18.5z" />
    <glyph glyph-name="ae" unicode="&#xe6;" horiz-adv-x="916" 
d="M862 241q-18 -15 -42 -15h-330q12 -59 55 -92.5t97 -33.5q41 0 64 7.5t36.5 16l18.5 11.5q18 9 34 9q21 0 36 -15t15 -35q0 -27 -28 -49q-28 -23 -75 -39t-95 -16q-71 0 -127.5 25.5t-93.5 72.5q-31 -38 -83.5 -68t-115.5 -30q-48 0 -91.5 18t-71 55t-27.5 91
q0 172 215 172h118v25q0 84 -107 84q-48 0 -76 -16.5t-57 -50.5q-19 -21 -45 -21q-20 0 -35.5 13.5t-15.5 34.5q0 23 14 41q88 109 218 109q58 0 109.5 -16.5t80.5 -52.5q35 34 79 51.5t92 17.5q66 0 124.5 -36t93.5 -97t35 -132q-1 -24 -19 -39zM491 326h262v7
q-4 42 -41 72t-84 30q-116 0 -137 -109zM373 226h-132q-48 0 -65.5 -20t-17.5 -50q0 -29 21.5 -43.5t52.5 -14.5q59 0 95.5 24t54.5 57q-6 22 -9 47z" />
    <glyph glyph-name="aeacute" unicode="&#x1fd;" horiz-adv-x="916" 
d="M862 241q-18 -15 -42 -15h-330q12 -59 55 -92.5t97 -33.5q41 0 64 7.5t36.5 16l18.5 11.5q18 9 34 9q21 0 36 -15t15 -35q0 -27 -28 -49q-28 -23 -75 -39t-95 -16q-71 0 -127.5 25.5t-93.5 72.5q-31 -38 -83.5 -68t-115.5 -30q-48 0 -91.5 18t-71 55t-27.5 91
q0 172 215 172h118v25q0 84 -107 84q-48 0 -76 -16.5t-57 -50.5q-19 -21 -45 -21q-20 0 -35.5 13.5t-15.5 34.5q0 23 14 41q88 109 218 109q58 0 109.5 -16.5t80.5 -52.5q35 34 79 51.5t92 17.5q66 0 124.5 -36t93.5 -97t35 -132q-1 -24 -19 -39zM491 326h262v7
q-4 42 -41 72t-84 30q-116 0 -137 -109zM373 226h-132q-48 0 -65.5 -20t-17.5 -50q0 -29 21.5 -43.5t52.5 -14.5q59 0 95.5 24t54.5 57q-6 22 -9 47zM399.5 578q-11.5 9 -10.5 24q0 9 6 19l58 102q10 18 24 29t31 11q27 0 40.5 -14t12.5 -36q-2 -23 -19 -43l-76 -84
q-16 -17 -45 -17q-10 0 -21.5 9z" />
    <glyph glyph-name="b" unicode="b" horiz-adv-x="623" 
d="M467 509.5q56 -35.5 88.5 -98.5t32.5 -143t-32 -143.5t-87.5 -99t-122.5 -35.5q-48 0 -90.5 19.5t-70.5 47.5v-6q0 -26 -17 -43.5t-43 -17.5t-43 17t-17 44v628q0 26 17 43.5t43 17.5t43 -17.5t17 -43.5v-209q24 30 67 52.5t90 22.5q69 0 125 -35.5zM432 148
q41 48 41 120t-40.5 119.5t-105.5 47.5t-106 -47.5t-41 -119.5t41 -120t106 -48q64 0 105 48z" />
    <glyph glyph-name="c" unicode="c" horiz-adv-x="515" 
d="M435 518.5q52 -26.5 52 -70.5q0 -22 -13 -38.5t-34 -16.5q-16 0 -26 4.5t-19.5 12t-18.5 12.5q-10 5 -29.5 9t-31.5 4q-75 0 -117.5 -46.5t-42.5 -121.5q0 -72 43 -119.5t110 -47.5q49 0 73 12q6 3 16.5 10.5t19.5 11.5t22 4q25 0 39.5 -16t14.5 -41q0 -24 -28 -45
t-74 -33.5t-98 -12.5q-77 0 -135.5 36t-90.5 99.5t-32 141.5q0 81 33.5 144t93.5 98.5t136 35.5q85 0 137 -26.5z" />
    <glyph glyph-name="cacute" unicode="&#x107;" horiz-adv-x="515" 
d="M435 518.5q52 -26.5 52 -70.5q0 -22 -13 -38.5t-34 -16.5q-16 0 -26 4.5t-19.5 12t-18.5 12.5q-10 5 -29.5 9t-31.5 4q-75 0 -117.5 -46.5t-42.5 -121.5q0 -72 43 -119.5t110 -47.5q49 0 73 12q6 3 16.5 10.5t19.5 11.5t22 4q25 0 39.5 -16t14.5 -41q0 -24 -28 -45
t-74 -33.5t-98 -12.5q-77 0 -135.5 36t-90.5 99.5t-32 141.5q0 81 33.5 144t93.5 98.5t136 35.5q85 0 137 -26.5zM281.5 578q-11.5 9 -10.5 24q0 9 6 19l58 102q10 18 24 29t31 11q27 0 40.5 -14t12.5 -36q-2 -23 -19 -43l-76 -84q-16 -17 -45 -17q-10 0 -21.5 9z" />
    <glyph glyph-name="ccaron" unicode="&#x10d;" horiz-adv-x="515" 
d="M435 518.5q52 -26.5 52 -70.5q0 -22 -13 -38.5t-34 -16.5q-16 0 -26 4.5t-19.5 12t-18.5 12.5q-10 5 -29.5 9t-31.5 4q-75 0 -117.5 -46.5t-42.5 -121.5q0 -72 43 -119.5t110 -47.5q49 0 73 12q6 3 16.5 10.5t19.5 11.5t22 4q25 0 39.5 -16t14.5 -41q0 -24 -28 -45
t-74 -33.5t-98 -12.5q-77 0 -135.5 36t-90.5 99.5t-32 141.5q0 81 33.5 144t93.5 98.5t136 35.5q85 0 137 -26.5zM425 738.5q10 -7.5 10 -18.5q0 -16 -16 -35l-44 -55q-12 -16 -26.5 -23t-34.5 -7h-36q-20 0 -34.5 7t-26.5 23l-44 55q-12 16 -12 32q0 13 10.5 21t30.5 8
q18 0 45 -23l50 -43l50 43q16 13 26.5 18t28.5 5q13 0 23 -7.5z" />
    <glyph glyph-name="ccedilla" unicode="&#xe7;" horiz-adv-x="515" 
d="M443.5 22q-49.5 -26 -119.5 -31l-41 -110q-12 -32 -41 -32q-19 0 -42 13t-23 33q0 15 12 30l52 70q-95 17 -150.5 91.5t-55.5 180.5q0 81 33.5 144t93.5 98.5t136 35.5q85 0 137 -26.5t52 -70.5q0 -22 -13 -38.5t-34 -16.5q-16 0 -26 4.5t-19.5 12t-18.5 12.5
q-10 5 -29.5 9t-31.5 4q-75 0 -117.5 -46.5t-42.5 -121.5q0 -72 43 -119.5t110 -47.5q49 0 73 12q6 3 16.5 10.5t19.5 11.5t22 4q25 0 39.5 -16t14.5 -41q0 -33 -49.5 -59z" />
    <glyph glyph-name="uni1E09" unicode="&#x1e09;" horiz-adv-x="515" 
d="M281.5 578q-11.5 9 -10.5 24q0 9 6 19l58 102q10 18 24 29t31 11q27 0 40.5 -14t12.5 -36q-2 -23 -19 -43l-76 -84q-16 -17 -45 -17q-10 0 -21.5 9zM443.5 22q-49.5 -26 -119.5 -31l-41 -110q-12 -32 -41 -32q-19 0 -42 13t-23 33q0 15 12 30l52 70q-95 17 -150.5 91.5
t-55.5 180.5q0 81 33.5 144t93.5 98.5t136 35.5q85 0 137 -26.5t52 -70.5q0 -22 -13 -38.5t-34 -16.5q-16 0 -26 4.5t-19.5 12t-18.5 12.5q-10 5 -29.5 9t-31.5 4q-75 0 -117.5 -46.5t-42.5 -121.5q0 -72 43 -119.5t110 -47.5q49 0 73 12q6 3 16.5 10.5t19.5 11.5t22 4
q25 0 39.5 -16t14.5 -41q0 -33 -49.5 -59z" />
    <glyph glyph-name="ccircumflex" unicode="&#x109;" horiz-adv-x="515" 
d="M435 518.5q52 -26.5 52 -70.5q0 -22 -13 -38.5t-34 -16.5q-16 0 -26 4.5t-19.5 12t-18.5 12.5q-10 5 -29.5 9t-31.5 4q-75 0 -117.5 -46.5t-42.5 -121.5q0 -72 43 -119.5t110 -47.5q49 0 73 12q6 3 16.5 10.5t19.5 11.5t22 4q25 0 39.5 -16t14.5 -41q0 -24 -28 -45
t-74 -33.5t-98 -12.5q-77 0 -135.5 36t-90.5 99.5t-32 141.5q0 81 33.5 144t93.5 98.5t136 35.5q85 0 137 -26.5zM430 639q2 -6 2 -15q0 -10 -8.5 -17.5t-21.5 -7.5q-15 0 -22.5 4t-15 10.5t-11.5 9.5l-53 47l-57 -47q-4 -3 -12.5 -10.5t-16.5 -10.5t-20 -3q-13 0 -21.5 7.5
t-8.5 17.5q0 9 2 15t10 16l49 62q23 29 61 29h36q20 0 31.5 -6t22.5 -23l44 -62q8 -10 10 -16z" />
    <glyph glyph-name="cdotaccent" unicode="&#x10b;" horiz-adv-x="515" 
d="M435 518.5q52 -26.5 52 -70.5q0 -22 -13 -38.5t-34 -16.5q-16 0 -26 4.5t-19.5 12t-18.5 12.5q-10 5 -29.5 9t-31.5 4q-75 0 -117.5 -46.5t-42.5 -121.5q0 -72 43 -119.5t110 -47.5q49 0 73 12q6 3 16.5 10.5t19.5 11.5t22 4q25 0 39.5 -16t14.5 -41q0 -24 -28 -45
t-74 -33.5t-98 -12.5q-77 0 -135.5 36t-90.5 99.5t-32 141.5q0 81 33.5 144t93.5 98.5t136 35.5q85 0 137 -26.5zM249 611q-14 11 -14 39v19q0 28 15 39t48 11q35 0 49 -11t14 -39v-19q0 -29 -14.5 -39.5t-49.5 -10.5q-34 0 -48 11z" />
    <glyph glyph-name="d" unicode="d" horiz-adv-x="623" 
d="M541 723q17 -17 17 -44v-618q0 -26 -17 -43.5t-43 -17.5t-42.5 17t-17.5 43q-25 -29 -67.5 -49.5t-89.5 -20.5q-69 0 -125 35.5t-88.5 98.5t-32.5 143t32 143.5t87.5 99t122.5 35.5q48 0 90 -17.5t71 -44.5v196q0 26 17 43.5t43 17.5t43 -17zM402 147.5q41 47.5 41 119.5
t-41 120t-106 48q-64 0 -105 -48t-41 -120t40.5 -119.5t105.5 -47.5t106 47.5z" />
    <glyph glyph-name="eth" unicode="&#xf0;" horiz-adv-x="576" 
d="M519 449.5q22 -79.5 22 -169.5q0 -89 -33.5 -155t-91 -100.5t-128.5 -34.5q-70 0 -128 36t-91.5 98.5t-33.5 137.5q0 74 34.5 136.5t89.5 99t113 36.5q64 0 111 -36q-14 37 -42 63l-165 -33q-12 -2 -19 -2q-19 0 -30.5 10t-11.5 31q0 31 41 39l68 14l-3 1
q-24 6 -38.5 22.5t-14.5 38.5t13.5 40t38.5 18q15 0 31 -4q80 -24 138 -74l59 9q5 1 15 1q38 0 45 -30q1 -3 1 -10q0 -32 -41 -39l-15 -2q44 -62 66 -141.5zM355.5 130q30.5 20 48 54.5t17.5 77.5t-17.5 77.5t-48 54.5t-67.5 20t-67.5 -20t-48 -54.5t-17.5 -77.5t17.5 -77.5
t48 -54.5t67.5 -20t67.5 20z" />
    <glyph glyph-name="dcaron" unicode="&#x10f;" horiz-adv-x="816" 
d="M541 723q17 -17 17 -44v-618q0 -26 -17 -43.5t-43 -17.5t-42.5 17t-17.5 43q-25 -29 -67.5 -49.5t-89.5 -20.5q-69 0 -125 35.5t-88.5 98.5t-32.5 143t32 143.5t87.5 99t122.5 35.5q48 0 90 -17.5t71 -44.5v196q0 26 17 43.5t43 17.5t43 -17zM402 147.5q41 47.5 41 119.5
t-41 120t-106 48q-64 0 -105 -48t-41 -120t40.5 -119.5t105.5 -47.5t106 47.5zM789 520q-17 -35 -44 -61t-56 -26q-22 0 -35 9.5t-13 30.5q0 16 8 22.5t17.5 9.5t13.5 5q28 15 28 40q0 11 -10.5 19.5t-27.5 8.5t-28 -7q-12 5 -18.5 13t-6.5 24q0 20 15 37.5t37 28t43 10.5
q44 0 69 -27.5t25 -78.5q0 -23 -17 -58z" />
    <glyph glyph-name="dcroat" unicode="&#x111;" horiz-adv-x="623" 
d="M615.5 655.5q17.5 -15.5 17.5 -38.5q0 -25 -17.5 -40.5t-43.5 -15.5h-14v-500q0 -26 -17 -43.5t-43 -17.5t-42.5 17t-17.5 43q-25 -29 -67.5 -49.5t-89.5 -20.5q-69 0 -125 35.5t-88.5 98.5t-32.5 143t32 143.5t87.5 99t122.5 35.5q48 0 90 -17.5t71 -44.5v78h-40
q-26 0 -43.5 15.5t-17.5 40.5q0 23 17.5 38.5t43.5 15.5h40v8q0 26 17 43.5t43 17.5t43 -17t17 -44v-8h14q26 0 43.5 -15.5zM402 147.5q41 47.5 41 119.5t-41 120t-106 48q-64 0 -105 -48t-41 -120t40.5 -119.5t105.5 -47.5t106 47.5z" />
    <glyph glyph-name="uni1E0D" unicode="&#x1e0d;" horiz-adv-x="623" 
d="M541 723q17 -17 17 -44v-618q0 -26 -17 -43.5t-43 -17.5t-42.5 17t-17.5 43q-25 -29 -67.5 -49.5t-89.5 -20.5q-69 0 -125 35.5t-88.5 98.5t-32.5 143t32 143.5t87.5 99t122.5 35.5q48 0 90 -17.5t71 -44.5v196q0 26 17 43.5t43 17.5t43 -17zM402 147.5q41 47.5 41 119.5
t-41 120t-106 48q-64 0 -105 -48t-41 -120t40.5 -119.5t105.5 -47.5t106 47.5zM263 -149q-14 11 -14 39v19q0 28 15 39t46 11q37 0 51 -11t14 -39v-19q0 -29 -15 -39.5t-50 -10.5q-33 0 -47 11z" />
    <glyph glyph-name="uni1E0F" unicode="&#x1e0f;" horiz-adv-x="623" 
d="M541 723q17 -17 17 -44v-618q0 -26 -17 -43.5t-43 -17.5t-42.5 17t-17.5 43q-25 -29 -67.5 -49.5t-89.5 -20.5q-69 0 -125 35.5t-88.5 98.5t-32.5 143t32 143.5t87.5 99t122.5 35.5q48 0 90 -17.5t71 -44.5v196q0 26 17 43.5t43 17.5t43 -17zM402 147.5q41 47.5 41 119.5
t-41 120t-106 48q-64 0 -105 -48t-41 -120t40.5 -119.5t105.5 -47.5t106 47.5zM154 -135.5q-13 11.5 -13 33.5q0 21 13 32.5t37 11.5h242q24 0 37 -11.5t13 -32.5q0 -45 -50 -45h-242q-24 0 -37 11.5z" />
    <glyph glyph-name="uni01C6" unicode="&#x1c6;" horiz-adv-x="1107" 
d="M541 723q17 -17 17 -44v-618q0 -26 -17 -43.5t-43 -17.5t-42.5 17t-17.5 43q-25 -29 -67.5 -49.5t-89.5 -20.5q-69 0 -125 35.5t-88.5 98.5t-32.5 143t32 143.5t87.5 99t122.5 35.5q48 0 90 -17.5t71 -44.5v196q0 26 17 43.5t43 17.5t43 -17zM402 147.5q41 47.5 41 119.5
t-41 120t-106 48q-64 0 -105 -48t-41 -120t40.5 -119.5t105.5 -47.5t106 47.5zM1069 94.5q16 -15.5 16 -39.5q0 -23 -16 -39t-40 -16h-322q-23 0 -38.5 16.5t-15.5 35.5q0 17 4 28.5t15 26.5l238 308h-194q-24 0 -40 16t-16 40q0 23 16 38.5t40 15.5h308q22 0 37.5 -15.5
t15.5 -38.5q0 -15 -3 -25.5t-14 -24.5l-240 -311h209q24 0 40 -15.5zM992 738.5q10 -7.5 10 -18.5q0 -16 -16 -35l-44 -55q-12 -16 -26.5 -23t-34.5 -7h-36q-20 0 -34.5 7t-26.5 23l-44 55q-12 16 -12 32q0 13 10.5 21t30.5 8q18 0 45 -23l50 -43l50 43q16 13 26.5 18
t28.5 5q13 0 23 -7.5z" />
    <glyph glyph-name="e" unicode="e" horiz-adv-x="580" 
d="M526 241q-18 -15 -42 -15h-330q12 -59 55 -92.5t97 -33.5q41 0 64 7.5t36.5 16l18.5 11.5q18 9 34 9q21 0 36 -15t15 -35q0 -27 -28 -49q-28 -23 -75 -39t-95 -16q-84 0 -146.5 35t-96.5 96.5t-34 138.5q0 86 36 151t95 99.5t126 34.5q66 0 124.5 -36t93.5 -97t35 -132
q-1 -24 -19 -39zM155 326h262v7q-4 42 -41 72t-84 30q-116 0 -137 -109z" />
    <glyph glyph-name="eacute" unicode="&#xe9;" horiz-adv-x="580" 
d="M526 241q-18 -15 -42 -15h-330q12 -59 55 -92.5t97 -33.5q41 0 64 7.5t36.5 16l18.5 11.5q18 9 34 9q21 0 36 -15t15 -35q0 -27 -28 -49q-28 -23 -75 -39t-95 -16q-84 0 -146.5 35t-96.5 96.5t-34 138.5q0 86 36 151t95 99.5t126 34.5q66 0 124.5 -36t93.5 -97t35 -132
q-1 -24 -19 -39zM155 326h262v7q-4 42 -41 72t-84 30q-116 0 -137 -109zM271.5 578q-11.5 9 -10.5 24q0 9 6 19l58 102q10 18 24 29t31 11q27 0 40.5 -14t12.5 -36q-2 -23 -19 -43l-76 -84q-16 -17 -45 -17q-10 0 -21.5 9z" />
    <glyph glyph-name="ebreve" unicode="&#x115;" horiz-adv-x="580" 
d="M526 241q-18 -15 -42 -15h-330q12 -59 55 -92.5t97 -33.5q41 0 64 7.5t36.5 16l18.5 11.5q18 9 34 9q21 0 36 -15t15 -35q0 -27 -28 -49q-28 -23 -75 -39t-95 -16q-84 0 -146.5 35t-96.5 96.5t-34 138.5q0 86 36 151t95 99.5t126 34.5q66 0 124.5 -36t93.5 -97t35 -132
q-1 -24 -19 -39zM155 326h262v7q-4 42 -41 72t-84 30q-116 0 -137 -109zM189.5 595q-41.5 24 -59.5 69q-5 13 -5 22q0 15 9.5 24t24.5 9q20 0 32.5 -8.5t27.5 -27.5q24 -27 69 -27t69 27q15 19 27.5 27.5t32.5 8.5q15 0 24.5 -8.5t9.5 -23.5q0 -10 -4 -21
q-19 -46 -60.5 -70.5t-98.5 -24.5t-98.5 24z" />
    <glyph glyph-name="ecaron" unicode="&#x11b;" horiz-adv-x="580" 
d="M526 241q-18 -15 -42 -15h-330q12 -59 55 -92.5t97 -33.5q41 0 64 7.5t36.5 16l18.5 11.5q18 9 34 9q21 0 36 -15t15 -35q0 -27 -28 -49q-28 -23 -75 -39t-95 -16q-84 0 -146.5 35t-96.5 96.5t-34 138.5q0 86 36 151t95 99.5t126 34.5q66 0 124.5 -36t93.5 -97t35 -132
q-1 -24 -19 -39zM155 326h262v7q-4 42 -41 72t-84 30q-116 0 -137 -109zM415 738.5q10 -7.5 10 -18.5q0 -16 -16 -35l-44 -55q-12 -16 -26.5 -23t-34.5 -7h-36q-20 0 -34.5 7t-26.5 23l-44 55q-12 16 -12 32q0 13 10.5 21t30.5 8q18 0 45 -23l50 -43l50 43q16 13 26.5 18
t28.5 5q13 0 23 -7.5z" />
    <glyph glyph-name="uni1E1D" unicode="&#x1e1d;" horiz-adv-x="580" 
d="M189.5 595q-41.5 24 -59.5 69q-5 13 -5 22q0 15 9.5 24t24.5 9q20 0 32.5 -8.5t27.5 -27.5q24 -27 69 -27t69 27q15 19 27.5 27.5t32.5 8.5q15 0 24.5 -8.5t9.5 -23.5q0 -10 -4 -21q-19 -46 -60.5 -70.5t-98.5 -24.5t-98.5 24zM526 241q-18 -15 -42 -15h-330
q12 -59 55 -92.5t97 -33.5q41 0 64 7.5t36.5 16l18.5 11.5q18 9 34 9q21 0 36 -15t15 -35q0 -27 -28 -49q-21 -17 -54.5 -31t-70.5 -20l-42 -113q-12 -32 -41 -32q-19 0 -42 13t-23 33q0 15 12 30l50 67q-72 8 -125.5 45t-82 95t-28.5 128q0 86 36 151t95 99.5t126 34.5
q66 0 124.5 -36t93.5 -97t35 -132q-1 -24 -19 -39zM155 326h262v7q-4 42 -41 72t-84 30q-116 0 -137 -109z" />
    <glyph glyph-name="ecircumflex" unicode="&#xea;" horiz-adv-x="580" 
d="M526 241q-18 -15 -42 -15h-330q12 -59 55 -92.5t97 -33.5q41 0 64 7.5t36.5 16l18.5 11.5q18 9 34 9q21 0 36 -15t15 -35q0 -27 -28 -49q-28 -23 -75 -39t-95 -16q-84 0 -146.5 35t-96.5 96.5t-34 138.5q0 86 36 151t95 99.5t126 34.5q66 0 124.5 -36t93.5 -97t35 -132
q-1 -24 -19 -39zM155 326h262v7q-4 42 -41 72t-84 30q-116 0 -137 -109zM420 639q2 -6 2 -15q0 -10 -8.5 -17.5t-21.5 -7.5q-15 0 -22.5 4t-15 10.5t-11.5 9.5l-53 47l-57 -47q-4 -3 -12.5 -10.5t-16.5 -10.5t-20 -3q-13 0 -21.5 7.5t-8.5 17.5q0 9 2 15t10 16l49 62
q23 29 61 29h36q20 0 31.5 -6t22.5 -23l44 -62q8 -10 10 -16z" />
    <glyph glyph-name="uni1EBF" unicode="&#x1ebf;" horiz-adv-x="580" 
d="M526 241q-18 -15 -42 -15h-330q12 -59 55 -92.5t97 -33.5q41 0 64 7.5t36.5 16l18.5 11.5q18 9 34 9q21 0 36 -15t15 -35q0 -27 -28 -49q-28 -23 -75 -39t-95 -16q-84 0 -146.5 35t-96.5 96.5t-34 138.5q0 86 36 151t95 99.5t126 34.5q66 0 124.5 -36t93.5 -97t35 -132
q-1 -24 -19 -39zM155 326h262v7q-4 42 -41 72t-84 30q-116 0 -137 -109zM413 639q2 -6 2 -15q0 -10 -8.5 -17.5t-21.5 -7.5q-15 0 -22.5 4t-15 10.5t-11.5 9.5l-53 47l-57 -47q-4 -3 -12.5 -10.5t-16.5 -10.5t-20 -3q-13 0 -21.5 7.5t-8.5 17.5q0 9 2 15t10 16l49 62
q23 29 61 29h36q20 0 31.5 -6t22.5 -23l44 -62q8 -10 10 -16zM403.5 688q-11.5 9 -10.5 24q0 9 6 19l58 102q10 18 24 29t31 11q27 0 40.5 -14t12.5 -36q-2 -23 -19 -43l-76 -84q-16 -17 -45 -17q-10 0 -21.5 9z" />
    <glyph glyph-name="uni1EC7" unicode="&#x1ec7;" horiz-adv-x="580" 
d="M526 241q-18 -15 -42 -15h-330q12 -59 55 -92.5t97 -33.5q41 0 64 7.5t36.5 16l18.5 11.5q18 9 34 9q21 0 36 -15t15 -35q0 -27 -28 -49q-28 -23 -75 -39t-95 -16q-84 0 -146.5 35t-96.5 96.5t-34 138.5q0 86 36 151t95 99.5t126 34.5q66 0 124.5 -36t93.5 -97t35 -132
q-1 -24 -19 -39zM155 326h262v7q-4 42 -41 72t-84 30q-116 0 -137 -109zM241 -149q-14 11 -14 39v19q0 28 15 39t46 11q37 0 51 -11t14 -39v-19q0 -29 -15 -39.5t-50 -10.5q-33 0 -47 11zM420 639q2 -6 2 -15q0 -10 -8.5 -17.5t-21.5 -7.5q-15 0 -22.5 4t-15 10.5t-11.5 9.5
l-53 47l-57 -47q-4 -3 -12.5 -10.5t-16.5 -10.5t-20 -3q-13 0 -21.5 7.5t-8.5 17.5q0 9 2 15t10 16l49 62q23 29 61 29h36q20 0 31.5 -6t22.5 -23l44 -62q8 -10 10 -16z" />
    <glyph glyph-name="uni1EC1" unicode="&#x1ec1;" horiz-adv-x="580" 
d="M526 241q-18 -15 -42 -15h-330q12 -59 55 -92.5t97 -33.5q41 0 64 7.5t36.5 16l18.5 11.5q18 9 34 9q21 0 36 -15t15 -35q0 -27 -28 -49q-28 -23 -75 -39t-95 -16q-84 0 -146.5 35t-96.5 96.5t-34 138.5q0 86 36 151t95 99.5t126 34.5q66 0 124.5 -36t93.5 -97t35 -132
q-1 -24 -19 -39zM155 326h262v7q-4 42 -41 72t-84 30q-116 0 -137 -109zM413 639q2 -6 2 -15q0 -10 -8.5 -17.5t-21.5 -7.5q-15 0 -22.5 4t-15 10.5t-11.5 9.5l-53 47l-57 -47q-4 -3 -12.5 -10.5t-16.5 -10.5t-20 -3q-13 0 -21.5 7.5t-8.5 17.5q0 9 2 15t10 16l49 62
q23 29 61 29h36q20 0 31.5 -6t22.5 -23l44 -62q8 -10 10 -16zM405 740l-100 53q-18 10 -27.5 24t-9.5 29q0 21 17 35t36 14q23 0 49 -22l86 -76q14 -13 14 -27q0 -16 -11.5 -26t-30.5 -10q-11 0 -23 6z" />
    <glyph glyph-name="uni1EC3" unicode="&#x1ec3;" horiz-adv-x="580" 
d="M526 241q-18 -15 -42 -15h-330q12 -59 55 -92.5t97 -33.5q41 0 64 7.5t36.5 16l18.5 11.5q18 9 34 9q21 0 36 -15t15 -35q0 -27 -28 -49q-28 -23 -75 -39t-95 -16q-84 0 -146.5 35t-96.5 96.5t-34 138.5q0 86 36 151t95 99.5t126 34.5q66 0 124.5 -36t93.5 -97t35 -132
q-1 -24 -19 -39zM155 326h262v7q-4 42 -41 72t-84 30q-116 0 -137 -109zM418 610q2 -6 2 -15q0 -10 -8.5 -17.5t-21.5 -7.5q-15 0 -22.5 4t-15 10.5t-11.5 9.5l-53 47l-57 -47q-4 -3 -12.5 -10.5t-16.5 -10.5t-20 -3q-13 0 -21.5 7.5t-8.5 17.5q0 9 2 15t10 16l49 62
q23 29 61 29h36q20 0 31.5 -6t22.5 -23l44 -62q8 -10 10 -16zM386 839.5q18 7.5 43 7.5q56 0 79.5 -26.5t23.5 -60.5q0 -16 -4.5 -28.5t-14.5 -25.5q-2 -3 -9.5 -12t-11 -15t-3.5 -11q0 -12 -10 -20t-24 -8t-24 8t-10 20q0 18 16 39q23 31 23 43t-10 19.5t-24 7.5
q-11 0 -20 -4.5t-22 -12.5q-10 -6 -16 -6q-12 0 -25 13q-9 9 -9 21q0 16 16 30q18 14 36 21.5z" />
    <glyph glyph-name="uni1EC5" unicode="&#x1ec5;" horiz-adv-x="580" 
d="M526 241q-18 -15 -42 -15h-330q12 -59 55 -92.5t97 -33.5q41 0 64 7.5t36.5 16l18.5 11.5q18 9 34 9q21 0 36 -15t15 -35q0 -27 -28 -49q-28 -23 -75 -39t-95 -16q-84 0 -146.5 35t-96.5 96.5t-34 138.5q0 86 36 151t95 99.5t126 34.5q66 0 124.5 -36t93.5 -97t35 -132
q-1 -24 -19 -39zM155 326h262v7q-4 42 -41 72t-84 30q-116 0 -137 -109zM415 604q2 -6 2 -15q0 -10 -8.5 -17.5t-21.5 -7.5q-15 0 -22.5 4t-15 10.5t-11.5 9.5l-53 47l-57 -47q-4 -3 -12.5 -10.5t-16.5 -10.5t-20 -3q-13 0 -21.5 7.5t-8.5 17.5q0 9 2 15t10 16l49 62
q23 29 61 29h36q20 0 31.5 -6t22.5 -23l44 -62q8 -10 10 -16zM117 744.5q-16 18.5 -16 49.5q0 35 32 61.5t91 26.5q26 0 47.5 -10.5t49.5 -29.5q17 -13 28.5 -19t21.5 -6q11 0 17 6t3 15q-2 5 -2 14q0 16 10.5 25.5t26.5 9.5q23 0 39 -18t16 -48q0 -19 -12 -40t-37.5 -35.5
t-64.5 -14.5q-20 0 -42 10t-52 28q-24 14 -37.5 20.5t-24.5 6.5t-17 -6t-3 -15q2 -5 2 -14q0 -16 -10.5 -25.5t-26.5 -9.5q-23 0 -39 18.5z" />
    <glyph glyph-name="uni0205" unicode="&#x205;" horiz-adv-x="580" 
d="M526 241q-18 -15 -42 -15h-330q12 -59 55 -92.5t97 -33.5q41 0 64 7.5t36.5 16l18.5 11.5q18 9 34 9q21 0 36 -15t15 -35q0 -27 -28 -49q-28 -23 -75 -39t-95 -16q-84 0 -146.5 35t-96.5 96.5t-34 138.5q0 86 36 151t95 99.5t126 34.5q66 0 124.5 -36t93.5 -97t35 -132
q-1 -24 -19 -39zM155 326h262v7q-4 42 -41 72t-84 30q-116 0 -137 -109zM185 606l-100 53q-18 10 -27.5 24t-9.5 29q0 21 17 35t36 14q23 0 49 -22l86 -76q14 -13 14 -27q0 -16 -11.5 -26t-30.5 -10q-11 0 -23 6zM371 606l-100 53q-18 10 -27.5 24t-9.5 29q0 21 17 35t36 14
q23 0 49 -22l86 -76q14 -13 14 -27q0 -16 -11.5 -26t-30.5 -10q-11 0 -23 6z" />
    <glyph glyph-name="edieresis" unicode="&#xeb;" horiz-adv-x="580" 
d="M526 241q-18 -15 -42 -15h-330q12 -59 55 -92.5t97 -33.5q41 0 64 7.5t36.5 16l18.5 11.5q18 9 34 9q21 0 36 -15t15 -35q0 -27 -28 -49q-28 -23 -75 -39t-95 -16q-84 0 -146.5 35t-96.5 96.5t-34 138.5q0 86 36 151t95 99.5t126 34.5q66 0 124.5 -36t93.5 -97t35 -132
q-1 -24 -19 -39zM155 326h262v7q-4 42 -41 72t-84 30q-116 0 -137 -109zM141 611.5q-14 11.5 -14 38.5v18q0 27 14.5 38.5t44.5 11.5q36 0 50 -11t14 -39v-18q0 -29 -14.5 -39.5t-49.5 -10.5q-31 0 -45 11.5zM340 611.5q-14 11.5 -14 38.5v18q0 28 15 39t46 11
q33 0 47.5 -11.5t14.5 -38.5v-18q0 -29 -14.5 -39.5t-49.5 -10.5q-31 0 -45 11.5z" />
    <glyph glyph-name="edotaccent" unicode="&#x117;" horiz-adv-x="580" 
d="M526 241q-18 -15 -42 -15h-330q12 -59 55 -92.5t97 -33.5q41 0 64 7.5t36.5 16l18.5 11.5q18 9 34 9q21 0 36 -15t15 -35q0 -27 -28 -49q-28 -23 -75 -39t-95 -16q-84 0 -146.5 35t-96.5 96.5t-34 138.5q0 86 36 151t95 99.5t126 34.5q66 0 124.5 -36t93.5 -97t35 -132
q-1 -24 -19 -39zM155 326h262v7q-4 42 -41 72t-84 30q-116 0 -137 -109zM239 611q-14 11 -14 39v19q0 28 15 39t48 11q35 0 49 -11t14 -39v-19q0 -29 -14.5 -39.5t-49.5 -10.5q-34 0 -48 11z" />
    <glyph glyph-name="uni1EB9" unicode="&#x1eb9;" horiz-adv-x="580" 
d="M526 241q-18 -15 -42 -15h-330q12 -59 55 -92.5t97 -33.5q41 0 64 7.5t36.5 16l18.5 11.5q18 9 34 9q21 0 36 -15t15 -35q0 -27 -28 -49q-28 -23 -75 -39t-95 -16q-84 0 -146.5 35t-96.5 96.5t-34 138.5q0 86 36 151t95 99.5t126 34.5q66 0 124.5 -36t93.5 -97t35 -132
q-1 -24 -19 -39zM155 326h262v7q-4 42 -41 72t-84 30q-116 0 -137 -109zM241 -149q-14 11 -14 39v19q0 28 15 39t46 11q37 0 51 -11t14 -39v-19q0 -29 -15 -39.5t-50 -10.5q-33 0 -47 11z" />
    <glyph glyph-name="egrave" unicode="&#xe8;" horiz-adv-x="580" 
d="M526 241q-18 -15 -42 -15h-330q12 -59 55 -92.5t97 -33.5q41 0 64 7.5t36.5 16l18.5 11.5q18 9 34 9q21 0 36 -15t15 -35q0 -27 -28 -49q-28 -23 -75 -39t-95 -16q-84 0 -146.5 35t-96.5 96.5t-34 138.5q0 86 36 151t95 99.5t126 34.5q66 0 124.5 -36t93.5 -97t35 -132
q-1 -24 -19 -39zM155 326h262v7q-4 42 -41 72t-84 30q-116 0 -137 -109zM268 576l-100 53q-18 10 -27.5 24t-9.5 29q0 21 17 35t36 14q23 0 49 -22l86 -76q14 -13 14 -27q0 -16 -11.5 -26t-30.5 -10q-11 0 -23 6z" />
    <glyph glyph-name="uni1EBB" unicode="&#x1ebb;" horiz-adv-x="580" 
d="M526 241q-18 -15 -42 -15h-330q12 -59 55 -92.5t97 -33.5q41 0 64 7.5t36.5 16l18.5 11.5q18 9 34 9q21 0 36 -15t15 -35q0 -27 -28 -49q-28 -23 -75 -39t-95 -16q-84 0 -146.5 35t-96.5 96.5t-34 138.5q0 86 36 151t95 99.5t126 34.5q66 0 124.5 -36t93.5 -97t35 -132
q-1 -24 -19 -39zM155 326h262v7q-4 42 -41 72t-84 30q-116 0 -137 -109zM227 764.5q18 7.5 43 7.5q56 0 79.5 -26.5t23.5 -60.5q0 -16 -4.5 -28.5t-14.5 -25.5q-2 -3 -9.5 -12t-11 -15t-3.5 -11q0 -12 -10 -20t-24 -8t-24 8t-10 20q0 18 16 39q23 31 23 43t-10 19.5t-24 7.5
q-11 0 -20 -4.5t-22 -12.5q-10 -6 -16 -6q-12 0 -25 13q-9 9 -9 21q0 16 16 30q18 14 36 21.5z" />
    <glyph glyph-name="uni0207" unicode="&#x207;" horiz-adv-x="580" 
d="M526 241q-18 -15 -42 -15h-330q12 -59 55 -92.5t97 -33.5q41 0 64 7.5t36.5 16l18.5 11.5q18 9 34 9q21 0 36 -15t15 -35q0 -27 -28 -49q-28 -23 -75 -39t-95 -16q-84 0 -146.5 35t-96.5 96.5t-34 138.5q0 86 36 151t95 99.5t126 34.5q66 0 124.5 -36t93.5 -97t35 -132
q-1 -24 -19 -39zM155 326h262v7q-4 42 -41 72t-84 30q-116 0 -137 -109zM386.5 724q41.5 -24 59.5 -69q5 -13 5 -22q0 -15 -9.5 -24t-24.5 -9q-20 0 -32.5 8.5t-27.5 27.5q-24 27 -69 27t-69 -27q-15 -19 -27.5 -27.5t-32.5 -8.5q-15 0 -24.5 8.5t-9.5 23.5q0 10 4 21
q19 46 60.5 70.5t98.5 24.5t98.5 -24z" />
    <glyph glyph-name="emacron" unicode="&#x113;" horiz-adv-x="580" 
d="M526 241q-18 -15 -42 -15h-330q12 -59 55 -92.5t97 -33.5q41 0 64 7.5t36.5 16l18.5 11.5q18 9 34 9q21 0 36 -15t15 -35q0 -27 -28 -49q-28 -23 -75 -39t-95 -16q-84 0 -146.5 35t-96.5 96.5t-34 138.5q0 86 36 151t95 99.5t126 34.5q66 0 124.5 -36t93.5 -97t35 -132
q-1 -24 -19 -39zM155 326h262v7q-4 42 -41 72t-84 30q-116 0 -137 -109zM130 611.5q-13 11.5 -13 33.5q0 21 13 32.5t37 11.5h242q24 0 37 -11.5t13 -32.5q0 -45 -50 -45h-242q-24 0 -37 11.5z" />
    <glyph glyph-name="uni1E17" unicode="&#x1e17;" horiz-adv-x="580" 
d="M526 241q-18 -15 -42 -15h-330q12 -59 55 -92.5t97 -33.5q41 0 64 7.5t36.5 16l18.5 11.5q18 9 34 9q21 0 36 -15t15 -35q0 -27 -28 -49q-28 -23 -75 -39t-95 -16q-84 0 -146.5 35t-96.5 96.5t-34 138.5q0 86 36 151t95 99.5t126 34.5q66 0 124.5 -36t93.5 -97t35 -132
q-1 -24 -19 -39zM155 326h262v7q-4 42 -41 72t-84 30q-116 0 -137 -109zM130 611.5q-13 11.5 -13 33.5q0 21 13 32.5t37 11.5h242q24 0 37 -11.5t13 -32.5q0 -45 -50 -45h-242q-24 0 -37 11.5zM271.5 752q-11.5 9 -10.5 24q0 9 6 19l58 102q10 18 24 29t31 11q27 0 40.5 -14
t12.5 -36q-2 -23 -19 -43l-76 -84q-16 -17 -45 -17q-10 0 -21.5 9z" />
    <glyph glyph-name="uni1E15" unicode="&#x1e15;" horiz-adv-x="580" 
d="M526 241q-18 -15 -42 -15h-330q12 -59 55 -92.5t97 -33.5q41 0 64 7.5t36.5 16l18.5 11.5q18 9 34 9q21 0 36 -15t15 -35q0 -27 -28 -49q-28 -23 -75 -39t-95 -16q-84 0 -146.5 35t-96.5 96.5t-34 138.5q0 86 36 151t95 99.5t126 34.5q66 0 124.5 -36t93.5 -97t35 -132
q-1 -24 -19 -39zM155 326h262v7q-4 42 -41 72t-84 30q-116 0 -137 -109zM130 611.5q-13 11.5 -13 33.5q0 21 13 32.5t37 11.5h242q24 0 37 -11.5t13 -32.5q0 -45 -50 -45h-242q-24 0 -37 11.5zM268 750l-100 53q-18 10 -27.5 24t-9.5 29q0 21 17 35t36 14q23 0 49 -22
l86 -76q14 -13 14 -27q0 -16 -11.5 -26t-30.5 -10q-11 0 -23 6z" />
    <glyph glyph-name="eogonek" unicode="&#x119;" horiz-adv-x="580" 
d="M526 241q-18 -15 -42 -15h-330q12 -59 55 -92.5t97 -33.5q41 0 64 7.5t36.5 16l18.5 11.5q18 10 34 10q24 0 39 -18t15 -37q0 -27 -29 -46q-44 -29 -69 -59t-25 -63q0 -17 9 -26.5t22 -9.5q12 0 21 12q13 18 41 18q19 0 31.5 -13t12.5 -35q0 -16 -16.5 -34t-43.5 -29.5
t-56 -11.5q-53 0 -86.5 27t-33.5 80q0 54 34 90h-13q-84 0 -146.5 35t-96.5 96.5t-34 138.5q0 86 36 151t95 99.5t126 34.5q66 0 124.5 -36t93.5 -97t35 -132q-1 -24 -19 -39zM155 326h262v7q-4 42 -41 72t-84 30q-116 0 -137 -109z" />
    <glyph glyph-name="uni1EBD" unicode="&#x1ebd;" horiz-adv-x="580" 
d="M526 241q-18 -15 -42 -15h-330q12 -59 55 -92.5t97 -33.5q41 0 64 7.5t36.5 16l18.5 11.5q18 9 34 9q21 0 36 -15t15 -35q0 -27 -28 -49q-28 -23 -75 -39t-95 -16q-84 0 -146.5 35t-96.5 96.5t-34 138.5q0 86 36 151t95 99.5t126 34.5q66 0 124.5 -36t93.5 -97t35 -132
q-1 -24 -19 -39zM155 326h262v7q-4 42 -41 72t-84 30q-116 0 -137 -109zM115 608.5q-16 18.5 -16 49.5q0 35 32 61.5t91 26.5q26 0 47.5 -10.5t49.5 -29.5q17 -13 28.5 -19t21.5 -6q11 0 17 6t3 15q-2 5 -2 14q0 16 10.5 25.5t26.5 9.5q23 0 39 -18t16 -48q0 -19 -12 -40
t-37.5 -35.5t-64.5 -14.5q-20 0 -42 10t-52 28q-24 14 -37.5 20.5t-24.5 6.5t-17 -6t-3 -15q2 -5 2 -14q0 -16 -10.5 -25.5t-26.5 -9.5q-23 0 -39 18.5z" />
    <glyph glyph-name="uni0259" unicode="&#x259;" horiz-adv-x="580" 
d="M414.5 490q62.5 -35 96.5 -96.5t34 -138.5q0 -86 -36 -151t-95 -99.5t-126 -34.5q-66 0 -124.5 36t-93.5 97t-35 132q1 24 19 39t42 15h330q-12 59 -55 92.5t-97 33.5q-41 0 -64 -7.5t-36.5 -16l-18.5 -11.5q-18 -9 -34 -9q-21 0 -36 15t-15 35q0 27 28 49q28 23 75 39
t95 16q84 0 146.5 -35zM425 189h-262v-7q4 -42 41 -72t84 -30q116 0 137 109z" />
    <glyph glyph-name="f" unicode="f" horiz-adv-x="417" 
d="M274 614.5q-14 -19.5 -14 -42.5v-47h91q24 0 40 -15.5t16 -39.5t-16 -39.5t-40 -15.5h-91v-354q0 -26 -17 -43.5t-43 -17.5t-43 17.5t-17 43.5v354h-54q-24 0 -40 15.5t-16 39.5t16 39.5t40 15.5h54v46q0 75 51.5 122t148.5 47q37 0 64.5 -15t27.5 -46q0 -24 -14 -39
t-34 -15q-5 0 -10.5 1l-11.5 2q-24 6 -40 6q-34 0 -48 -19.5z" />
    <glyph glyph-name="g" unicode="g" horiz-adv-x="633" 
d="M551 528q17 -17 17 -44v-445q0 -122 -75.5 -180.5t-191.5 -58.5q-30 0 -82.5 10t-74.5 20q-49 21 -49 58q0 7 3 16q6 22 20.5 33.5t31.5 11.5q10 0 19 -3q4 -1 49.5 -18.5t82.5 -17.5q74 0 110.5 29.5t36.5 83.5v48q-22 -31 -66.5 -56t-95.5 -25q-70 0 -127.5 35.5
t-90.5 98.5t-33 143t32.5 143.5t89 99t125.5 35.5q51 0 95 -21t71 -51v11q0 26 17 43.5t43 17.5t43 -17zM410.5 147.5q42.5 47.5 42.5 119.5t-42.5 120t-109.5 48t-109 -48t-42 -120t42 -119.5t109 -47.5t109.5 47.5z" />
    <glyph glyph-name="gbreve" unicode="&#x11f;" horiz-adv-x="633" 
d="M551 528q17 -17 17 -44v-445q0 -122 -75.5 -180.5t-191.5 -58.5q-30 0 -82.5 10t-74.5 20q-49 21 -49 58q0 7 3 16q6 22 20.5 33.5t31.5 11.5q10 0 19 -3q4 -1 49.5 -18.5t82.5 -17.5q74 0 110.5 29.5t36.5 83.5v48q-22 -31 -66.5 -56t-95.5 -25q-70 0 -127.5 35.5
t-90.5 98.5t-33 143t32.5 143.5t89 99t125.5 35.5q51 0 95 -21t71 -51v11q0 26 17 43.5t43 17.5t43 -17zM410.5 147.5q42.5 47.5 42.5 119.5t-42.5 120t-109.5 48t-109 -48t-42 -120t42 -119.5t109 -47.5t109.5 47.5zM218.5 595q-41.5 24 -59.5 69q-5 13 -5 22q0 15 9.5 24
t24.5 9q20 0 32.5 -8.5t27.5 -27.5q24 -27 69 -27t69 27q15 19 27.5 27.5t32.5 8.5q15 0 24.5 -8.5t9.5 -23.5q0 -10 -4 -21q-19 -46 -60.5 -70.5t-98.5 -24.5t-98.5 24z" />
    <glyph glyph-name="gcaron" unicode="&#x1e7;" horiz-adv-x="633" 
d="M551 528q17 -17 17 -44v-445q0 -122 -75.5 -180.5t-191.5 -58.5q-30 0 -82.5 10t-74.5 20q-49 21 -49 58q0 7 3 16q6 22 20.5 33.5t31.5 11.5q10 0 19 -3q4 -1 49.5 -18.5t82.5 -17.5q74 0 110.5 29.5t36.5 83.5v48q-22 -31 -66.5 -56t-95.5 -25q-70 0 -127.5 35.5
t-90.5 98.5t-33 143t32.5 143.5t89 99t125.5 35.5q51 0 95 -21t71 -51v11q0 26 17 43.5t43 17.5t43 -17zM410.5 147.5q42.5 47.5 42.5 119.5t-42.5 120t-109.5 48t-109 -48t-42 -120t42 -119.5t109 -47.5t109.5 47.5zM444 738.5q10 -7.5 10 -18.5q0 -16 -16 -35l-44 -55
q-12 -16 -26.5 -23t-34.5 -7h-36q-20 0 -34.5 7t-26.5 23l-44 55q-12 16 -12 32q0 13 10.5 21t30.5 8q18 0 45 -23l50 -43l50 43q16 13 26.5 18t28.5 5q13 0 23 -7.5z" />
    <glyph glyph-name="gcircumflex" unicode="&#x11d;" horiz-adv-x="633" 
d="M551 528q17 -17 17 -44v-445q0 -122 -75.5 -180.5t-191.5 -58.5q-30 0 -82.5 10t-74.5 20q-49 21 -49 58q0 7 3 16q6 22 20.5 33.5t31.5 11.5q10 0 19 -3q4 -1 49.5 -18.5t82.5 -17.5q74 0 110.5 29.5t36.5 83.5v48q-22 -31 -66.5 -56t-95.5 -25q-70 0 -127.5 35.5
t-90.5 98.5t-33 143t32.5 143.5t89 99t125.5 35.5q51 0 95 -21t71 -51v11q0 26 17 43.5t43 17.5t43 -17zM410.5 147.5q42.5 47.5 42.5 119.5t-42.5 120t-109.5 48t-109 -48t-42 -120t42 -119.5t109 -47.5t109.5 47.5zM449 639q2 -6 2 -15q0 -10 -8.5 -17.5t-21.5 -7.5
q-15 0 -22.5 4t-15 10.5t-11.5 9.5l-53 47l-57 -47q-4 -3 -12.5 -10.5t-16.5 -10.5t-20 -3q-13 0 -21.5 7.5t-8.5 17.5q0 9 2 15t10 16l49 62q23 29 61 29h36q20 0 31.5 -6t22.5 -23l44 -62q8 -10 10 -16z" />
    <glyph glyph-name="gcommaaccent" unicode="&#x123;" horiz-adv-x="633" 
d="M276 611.5q-25 27.5 -25 78.5q0 23 17 58t44 61t56 26q22 0 35 -9.5t13 -30.5q0 -16 -8 -22.5t-17.5 -9.5t-13.5 -5q-28 -15 -28 -40q0 -11 10.5 -19.5t27.5 -8.5t28 7q12 -5 18.5 -13t6.5 -24q0 -20 -15 -37.5t-37 -28t-43 -10.5q-44 0 -69 27.5zM551 528q17 -17 17 -44
v-445q0 -122 -75.5 -180.5t-191.5 -58.5q-30 0 -82.5 10t-74.5 20q-49 21 -49 58q0 7 3 16q6 22 20.5 33.5t31.5 11.5q10 0 19 -3q4 -1 49.5 -18.5t82.5 -17.5q74 0 110.5 29.5t36.5 83.5v48q-22 -31 -66.5 -56t-95.5 -25q-70 0 -127.5 35.5t-90.5 98.5t-33 143t32.5 143.5
t89 99t125.5 35.5q51 0 95 -21t71 -51v11q0 26 17 43.5t43 17.5t43 -17zM410.5 147.5q42.5 47.5 42.5 119.5t-42.5 120t-109.5 48t-109 -48t-42 -120t42 -119.5t109 -47.5t109.5 47.5z" />
    <glyph glyph-name="gdotaccent" unicode="&#x121;" horiz-adv-x="633" 
d="M551 528q17 -17 17 -44v-445q0 -122 -75.5 -180.5t-191.5 -58.5q-30 0 -82.5 10t-74.5 20q-49 21 -49 58q0 7 3 16q6 22 20.5 33.5t31.5 11.5q10 0 19 -3q4 -1 49.5 -18.5t82.5 -17.5q74 0 110.5 29.5t36.5 83.5v48q-22 -31 -66.5 -56t-95.5 -25q-70 0 -127.5 35.5
t-90.5 98.5t-33 143t32.5 143.5t89 99t125.5 35.5q51 0 95 -21t71 -51v11q0 26 17 43.5t43 17.5t43 -17zM410.5 147.5q42.5 47.5 42.5 119.5t-42.5 120t-109.5 48t-109 -48t-42 -120t42 -119.5t109 -47.5t109.5 47.5zM268 611q-14 11 -14 39v19q0 28 15 39t48 11
q35 0 49 -11t14 -39v-19q0 -29 -14.5 -39.5t-49.5 -10.5q-34 0 -48 11z" />
    <glyph glyph-name="uni1E21" unicode="&#x1e21;" horiz-adv-x="633" 
d="M551 528q17 -17 17 -44v-445q0 -122 -75.5 -180.5t-191.5 -58.5q-30 0 -82.5 10t-74.5 20q-49 21 -49 58q0 7 3 16q6 22 20.5 33.5t31.5 11.5q10 0 19 -3q4 -1 49.5 -18.5t82.5 -17.5q74 0 110.5 29.5t36.5 83.5v48q-22 -31 -66.5 -56t-95.5 -25q-70 0 -127.5 35.5
t-90.5 98.5t-33 143t32.5 143.5t89 99t125.5 35.5q51 0 95 -21t71 -51v11q0 26 17 43.5t43 17.5t43 -17zM410.5 147.5q42.5 47.5 42.5 119.5t-42.5 120t-109.5 48t-109 -48t-42 -120t42 -119.5t109 -47.5t109.5 47.5zM159 611.5q-13 11.5 -13 33.5q0 21 13 32.5t37 11.5h242
q24 0 37 -11.5t13 -32.5q0 -45 -50 -45h-242q-24 0 -37 11.5z" />
    <glyph glyph-name="h" unicode="h" horiz-adv-x="586" 
d="M483 484.5q38 -60.5 38 -167.5v-256q0 -26 -17 -43.5t-43 -17.5t-43 17.5t-17 43.5v256q0 55 -21.5 86.5t-75.5 31.5q-56 0 -87.5 -33.5t-31.5 -84.5v-256q0 -26 -17 -43.5t-43 -17.5t-43 17.5t-17 43.5v618q0 26 17 43.5t43 17.5t43 -17.5t17 -43.5v-221
q27 36 68.5 61.5t92.5 25.5q99 0 137 -60.5z" />
    <glyph glyph-name="hbar" unicode="&#x127;" horiz-adv-x="586" 
d="M483 484.5q38 -60.5 38 -167.5v-256q0 -26 -17 -43.5t-43 -17.5t-43 17.5t-17 43.5v256q0 55 -21.5 86.5t-75.5 31.5q-56 0 -87.5 -33.5t-31.5 -84.5v-256q0 -26 -17 -43.5t-43 -17.5t-43 17.5t-17 43.5v480h-23q-26 0 -43.5 15.5t-17.5 40.5q0 23 17.5 38.5t43.5 15.5
h23v28q0 26 17 43.5t43 17.5t43 -17.5t17 -43.5v-28h31q26 0 43.5 -15.5t17.5 -38.5q0 -25 -17.5 -40.5t-43.5 -15.5h-31v-83q27 36 68.5 61.5t92.5 25.5q99 0 137 -60.5z" />
    <glyph glyph-name="uni1E2B" unicode="&#x1e2b;" horiz-adv-x="586" 
d="M483 484.5q38 -60.5 38 -167.5v-256q0 -26 -17 -43.5t-43 -17.5t-43 17.5t-17 43.5v256q0 55 -21.5 86.5t-75.5 31.5q-56 0 -87.5 -33.5t-31.5 -84.5v-256q0 -26 -17 -43.5t-43 -17.5t-43 17.5t-17 43.5v618q0 26 17 43.5t43 17.5t43 -17.5t17 -43.5v-221
q27 36 68.5 61.5t92.5 25.5q99 0 137 -60.5zM194.5 -148q-41.5 24 -59.5 69q-5 13 -5 22q0 15 9.5 24t24.5 9q20 0 32.5 -8.5t27.5 -27.5q24 -27 69 -27t69 27q15 19 27.5 27.5t32.5 8.5q15 0 24.5 -8.5t9.5 -23.5q0 -10 -4 -21q-19 -46 -60.5 -70.5t-98.5 -24.5t-98.5 24z
" />
    <glyph glyph-name="hcircumflex" unicode="&#x125;" horiz-adv-x="586" 
d="M483 484.5q38 -60.5 38 -167.5v-256q0 -26 -17 -43.5t-43 -17.5t-43 17.5t-17 43.5v256q0 55 -21.5 86.5t-75.5 31.5q-56 0 -87.5 -33.5t-31.5 -84.5v-256q0 -26 -17 -43.5t-43 -17.5t-43 17.5t-17 43.5v618q0 26 17 43.5t43 17.5t43 -17.5t17 -43.5v-221
q27 36 68.5 61.5t92.5 25.5q99 0 137 -60.5zM268 819q3 -6 3 -14q0 -9 -9 -17t-22 -8q-9 0 -20 5t-31 17l-65 38l-65 -38q-16 -9 -29 -15.5t-22 -6.5q-13 0 -22 8t-9 17q0 8 3 14t12 16l63 72q13 15 27 22t34 7h16q19 0 33.5 -7t27.5 -22l63 -72q9 -10 12 -16z" />
    <glyph glyph-name="uni1E25" unicode="&#x1e25;" horiz-adv-x="586" 
d="M483 484.5q38 -60.5 38 -167.5v-256q0 -26 -17 -43.5t-43 -17.5t-43 17.5t-17 43.5v256q0 55 -21.5 86.5t-75.5 31.5q-56 0 -87.5 -33.5t-31.5 -84.5v-256q0 -26 -17 -43.5t-43 -17.5t-43 17.5t-17 43.5v618q0 26 17 43.5t43 17.5t43 -17.5t17 -43.5v-221
q27 36 68.5 61.5t92.5 25.5q99 0 137 -60.5zM244 -149q-14 11 -14 39v19q0 28 15 39t46 11q37 0 51 -11t14 -39v-19q0 -29 -15 -39.5t-50 -10.5q-33 0 -47 11z" />
    <glyph glyph-name="i" unicode="i" horiz-adv-x="236" 
d="M161 17.5q-17 -17.5 -43 -17.5t-43 17.5t-17 43.5v413q0 26 17 43.5t43 17.5t43 -17.5t17 -43.5v-413q0 -26 -17 -43.5zM69 611q-14 11 -14 39v19q0 28 15 39t48 11q35 0 49 -11t14 -39v-19q0 -29 -14.5 -39.5t-49.5 -10.5q-34 0 -48 11z" />
    <glyph glyph-name="dotlessi" unicode="&#x131;" horiz-adv-x="236" 
d="M161 17.5q-17 -17.5 -43 -17.5t-43 17.5t-17 43.5v413q0 26 17 43.5t43 17.5t43 -17.5t17 -43.5v-413q0 -26 -17 -43.5z" />
    <glyph glyph-name="iacute" unicode="&#xed;" horiz-adv-x="236" 
d="M161 17.5q-17 -17.5 -43 -17.5t-43 17.5t-17 43.5v413q0 26 17 43.5t43 17.5t43 -17.5t17 -43.5v-413q0 -26 -17 -43.5zM101.5 578q-11.5 9 -10.5 24q0 9 6 19l58 102q10 18 24 29t31 11q27 0 40.5 -14t12.5 -36q-2 -23 -19 -43l-76 -84q-16 -17 -45 -17q-10 0 -21.5 9z
" />
    <glyph glyph-name="ibreve" unicode="&#x12d;" horiz-adv-x="236" 
d="M161 17.5q-17 -17.5 -43 -17.5t-43 17.5t-17 43.5v413q0 26 17 43.5t43 17.5t43 -17.5t17 -43.5v-413q0 -26 -17 -43.5zM19.5 595q-41.5 24 -59.5 69q-5 13 -5 22q0 15 9.5 24t24.5 9q20 0 32.5 -8.5t27.5 -27.5q24 -27 69 -27t69 27q15 19 27.5 27.5t32.5 8.5
q15 0 24.5 -8.5t9.5 -23.5q0 -10 -4 -21q-19 -46 -60.5 -70.5t-98.5 -24.5t-98.5 24z" />
    <glyph glyph-name="uni01D0" unicode="&#x1d0;" horiz-adv-x="236" 
d="M161 17.5q-17 -17.5 -43 -17.5t-43 17.5t-17 43.5v413q0 26 17 43.5t43 17.5t43 -17.5t17 -43.5v-413q0 -26 -17 -43.5zM245 738.5q10 -7.5 10 -18.5q0 -16 -16 -35l-44 -55q-12 -16 -26.5 -23t-34.5 -7h-36q-20 0 -34.5 7t-26.5 23l-44 55q-12 16 -12 32q0 13 10.5 21
t30.5 8q18 0 45 -23l50 -43l50 43q16 13 26.5 18t28.5 5q13 0 23 -7.5z" />
    <glyph glyph-name="icircumflex" unicode="&#xee;" horiz-adv-x="236" 
d="M161 17.5q-17 -17.5 -43 -17.5t-43 17.5t-17 43.5v413q0 26 17 43.5t43 17.5t43 -17.5t17 -43.5v-413q0 -26 -17 -43.5zM250 639q2 -6 2 -15q0 -10 -8.5 -17.5t-21.5 -7.5q-15 0 -22.5 4t-15 10.5t-11.5 9.5l-53 47l-57 -47q-4 -3 -12.5 -10.5t-16.5 -10.5t-20 -3
q-13 0 -21.5 7.5t-8.5 17.5q0 9 2 15t10 16l49 62q23 29 61 29h36q20 0 31.5 -6t22.5 -23l44 -62q8 -10 10 -16z" />
    <glyph glyph-name="uni0209" unicode="&#x209;" horiz-adv-x="236" 
d="M161 17.5q-17 -17.5 -43 -17.5t-43 17.5t-17 43.5v413q0 26 17 43.5t43 17.5t43 -17.5t17 -43.5v-413q0 -26 -17 -43.5zM15 606l-100 53q-18 10 -27.5 24t-9.5 29q0 21 17 35t36 14q23 0 49 -22l86 -76q14 -13 14 -27q0 -16 -11.5 -26t-30.5 -10q-11 0 -23 6zM201 606
l-100 53q-18 10 -27.5 24t-9.5 29q0 21 17 35t36 14q23 0 49 -22l86 -76q14 -13 14 -27q0 -16 -11.5 -26t-30.5 -10q-11 0 -23 6z" />
    <glyph glyph-name="idieresis" unicode="&#xef;" horiz-adv-x="236" 
d="M161 17.5q-17 -17.5 -43 -17.5t-43 17.5t-17 43.5v413q0 26 17 43.5t43 17.5t43 -17.5t17 -43.5v-413q0 -26 -17 -43.5zM-29 611.5q-14 11.5 -14 38.5v18q0 27 14.5 38.5t44.5 11.5q36 0 50 -11t14 -39v-18q0 -29 -14.5 -39.5t-49.5 -10.5q-31 0 -45 11.5zM170 611.5
q-14 11.5 -14 38.5v18q0 28 15 39t46 11q33 0 47.5 -11.5t14.5 -38.5v-18q0 -29 -14.5 -39.5t-49.5 -10.5q-31 0 -45 11.5z" />
    <glyph glyph-name="uni1E2F" unicode="&#x1e2f;" horiz-adv-x="236" 
d="M161 17.5q-17 -17.5 -43 -17.5t-43 17.5t-17 43.5v413q0 26 17 43.5t43 17.5t43 -17.5t17 -43.5v-413q0 -26 -17 -43.5zM-29 611.5q-14 11.5 -14 38.5v18q0 27 14.5 38.5t44.5 11.5q36 0 50 -11t14 -39v-18q0 -29 -14.5 -39.5t-49.5 -10.5q-31 0 -45 11.5zM170 611.5
q-14 11.5 -14 38.5v18q0 28 15 39t46 11q33 0 47.5 -11.5t14.5 -38.5v-18q0 -29 -14.5 -39.5t-49.5 -10.5q-31 0 -45 11.5zM101.5 781q-11.5 9 -10.5 24q0 9 6 19l58 102q10 18 24 29t31 11q27 0 40.5 -14t12.5 -36q-2 -23 -19 -43l-76 -84q-16 -17 -45 -17q-10 0 -21.5 9z
" />
    <glyph glyph-name="i.loclTRK" horiz-adv-x="236" 
d="M161 17.5q-17 -17.5 -43 -17.5t-43 17.5t-17 43.5v413q0 26 17 43.5t43 17.5t43 -17.5t17 -43.5v-413q0 -26 -17 -43.5zM69 611q-14 11 -14 39v19q0 28 15 39t48 11q35 0 49 -11t14 -39v-19q0 -29 -14.5 -39.5t-49.5 -10.5q-34 0 -48 11z" />
    <glyph glyph-name="uni1ECB" unicode="&#x1ecb;" horiz-adv-x="236" 
d="M161 17.5q-17 -17.5 -43 -17.5t-43 17.5t-17 43.5v413q0 26 17 43.5t43 17.5t43 -17.5t17 -43.5v-413q0 -26 -17 -43.5zM69 611q-14 11 -14 39v19q0 28 15 39t48 11q35 0 49 -11t14 -39v-19q0 -29 -14.5 -39.5t-49.5 -10.5q-34 0 -48 11zM78 -149q-14 11 -14 39v19
q0 28 15 39t46 11q37 0 51 -11t14 -39v-19q0 -29 -15 -39.5t-50 -10.5q-33 0 -47 11z" />
    <glyph glyph-name="igrave" unicode="&#xec;" horiz-adv-x="236" 
d="M161 17.5q-17 -17.5 -43 -17.5t-43 17.5t-17 43.5v413q0 26 17 43.5t43 17.5t43 -17.5t17 -43.5v-413q0 -26 -17 -43.5zM98 576l-100 53q-18 10 -27.5 24t-9.5 29q0 21 17 35t36 14q23 0 49 -22l86 -76q14 -13 14 -27q0 -16 -11.5 -26t-30.5 -10q-11 0 -23 6z" />
    <glyph glyph-name="uni1EC9" unicode="&#x1ec9;" horiz-adv-x="236" 
d="M161 17.5q-17 -17.5 -43 -17.5t-43 17.5t-17 43.5v413q0 26 17 43.5t43 17.5t43 -17.5t17 -43.5v-413q0 -26 -17 -43.5zM57 764.5q18 7.5 43 7.5q56 0 79.5 -26.5t23.5 -60.5q0 -16 -4.5 -28.5t-14.5 -25.5q-2 -3 -9.5 -12t-11 -15t-3.5 -11q0 -12 -10 -20t-24 -8t-24 8
t-10 20q0 18 16 39q23 31 23 43t-10 19.5t-24 7.5q-11 0 -20 -4.5t-22 -12.5q-10 -6 -16 -6q-12 0 -25 13q-9 9 -9 21q0 16 16 30q18 14 36 21.5z" />
    <glyph glyph-name="uni020B" unicode="&#x20b;" horiz-adv-x="236" 
d="M161 17.5q-17 -17.5 -43 -17.5t-43 17.5t-17 43.5v413q0 26 17 43.5t43 17.5t43 -17.5t17 -43.5v-413q0 -26 -17 -43.5zM216.5 724q41.5 -24 59.5 -69q5 -13 5 -22q0 -15 -9.5 -24t-24.5 -9q-20 0 -32.5 8.5t-27.5 27.5q-24 27 -69 27t-69 -27q-15 -19 -27.5 -27.5
t-32.5 -8.5q-15 0 -24.5 8.5t-9.5 23.5q0 10 4 21q19 46 60.5 70.5t98.5 24.5t98.5 -24z" />
    <glyph glyph-name="ij" unicode="&#x133;" horiz-adv-x="516" 
d="M161 17.5q-17 -17.5 -43 -17.5t-43 17.5t-17 43.5v413q0 26 17 43.5t43 17.5t43 -17.5t17 -43.5v-413q0 -26 -17 -43.5zM69 611q-14 11 -14 39v19q0 28 15 39t48 11q35 0 49 -11t14 -39v-19q0 -29 -14.5 -39.5t-49.5 -10.5q-34 0 -48 11zM202 -180q-16 16 -16 40v11
q0 40 51 55q32 10 40.5 33.5t8.5 65.5v449q0 26 17 43.5t43 17.5t43 -17.5t17 -43.5v-484q0 -56 -21.5 -98t-59 -65t-83.5 -23q-24 0 -40 16zM296 611q-14 11 -14 39v19q0 28 15 39t48 11q35 0 49 -11t14 -39v-19q0 -29 -14.5 -39.5t-49.5 -10.5q-34 0 -48 11z" />
    <glyph glyph-name="imacron" unicode="&#x12b;" horiz-adv-x="236" 
d="M161 17.5q-17 -17.5 -43 -17.5t-43 17.5t-17 43.5v413q0 26 17 43.5t43 17.5t43 -17.5t17 -43.5v-413q0 -26 -17 -43.5zM-40 611.5q-13 11.5 -13 33.5q0 21 13 32.5t37 11.5h242q24 0 37 -11.5t13 -32.5q0 -45 -50 -45h-242q-24 0 -37 11.5z" />
    <glyph glyph-name="iogonek" unicode="&#x12f;" horiz-adv-x="236" 
d="M69 611q-14 11 -14 39v19q0 28 15 39t48 11q35 0 49 -11t14 -39v-19q0 -29 -14.5 -39.5t-49.5 -10.5q-34 0 -48 11zM204.5 -97q12.5 -13 12.5 -35q0 -16 -16.5 -34t-43.5 -29.5t-56 -11.5q-53 0 -86.5 27t-33.5 80q0 43 20 70.5t57 44.5v459q0 26 17 43.5t43 17.5
t43 -17.5t17 -43.5v-410q0 -33 -13 -48.5t-39 -29.5q-23 -14 -34.5 -26.5t-11.5 -37.5q0 -17 9 -26.5t22 -9.5q12 0 21 12q14 18 41 18q19 0 31.5 -13z" />
    <glyph glyph-name="itilde" unicode="&#x129;" horiz-adv-x="236" 
d="M161 17.5q-17 -17.5 -43 -17.5t-43 17.5t-17 43.5v413q0 26 17 43.5t43 17.5t43 -17.5t17 -43.5v-413q0 -26 -17 -43.5zM-55 608.5q-16 18.5 -16 49.5q0 35 32 61.5t91 26.5q26 0 47.5 -10.5t49.5 -29.5q17 -13 28.5 -19t21.5 -6q11 0 17 6t3 15q-2 5 -2 14
q0 16 10.5 25.5t26.5 9.5q23 0 39 -18t16 -48q0 -19 -12 -40t-37.5 -35.5t-64.5 -14.5q-20 0 -42 10t-52 28q-24 14 -37.5 20.5t-24.5 6.5t-17 -6t-3 -15q2 -5 2 -14q0 -16 -10.5 -25.5t-26.5 -9.5q-23 0 -39 18.5z" />
    <glyph glyph-name="j" unicode="j" horiz-adv-x="275" 
d="M-4 -180q-16 16 -16 40v11q0 40 51 55q32 10 40.5 33.5t8.5 65.5v449q0 26 17 43.5t43 17.5t43 -17.5t17 -43.5v-484q0 -56 -21.5 -98t-59 -65t-83.5 -23q-24 0 -40 16zM90 611q-14 11 -14 39v19q0 28 15 39t48 11q35 0 49 -11t14 -39v-19q0 -29 -14.5 -39.5t-49.5 -10.5
q-34 0 -48 11z" />
    <glyph glyph-name="uni0237" unicode="&#x237;" horiz-adv-x="275" 
d="M-4 -180q-16 16 -16 40v11q0 40 51 55q32 10 40.5 33.5t8.5 65.5v449q0 26 17 43.5t43 17.5t43 -17.5t17 -43.5v-484q0 -56 -21.5 -98t-59 -65t-83.5 -23q-24 0 -40 16z" />
    <glyph glyph-name="jcircumflex" unicode="&#x135;" horiz-adv-x="275" 
d="M-4 -180q-16 16 -16 40v11q0 40 51 55q32 10 40.5 33.5t8.5 65.5v449q0 26 17 43.5t43 17.5t43 -17.5t17 -43.5v-484q0 -56 -21.5 -98t-59 -65t-83.5 -23q-24 0 -40 16zM271 639q2 -6 2 -15q0 -10 -8.5 -17.5t-21.5 -7.5q-15 0 -22.5 4t-15 10.5t-11.5 9.5l-53 47
l-57 -47q-4 -3 -12.5 -10.5t-16.5 -10.5t-20 -3q-13 0 -21.5 7.5t-8.5 17.5q0 9 2 15t10 16l49 62q23 29 61 29h36q20 0 31.5 -6t22.5 -23l44 -62q8 -10 10 -16z" />
    <glyph glyph-name="k" unicode="k" horiz-adv-x="569" 
d="M529 60q0 -25 -19.5 -42t-41.5 -17q-26 0 -44 20l-180 190l-49 -45v-105q0 -26 -17 -43.5t-43 -17.5t-43 17.5t-17 43.5v618q0 26 17 43.5t43 17.5t43 -17.5t17 -43.5v-370l214 207q19 19 44 19q22 0 39.5 -18.5t17.5 -37.5q0 -24 -24 -45l-151 -139l175 -190
q19 -20 19 -45z" />
    <glyph glyph-name="kcommaaccent" unicode="&#x137;" horiz-adv-x="569" 
d="M529 60q0 -25 -19.5 -42t-41.5 -17q-26 0 -44 20l-180 190l-49 -45v-105q0 -26 -17 -43.5t-43 -17.5t-43 17.5t-17 43.5v618q0 26 17 43.5t43 17.5t43 -17.5t17 -43.5v-370l214 207q19 19 44 19q22 0 39.5 -18.5t17.5 -37.5q0 -24 -24 -45l-151 -139l175 -190
q19 -20 19 -45zM348 -216q-17 -35 -44 -61t-56 -26q-22 0 -35 9.5t-13 30.5q0 16 8 22.5t17.5 9.5t13.5 5q28 15 28 40q0 11 -10.5 19.5t-27.5 8.5t-28 -7q-12 5 -18.5 13t-6.5 24q0 20 15 37.5t37 28t43 10.5q44 0 69 -27.5t25 -78.5q0 -23 -17 -58z" />
    <glyph glyph-name="kgreenlandic" unicode="&#x138;" horiz-adv-x="569" 
d="M529 60q0 -25 -19.5 -42t-41.5 -17q-26 0 -44 20l-180 190l-49 -45v-105q0 -26 -17 -43.5t-43 -17.5t-43 17.5t-17 43.5v413q0 26 17 43.5t43 17.5t43 -17.5t17 -43.5v-165l214 207q19 19 44 19q22 0 39.5 -18.5t17.5 -37.5q0 -24 -24 -45l-151 -139l175 -190
q19 -20 19 -45z" />
    <glyph glyph-name="l" unicode="l" horiz-adv-x="270" 
d="M177.5 17.5q-17.5 -17.5 -43.5 -17.5q-25 0 -42 17.5t-17 43.5v618q0 26 17.5 43.5t43.5 17.5q25 0 42 -17.5t17 -43.5v-618q0 -26 -17.5 -43.5z" />
    <glyph glyph-name="lacute" unicode="&#x13a;" horiz-adv-x="270" 
d="M177.5 17.5q-17.5 -17.5 -43.5 -17.5q-25 0 -42 17.5t-17 43.5v618q0 26 17.5 43.5t43.5 17.5q25 0 42 -17.5t17 -43.5v-618q0 -26 -17.5 -43.5zM106.5 788q-11.5 10 -11.5 26q0 14 14 27l86 76q26 22 49 22q19 0 36 -14t17 -35q0 -15 -9.5 -29.5t-27.5 -23.5l-100 -53
q-10 -6 -23 -6q-19 0 -30.5 10z" />
    <glyph glyph-name="lcaron" unicode="&#x13e;" horiz-adv-x="430" 
d="M177.5 17.5q-17.5 -17.5 -43.5 -17.5q-25 0 -42 17.5t-17 43.5v618q0 26 17.5 43.5t43.5 17.5q25 0 42 -17.5t17 -43.5v-618q0 -26 -17.5 -43.5zM423 520q-17 -35 -44 -61t-56 -26q-22 0 -35 9.5t-13 30.5q0 16 8 22.5t17.5 9.5t13.5 5q28 15 28 40q0 11 -10.5 19.5
t-27.5 8.5t-28 -7q-12 5 -18.5 13t-6.5 24q0 20 15 37.5t37 28t43 10.5q44 0 69 -27.5t25 -78.5q0 -23 -17 -58z" />
    <glyph glyph-name="lcommaaccent" unicode="&#x13c;" horiz-adv-x="270" 
d="M177.5 17.5q-17.5 -17.5 -43.5 -17.5q-25 0 -42 17.5t-17 43.5v618q0 26 17.5 43.5t43.5 17.5q25 0 42 -17.5t17 -43.5v-618q0 -26 -17.5 -43.5zM198 -216q-17 -35 -44 -61t-56 -26q-22 0 -35 9.5t-13 30.5q0 16 8 22.5t17.5 9.5t13.5 5q28 15 28 40q0 11 -10.5 19.5
t-27.5 8.5t-28 -7q-12 5 -18.5 13t-6.5 24q0 20 15 37.5t37 28t43 10.5q44 0 69 -27.5t25 -78.5q0 -23 -17 -58z" />
    <glyph glyph-name="ldot" unicode="&#x140;" horiz-adv-x="397" 
d="M177.5 17.5q-17.5 -17.5 -43.5 -17.5q-25 0 -42 17.5t-17 43.5v618q0 26 17.5 43.5t43.5 17.5q25 0 42 -17.5t17 -43.5v-618q0 -26 -17.5 -43.5zM284.5 253.5q-15.5 15.5 -15.5 44.5v17q0 29 15.5 44.5t44.5 15.5h13q29 0 44.5 -15.5t15.5 -44.5v-17q0 -29 -15.5 -44.5
t-44.5 -15.5h-13q-29 0 -44.5 15.5z" />
    <glyph glyph-name="uni1E37" unicode="&#x1e37;" horiz-adv-x="270" 
d="M177.5 17.5q-17.5 -17.5 -43.5 -17.5q-25 0 -42 17.5t-17 43.5v618q0 26 17.5 43.5t43.5 17.5q25 0 42 -17.5t17 -43.5v-618q0 -26 -17.5 -43.5zM86 -149q-14 11 -14 39v19q0 28 15 39t46 11q37 0 51 -11t14 -39v-19q0 -29 -15 -39.5t-50 -10.5q-33 0 -47 11z" />
    <glyph glyph-name="uni01C9" unicode="&#x1c9;" horiz-adv-x="531" 
d="M177.5 17.5q-17.5 -17.5 -43.5 -17.5q-25 0 -42 17.5t-17 43.5v618q0 26 17.5 43.5t43.5 17.5q25 0 42 -17.5t17 -43.5v-618q0 -26 -17.5 -43.5zM252 -180q-16 16 -16 40v11q0 40 51 55q32 10 40.5 33.5t8.5 65.5v449q0 26 17 43.5t43 17.5t43 -17.5t17 -43.5v-484
q0 -56 -21.5 -98t-59 -65t-83.5 -23q-24 0 -40 16zM346 611q-14 11 -14 39v19q0 28 15 39t48 11q35 0 49 -11t14 -39v-19q0 -29 -14.5 -39.5t-49.5 -10.5q-34 0 -48 11z" />
    <glyph glyph-name="uni1E3B" unicode="&#x1e3b;" horiz-adv-x="270" 
d="M177.5 17.5q-17.5 -17.5 -43.5 -17.5q-25 0 -42 17.5t-17 43.5v618q0 26 17.5 43.5t43.5 17.5q25 0 42 -17.5t17 -43.5v-618q0 -26 -17.5 -43.5zM-23 -135.5q-13 11.5 -13 33.5q0 21 13 32.5t37 11.5h242q24 0 37 -11.5t13 -32.5q0 -45 -50 -45h-242q-24 0 -37 11.5z" />
    <glyph glyph-name="lslash" unicode="&#x142;" horiz-adv-x="270" 
d="M284.5 453q13.5 -17 13.5 -34q0 -14 -8.5 -26t-22.5 -19l-72 -33v-280q0 -26 -17.5 -43.5t-43.5 -17.5q-25 0 -42 17.5t-17 43.5v225l-23 -11q-10 -5 -23 -5q-22 0 -35.5 17t-13.5 34q0 14 8.5 26t22.5 19l64 29v284q0 26 17.5 43.5t43.5 17.5q25 0 42 -17.5t17 -43.5
v-228l31 14q13 5 23 5q22 0 35.5 -17z" />
    <glyph glyph-name="m" unicode="m" horiz-adv-x="922" 
d="M819 484.5q38 -60.5 38 -167.5v-256q0 -26 -17 -43.5t-43 -17.5t-43 17.5t-17 43.5v256q0 55 -21.5 86.5t-75.5 31.5q-56 0 -87.5 -33.5t-31.5 -84.5v-256q0 -26 -17 -43.5t-43 -17.5t-43 17.5t-17 43.5v256q0 55 -21.5 86.5t-75.5 31.5q-56 0 -87.5 -33.5t-31.5 -84.5
v-256q0 -26 -17 -43.5t-43 -17.5t-43 17.5t-17 43.5v413q0 26 17 43.5t43 17.5t43 -17.5t17 -43.5v-16q27 36 68.5 61.5t92.5 25.5q126 0 161 -110q23 42 69.5 76t105.5 34q99 0 137 -60.5z" />
    <glyph glyph-name="uni1E43" unicode="&#x1e43;" horiz-adv-x="922" 
d="M819 484.5q38 -60.5 38 -167.5v-256q0 -26 -17 -43.5t-43 -17.5t-43 17.5t-17 43.5v256q0 55 -21.5 86.5t-75.5 31.5q-56 0 -87.5 -33.5t-31.5 -84.5v-256q0 -26 -17 -43.5t-43 -17.5t-43 17.5t-17 43.5v256q0 55 -21.5 86.5t-75.5 31.5q-56 0 -87.5 -33.5t-31.5 -84.5
v-256q0 -26 -17 -43.5t-43 -17.5t-43 17.5t-17 43.5v413q0 26 17 43.5t43 17.5t43 -17.5t17 -43.5v-16q27 36 68.5 61.5t92.5 25.5q126 0 161 -110q23 42 69.5 76t105.5 34q99 0 137 -60.5zM412 -149q-14 11 -14 39v19q0 28 15 39t46 11q37 0 51 -11t14 -39v-19
q0 -29 -15 -39.5t-50 -10.5q-33 0 -47 11z" />
    <glyph glyph-name="n" unicode="n" horiz-adv-x="596" 
d="M492 484.5q39 -60.5 39 -167.5v-256q0 -26 -17 -43.5t-43 -17.5t-43 17.5t-17 43.5v256q0 55 -23 86.5t-79 31.5q-58 0 -91 -33.5t-33 -84.5v-256q0 -26 -17 -43.5t-43 -17.5t-43 17.5t-17 43.5v413q0 26 17 43.5t43 17.5t43 -17.5t17 -43.5v-17q27 36 70.5 62t95.5 26
q102 0 141 -60.5z" />
    <glyph glyph-name="nacute" unicode="&#x144;" horiz-adv-x="596" 
d="M492 484.5q39 -60.5 39 -167.5v-256q0 -26 -17 -43.5t-43 -17.5t-43 17.5t-17 43.5v256q0 55 -23 86.5t-79 31.5q-58 0 -91 -33.5t-33 -84.5v-256q0 -26 -17 -43.5t-43 -17.5t-43 17.5t-17 43.5v413q0 26 17 43.5t43 17.5t43 -17.5t17 -43.5v-17q27 36 70.5 62t95.5 26
q102 0 141 -60.5zM281.5 578q-11.5 9 -10.5 24q0 9 6 19l58 102q10 18 24 29t31 11q27 0 40.5 -14t12.5 -36q-2 -23 -19 -43l-76 -84q-16 -17 -45 -17q-10 0 -21.5 9z" />
    <glyph glyph-name="napostrophe" unicode="&#x149;" horiz-adv-x="625" 
d="M29 700h31q22 0 33.5 -9.5t11.5 -26.5q0 -10 -4 -21l-68 -209q-12 -33 -43 -33q-16 0 -23.5 10.5t-5.5 30.5l16 210q4 48 52 48zM521 484.5q39 -60.5 39 -167.5v-256q0 -26 -17 -43.5t-43 -17.5t-43 17.5t-17 43.5v256q0 55 -23 86.5t-79 31.5q-58 0 -91 -33.5t-33 -84.5
v-256q0 -26 -17 -43.5t-43 -17.5t-43 17.5t-17 43.5v413q0 26 17 43.5t43 17.5t43 -17.5t17 -43.5v-17q27 36 70.5 62t95.5 26q102 0 141 -60.5z" />
    <glyph glyph-name="ncaron" unicode="&#x148;" horiz-adv-x="596" 
d="M492 484.5q39 -60.5 39 -167.5v-256q0 -26 -17 -43.5t-43 -17.5t-43 17.5t-17 43.5v256q0 55 -23 86.5t-79 31.5q-58 0 -91 -33.5t-33 -84.5v-256q0 -26 -17 -43.5t-43 -17.5t-43 17.5t-17 43.5v413q0 26 17 43.5t43 17.5t43 -17.5t17 -43.5v-17q27 36 70.5 62t95.5 26
q102 0 141 -60.5zM425 738.5q10 -7.5 10 -18.5q0 -16 -16 -35l-44 -55q-12 -16 -26.5 -23t-34.5 -7h-36q-20 0 -34.5 7t-26.5 23l-44 55q-12 16 -12 32q0 13 10.5 21t30.5 8q18 0 45 -23l50 -43l50 43q16 13 26.5 18t28.5 5q13 0 23 -7.5z" />
    <glyph glyph-name="ncommaaccent" unicode="&#x146;" horiz-adv-x="596" 
d="M492 484.5q39 -60.5 39 -167.5v-256q0 -26 -17 -43.5t-43 -17.5t-43 17.5t-17 43.5v256q0 55 -23 86.5t-79 31.5q-58 0 -91 -33.5t-33 -84.5v-256q0 -26 -17 -43.5t-43 -17.5t-43 17.5t-17 43.5v413q0 26 17 43.5t43 17.5t43 -17.5t17 -43.5v-17q27 36 70.5 62t95.5 26
q102 0 141 -60.5zM361 -216q-17 -35 -44 -61t-56 -26q-22 0 -35 9.5t-13 30.5q0 16 8 22.5t17.5 9.5t13.5 5q28 15 28 40q0 11 -10.5 19.5t-27.5 8.5t-28 -7q-12 5 -18.5 13t-6.5 24q0 20 15 37.5t37 28t43 10.5q44 0 69 -27.5t25 -78.5q0 -23 -17 -58z" />
    </font>
</defs>
</svg>
